<?xml version="1.0" standalone="no"?>
<!DOCTYPE svg PUBLIC "-//W3C//DTD SVG 20010904//EN"
 "http://www.w3.org/TR/2001/REC-SVG-20010904/DTD/svg10.dtd">
<svg version="1.0" xmlns="http://www.w3.org/2000/svg"
 width="4167.000000pt" height="1113.000000pt" viewBox="0 0 4167.000000 1113.000000"
 preserveAspectRatio="xMidYMid meet">

<g transform="translate(0.000000,1113.000000) scale(0.100000,-0.100000)"
fill="#000000" stroke="none">
<path d="M30230 7155 c-8 -10 -31 -15 -66 -15 -29 0 -56 -4 -59 -10 -3 -5 -23
-10 -44 -10 -22 0 -44 -6 -51 -15 -8 -9 -29 -15 -56 -15 -23 0 -46 -4 -49 -10
-3 -5 -19 -10 -35 -10 -16 0 -32 -4 -35 -10 -3 -5 -14 -10 -25 -10 -10 0 -20
-7 -24 -15 -3 -8 -14 -15 -25 -15 -11 0 -23 -4 -26 -10 -3 -5 -14 -10 -24 -10
-10 0 -24 -7 -31 -15 -7 -8 -16 -13 -20 -10 -4 3 -13 -2 -20 -10 -7 -8 -18
-15 -25 -15 -19 0 -70 -28 -90 -50 -10 -11 -26 -20 -35 -20 -9 0 -27 -11 -40
-25 -13 -14 -31 -25 -39 -25 -9 -1 -36 -21 -61 -45 -25 -25 -50 -45 -56 -45
-7 0 -52 -38 -100 -85 -49 -46 -95 -84 -103 -85 -7 0 -24 -11 -37 -25 -13 -14
-30 -25 -38 -25 -8 0 -18 -4 -21 -10 -3 -5 -22 -10 -41 -10 -35 0 -42 -8 -23
-27 17 -17 18 -81 2 -94 -7 -6 -13 -24 -13 -39 0 -16 -7 -30 -15 -34 -11 -4
-14 -13 -10 -29 4 -15 1 -28 -9 -36 -9 -8 -16 -21 -16 -31 0 -10 -7 -20 -15
-24 -8 -3 -12 -11 -9 -19 3 -8 -2 -20 -11 -27 -8 -7 -15 -23 -15 -37 0 -13 -6
-31 -14 -39 -8 -7 -12 -22 -9 -32 2 -10 -3 -24 -11 -31 -10 -9 -16 -30 -16
-56 0 -26 -5 -45 -12 -47 -8 -3 -12 -18 -10 -40 2 -22 -2 -39 -12 -47 -11 -9
-16 -31 -16 -67 0 -29 -4 -56 -10 -59 -6 -4 -10 -98 -10 -250 0 -152 4 -246
10 -250 6 -3 10 -35 10 -69 0 -45 4 -67 16 -77 9 -8 14 -25 12 -46 -1 -18 3
-38 10 -45 6 -6 12 -24 12 -39 0 -15 7 -29 16 -33 11 -4 15 -14 12 -31 -3 -14
1 -30 8 -36 8 -6 14 -24 14 -39 0 -15 7 -33 15 -40 8 -7 13 -16 10 -20 -3 -4
2 -13 10 -20 8 -7 15 -19 15 -27 0 -8 7 -21 15 -30 8 -8 13 -18 10 -23 -3 -4
2 -13 10 -20 8 -7 15 -18 15 -25 0 -7 6 -18 14 -25 8 -6 13 -17 10 -24 -3 -8
2 -16 10 -19 9 -4 16 -16 16 -27 0 -11 5 -20 10 -20 6 0 10 -7 10 -15 0 -17
-35 -21 -45 -5 -3 6 -10 10 -16 10 -12 0 -12 -77 1 -85 6 -3 10 -14 10 -24 0
-10 11 -27 25 -37 14 -10 25 -26 25 -34 0 -19 226 -234 250 -238 9 -2 31 -18
49 -37 18 -19 38 -35 45 -35 7 0 23 -11 36 -25 13 -14 31 -25 41 -25 10 0 20
-4 24 -9 5 -9 62 -41 72 -41 1 0 3 13 3 29 0 20 -9 36 -25 49 -28 22 -33 42
-10 42 8 0 15 -4 15 -10 0 -5 9 -10 20 -10 11 0 23 -7 26 -15 4 -8 12 -15 20
-15 13 0 29 -7 74 -31 8 -5 31 -16 50 -25 19 -8 43 -20 52 -25 10 -5 28 -9 42
-9 13 0 29 -7 36 -15 7 -8 21 -15 31 -15 11 0 19 -4 19 -10 0 -5 15 -10 34
-10 19 0 36 -5 38 -12 3 -7 20 -11 45 -10 26 2 44 -3 53 -13 8 -10 30 -15 66
-15 29 0 56 -4 59 -10 3 -6 51 -10 109 -10 80 0 106 -3 116 -15 18 -22 202
-22 220 0 9 11 35 15 106 15 56 0 94 4 94 10 0 6 26 10 59 10 45 0 60 4 65 16
5 13 15 15 46 11 27 -3 43 -1 51 9 6 8 24 14 40 14 15 0 31 5 34 10 3 6 19 10
34 10 16 0 34 7 41 15 7 8 21 15 31 15 11 0 19 5 19 10 0 6 8 10 19 10 10 0
24 6 31 14 6 8 18 12 26 9 7 -3 17 2 20 11 3 9 12 16 20 16 13 0 29 7 74 31 8
5 30 16 48 25 17 9 32 20 32 25 0 5 8 9 18 9 10 0 29 11 41 24 13 14 31 26 41
28 23 4 350 321 350 339 0 8 11 23 25 33 14 11 24 25 21 32 -2 6 9 24 24 39
16 16 27 31 25 35 -3 4 2 13 10 20 8 7 15 19 15 27 0 8 11 24 25 35 14 11 25
28 25 39 0 10 7 19 15 19 8 0 15 -4 15 -10 0 -5 8 -10 18 -10 22 0 72 50 72
72 0 9 7 18 15 22 8 3 15 15 15 26 0 11 5 20 10 20 6 0 10 9 10 19 0 11 4 22
9 26 12 7 41 64 41 80 0 7 6 15 13 18 9 3 14 42 15 149 3 121 1 147 -12 158
-12 9 -16 31 -16 76 0 34 -4 66 -10 69 -5 3 -10 35 -10 69 0 44 -5 67 -15 76
-10 8 -15 30 -15 61 0 26 -4 51 -10 54 -5 3 -10 30 -10 59 0 35 -5 58 -15 66
-8 7 -15 25 -15 41 0 16 -4 29 -10 29 -5 0 -10 20 -10 45 0 31 -5 47 -15 51
-8 4 -15 14 -15 24 0 11 -4 22 -10 25 -5 3 -10 19 -10 35 0 15 -7 30 -15 34
-9 3 -15 18 -15 35 0 16 -4 33 -10 36 -5 3 -10 14 -10 25 0 10 -7 20 -15 24
-8 3 -15 12 -15 19 0 18 -28 75 -41 82 -5 4 -9 14 -9 23 0 10 -11 25 -24 36
-14 10 -22 24 -19 32 3 8 -2 17 -11 20 -9 3 -16 14 -16 23 0 10 -11 28 -25 41
-14 13 -25 28 -25 35 0 6 -22 33 -50 60 -27 27 -50 54 -50 60 0 16 -204 215
-221 215 -8 0 -30 16 -49 35 -19 19 -41 35 -50 35 -9 0 -27 11 -40 25 -13 14
-31 25 -40 25 -8 0 -22 9 -30 20 -8 11 -22 20 -31 20 -9 0 -22 7 -29 15 -7 8
-18 15 -25 15 -16 0 -73 29 -80 41 -4 5 -19 9 -35 9 -16 0 -32 5 -35 10 -3 6
-14 10 -24 10 -10 0 -24 6 -30 14 -6 7 -21 11 -34 9 -14 -3 -29 2 -36 11 -9
10 -30 16 -57 16 -24 0 -44 5 -44 10 0 6 -26 10 -59 10 -43 0 -60 4 -65 15 -5
13 -45 15 -279 15 -232 0 -276 -2 -287 -15z m496 -140 c5 -11 22 -15 65 -15
33 0 59 -4 59 -10 0 -5 15 -10 33 -10 18 0 39 -6 45 -12 7 -7 27 -11 45 -10
21 2 38 -3 46 -12 8 -9 22 -16 32 -16 10 0 21 -4 24 -10 3 -5 19 -10 35 -10
16 0 32 -4 35 -10 3 -5 23 -17 43 -26 20 -8 45 -20 54 -25 10 -5 25 -9 33 -9
9 0 18 -7 21 -15 4 -8 14 -15 23 -15 10 0 28 -11 41 -25 13 -14 31 -25 40 -25
9 0 25 -9 35 -20 10 -11 23 -20 29 -20 6 0 29 -17 51 -38 21 -20 44 -37 50
-37 18 0 255 -227 255 -244 0 -7 16 -27 35 -44 19 -16 35 -38 35 -48 0 -9 11
-26 25 -37 14 -11 25 -27 25 -35 0 -8 7 -20 15 -27 8 -7 13 -16 10 -20 -3 -4
2 -13 10 -20 8 -7 15 -20 15 -30 0 -10 7 -21 16 -24 9 -4 14 -13 10 -21 -3 -9
1 -18 9 -21 9 -4 15 -19 15 -39 0 -20 6 -35 15 -39 11 -4 14 -13 10 -29 -4
-15 -1 -28 9 -36 9 -8 16 -25 16 -40 0 -15 5 -32 12 -39 7 -7 11 -31 9 -55 -1
-30 3 -48 13 -56 12 -10 16 -33 16 -92 0 -46 4 -79 10 -79 6 0 10 -95 10 -265
0 -170 -4 -265 -10 -265 -5 0 -10 -24 -10 -54 0 -35 -5 -58 -15 -66 -8 -7 -15
-18 -15 -24 0 -7 -11 -23 -25 -36 -14 -13 -25 -32 -25 -42 0 -10 -4 -18 -10
-18 -5 0 -10 -8 -10 -19 0 -10 -6 -24 -14 -30 -10 -8 -13 -23 -9 -45 3 -22 0
-36 -11 -45 -9 -7 -16 -19 -16 -25 0 -7 -11 -23 -25 -36 -14 -13 -25 -30 -25
-38 0 -8 -11 -23 -25 -34 -14 -11 -25 -26 -25 -34 0 -9 -22 -36 -50 -62 -27
-25 -50 -52 -50 -60 0 -17 -196 -206 -219 -210 -9 -2 -35 -22 -57 -44 -23 -22
-44 -39 -47 -37 -3 2 -17 -6 -31 -18 -15 -13 -32 -23 -40 -23 -7 0 -19 -7 -26
-15 -7 -8 -21 -15 -31 -15 -11 0 -19 -4 -19 -10 0 -5 -8 -10 -19 -10 -10 0
-24 -6 -31 -14 -6 -8 -18 -12 -26 -9 -7 3 -17 -2 -20 -11 -3 -9 -14 -16 -24
-16 -11 0 -22 -4 -25 -10 -3 -5 -19 -10 -34 -10 -16 0 -34 -7 -41 -15 -7 -8
-25 -15 -41 -15 -15 0 -31 -4 -34 -10 -3 -5 -20 -10 -36 -10 -17 0 -37 -6 -45
-14 -7 -8 -22 -12 -32 -9 -10 2 -24 -3 -31 -11 -10 -11 -31 -16 -72 -16 -33 0
-59 -4 -59 -10 0 -6 -35 -10 -84 -10 -65 0 -85 -3 -90 -15 -4 -12 -33 -15
-169 -15 -134 0 -167 3 -177 15 -8 10 -31 15 -66 15 -29 0 -56 5 -59 10 -3 6
-26 10 -49 10 -26 0 -48 6 -56 15 -7 8 -16 13 -20 10 -4 -3 -13 2 -20 10 -7 8
-23 15 -36 15 -14 0 -32 4 -42 9 -9 5 -24 12 -32 15 -8 4 -28 15 -45 25 -16
11 -48 20 -70 20 -36 1 -48 8 -100 61 -33 33 -67 60 -75 60 -9 0 -27 11 -40
25 -13 14 -29 25 -36 25 -7 0 -28 16 -47 35 -19 19 -40 35 -48 35 -19 1 -149
126 -149 144 0 8 -34 45 -75 83 -41 37 -75 75 -75 85 0 9 -11 25 -25 36 -14
11 -25 26 -25 34 0 8 -11 25 -25 38 -14 13 -25 29 -25 36 0 6 -7 17 -16 25 -9
8 -14 22 -11 37 3 14 -1 26 -9 29 -8 3 -14 13 -14 23 0 11 -4 21 -9 25 -12 7
-41 64 -41 80 0 7 -7 18 -15 25 -8 7 -13 16 -10 20 3 4 -2 13 -10 20 -8 7 -15
25 -15 40 0 16 -6 30 -12 32 -9 3 -12 25 -10 71 3 54 0 68 -12 73 -24 9 -24
345 0 365 12 10 15 28 12 81 -2 44 2 72 10 80 6 6 12 29 12 49 0 20 6 42 14
48 10 8 13 23 9 45 -3 22 0 36 11 45 9 7 16 26 16 41 0 15 7 33 15 40 9 8 13
21 9 36 -4 17 -1 26 10 30 9 3 16 12 16 19 0 16 29 73 41 80 5 4 9 15 9 26 0
10 5 19 10 19 6 0 10 8 10 19 0 10 7 24 15 31 8 7 15 18 15 24 0 7 11 23 25
36 14 13 25 30 25 38 0 8 11 23 25 34 14 11 25 26 25 34 0 9 16 30 35 48 19
19 35 40 35 47 0 15 189 195 200 192 4 -1 31 20 60 47 30 28 59 50 65 50 6 0
22 11 35 25 13 14 31 25 40 25 9 0 27 11 40 25 13 14 32 25 42 25 10 0 18 5
18 10 0 6 9 10 19 10 11 0 23 5 26 10 3 6 15 10 26 10 11 0 22 7 25 15 4 9 19
15 35 15 29 0 58 12 91 39 10 7 26 11 37 8 11 -3 25 1 32 9 7 8 30 14 55 14
23 0 46 5 49 10 3 6 30 10 59 10 35 0 58 5 66 15 10 13 51 15 252 15 203 0
239 -2 244 -15z"/>
<path d="M31943 4144 c-7 -19 123 -154 149 -154 9 0 20 -4 23 -10 9 -15 62
-12 68 4 6 16 -122 146 -145 146 -8 0 -21 7 -28 15 -16 20 -59 19 -67 -1z"/>
<path d="M32240 4033 c0 -29 72 -113 98 -113 7 0 22 -8 32 -18 20 -18 19 -20
-76 -107 -95 -88 -133 -115 -160 -115 -7 0 -34 20 -60 45 -33 32 -45 51 -41
65 3 11 -1 24 -9 31 -8 6 -14 18 -14 26 0 8 -11 24 -25 35 -14 11 -25 27 -25
35 0 9 -26 40 -57 70 -43 39 -65 53 -83 51 -36 -4 -39 -46 -5 -78 14 -13 25
-30 25 -38 0 -8 11 -23 25 -34 14 -11 25 -28 25 -39 0 -11 7 -22 16 -26 12 -5
15 -24 13 -115 -1 -70 3 -114 10 -121 6 -6 11 -19 11 -28 0 -9 7 -20 16 -23 9
-4 14 -13 10 -21 -3 -9 1 -18 9 -21 11 -5 15 -22 15 -60 0 -53 6 -64 26 -44 7
7 18 2 34 -15 13 -14 29 -25 36 -25 18 0 154 -130 154 -147 0 -8 23 -35 50
-60 28 -25 50 -53 50 -62 0 -9 11 -25 25 -35 14 -10 25 -25 25 -33 0 -25 59
-73 90 -73 17 0 30 -4 30 -10 0 -5 18 -10 41 -10 39 0 40 -1 37 -32 -3 -31 -1
-33 35 -36 33 -3 37 -6 37 -31 0 -29 24 -86 41 -96 5 -4 9 -13 9 -21 0 -19
151 -163 171 -164 9 0 19 -7 23 -15 3 -8 13 -15 22 -15 10 0 33 -12 52 -26 29
-23 33 -31 28 -56 -4 -20 -1 -30 9 -34 8 -4 15 -14 15 -24 0 -9 23 -38 50 -64
28 -26 50 -53 50 -60 0 -8 50 -60 110 -116 61 -57 110 -109 110 -116 0 -18
112 -124 133 -124 9 0 17 -4 17 -10 0 -5 20 -10 44 -10 27 0 48 -6 57 -16 7
-9 21 -13 33 -10 15 4 33 -7 68 -41 27 -26 48 -52 48 -59 0 -19 -35 -44 -62
-44 -14 0 -31 -7 -38 -15 -8 -10 -30 -15 -65 -15 -40 0 -56 -5 -71 -21 -19
-21 -13 -46 17 -59 8 -4 24 -12 36 -18 28 -15 269 -16 278 -2 3 6 26 10 50 10
30 0 45 5 49 16 3 9 13 14 20 11 8 -3 20 1 26 9 7 8 21 14 31 14 11 0 19 5 19
10 0 6 8 10 19 10 10 0 24 7 31 15 7 8 20 15 29 15 10 0 28 11 41 25 12 13 26
22 30 20 13 -8 187 163 194 190 4 14 11 25 16 25 6 0 10 8 10 19 0 10 7 24 15
31 8 7 15 25 15 41 0 16 5 29 10 29 6 0 10 13 10 29 0 17 -4 33 -10 36 -5 3
-10 18 -10 33 0 17 -11 36 -32 54 -29 25 -30 28 -13 34 11 5 20 3 23 -4 2 -7
12 -12 23 -12 14 0 19 7 19 30 0 23 -5 30 -19 30 -10 0 -24 7 -31 15 -9 10
-32 15 -75 15 -47 0 -66 4 -78 18 -10 10 -17 23 -17 29 0 6 -7 16 -15 23 -8 7
-15 21 -15 31 0 11 -4 19 -10 19 -5 0 -10 13 -10 29 0 25 -26 54 -165 188 -91
87 -174 160 -183 162 -9 2 -75 60 -145 130 -70 69 -136 128 -146 131 -10 3
-69 53 -131 113 -63 59 -118 107 -124 107 -6 0 -60 47 -121 105 -60 57 -116
104 -122 105 -7 0 -52 38 -100 85 -49 46 -95 85 -103 85 -9 0 -54 38 -100 85
-47 47 -90 83 -96 81 -6 -2 -38 22 -70 55 -32 32 -65 59 -74 59 -9 0 -34 18
-55 40 -21 22 -47 40 -57 40 -10 0 -18 5 -18 10 0 6 -30 10 -70 10 -69 0 -70
0 -70 -27z m1876 -1814 c18 -17 30 -38 27 -45 -3 -8 2 -17 11 -20 21 -8 22
-70 1 -78 -8 -3 -15 -12 -15 -21 0 -16 -105 -120 -121 -120 -4 0 -14 -6 -20
-12 -19 -19 -76 -16 -83 3 -3 9 -12 14 -20 11 -16 -6 -76 52 -76 74 0 9 11 26
25 39 14 13 25 28 25 34 0 18 133 146 152 146 9 0 20 5 23 10 11 18 39 10 71
-21z"/>
</g>
</svg>
