<svg id="svg" version="1.1" width="1000" height="267" xmlns="http://www.w3.org/2000/svg" xmlns:xlink="http://www.w3.org/1999/xlink" style="display: block;"><g id="svgg"><path id="path0" d="M24.047 4.266 C 23.769 6.430,23.114 11.170,22.591 14.800 C 22.068 18.430,21.079 25.450,20.393 30.400 C 19.706 35.350,18.887 41.131,18.572 43.248 C 18.258 45.364,18.000 47.498,18.000 47.991 L 18.000 48.886 30.100 48.709 C 43.464 48.513,45.204 48.219,51.379 45.108 C 68.925 36.267,72.129 11.071,56.676 3.454 C 51.381 0.844,50.321 0.686,36.776 0.500 L 24.552 0.332 24.047 4.266 M48.600 12.161 C 59.000 17.301,56.139 33.186,44.052 37.409 C 40.654 38.596,30.402 39.309,30.398 38.358 C 30.395 37.803,30.750 35.219,32.611 22.200 C 33.146 18.460,33.703 14.251,33.850 12.847 L 34.115 10.294 39.863 10.489 C 45.509 10.680,45.664 10.710,48.600 12.161 M82.516 16.145 C 70.061 21.197,65.412 36.514,73.672 45.284 C 79.461 51.430,92.874 50.907,99.859 44.263 L 101.188 43.000 98.519 40.800 C 94.144 37.193,94.585 37.340,92.847 38.910 C 88.147 43.156,81.431 41.985,80.175 36.700 L 79.913 35.600 91.710 35.600 L 103.507 35.600 103.767 34.700 C 107.877 20.518,96.414 10.509,82.516 16.145 M109.036 16.700 C 109.174 17.305,109.694 19.240,110.192 21.000 C 110.690 22.760,111.593 26.000,112.197 28.200 C 113.256 32.052,113.753 33.846,116.391 43.357 C 117.056 45.754,117.600 47.959,117.600 48.257 C 117.600 48.689,118.775 48.800,123.349 48.800 L 129.099 48.800 132.821 41.900 C 134.868 38.105,137.162 33.830,137.919 32.400 C 139.253 29.879,143.955 21.169,145.862 17.686 C 146.378 16.743,146.800 15.888,146.800 15.786 C 146.800 15.684,144.391 15.600,141.447 15.600 L 136.094 15.600 134.977 17.900 C 134.362 19.165,131.941 24.114,129.597 28.898 L 125.335 37.597 124.226 32.698 C 123.616 30.004,122.785 26.450,122.379 24.800 C 121.974 23.150,121.329 20.405,120.948 18.700 L 120.254 15.600 114.519 15.600 L 108.785 15.600 109.036 16.700 M229.796 21.207 C 221.340 22.888,215.252 28.194,213.609 35.313 C 211.868 42.857,215.327 47.319,225.400 50.518 C 232.803 52.870,234.890 55.467,232.218 59.001 C 229.526 62.562,221.483 62.381,218.142 58.684 L 216.758 57.152 213.279 60.338 C 211.366 62.090,209.304 64.048,208.697 64.687 L 207.594 65.850 208.646 66.765 C 220.708 77.253,241.687 71.329,244.239 56.714 C 245.662 48.563,242.883 45.084,232.263 41.722 C 225.154 39.470,223.270 36.884,226.277 33.501 C 229.024 30.410,237.730 30.644,239.528 33.857 C 239.889 34.502,240.442 34.086,244.268 30.285 L 248.600 25.982 247.200 24.802 C 243.453 21.644,235.676 20.037,229.796 21.207 M91.130 22.835 C 92.628 23.358,94.000 25.419,94.000 27.147 L 94.000 28.400 87.400 28.400 C 80.147 28.400,80.218 28.433,82.106 25.931 C 84.342 22.967,87.953 21.728,91.130 22.835 M370.038 31.300 C 369.123 37.868,369.602 37.200,365.806 37.200 L 362.511 37.200 362.276 39.500 C 362.146 40.765,361.916 42.745,361.764 43.900 L 361.489 46.000 364.776 46.000 L 368.064 46.000 367.839 47.100 C 367.580 48.372,366.676 54.567,365.979 59.853 C 364.860 68.338,367.838 71.402,377.200 71.398 C 383.424 71.395,384.232 71.010,384.565 67.885 C 384.711 66.518,384.936 64.500,385.065 63.400 C 385.258 61.750,385.207 61.487,384.770 61.900 C 384.447 62.205,383.113 62.400,381.349 62.400 C 376.418 62.400,376.264 61.903,377.847 51.100 L 378.594 46.000 383.056 46.000 L 387.518 46.000 387.953 43.500 C 388.192 42.125,388.505 40.145,388.648 39.100 L 388.909 37.200 384.454 37.200 C 379.389 37.200,379.770 37.588,380.405 33.077 C 380.628 31.494,380.887 29.615,380.980 28.900 L 381.150 27.600 375.851 27.600 L 370.553 27.600 370.038 31.300 M265.965 36.796 C 255.150 39.543,248.748 48.468,250.008 59.041 C 251.308 69.952,264.836 75.146,275.874 68.974 C 279.138 67.148,279.113 67.288,276.696 64.306 C 275.543 62.884,274.204 61.216,273.720 60.598 L 272.839 59.475 271.333 60.624 C 266.765 64.108,260.423 61.075,260.408 55.400 C 260.389 48.364,269.143 42.961,273.501 47.320 L 274.532 48.350 278.479 44.707 L 282.426 41.065 281.134 39.732 C 278.618 37.136,270.676 35.599,265.965 36.796 M326.615 37.700 C 326.527 37.975,326.247 39.820,325.992 41.800 C 325.737 43.780,325.094 48.309,324.564 51.865 C 322.765 63.931,323.623 68.207,328.283 70.397 C 332.709 72.477,338.871 71.677,342.721 68.522 L 344.531 67.039 344.273 68.920 L 344.015 70.800 349.137 70.800 L 354.259 70.800 355.144 64.700 C 355.632 61.345,356.480 55.360,357.030 51.400 C 357.579 47.440,358.202 42.995,358.414 41.523 C 359.097 36.786,359.556 37.200,353.608 37.200 C 347.728 37.200,348.276 36.839,347.843 41.000 C 346.100 57.748,344.298 62.000,338.941 62.000 C 334.100 62.000,333.803 59.526,336.585 42.373 C 337.515 36.641,338.011 37.200,331.987 37.200 C 328.169 37.200,326.732 37.334,326.615 37.700 M299.400 39.845 C 294.413 40.938,291.655 42.778,295.500 42.447 C 296.456 42.365,296.740 42.996,295.900 43.335 C 295.601 43.456,295.682 43.550,296.100 43.568 C 296.485 43.586,296.800 43.780,296.800 44.000 C 296.800 44.220,296.963 44.400,297.163 44.400 C 297.362 44.400,297.431 44.040,297.316 43.600 C 297.090 42.736,297.802 42.475,298.135 43.300 C 298.296 43.700,298.343 43.700,298.368 43.300 C 298.406 42.711,300.000 42.613,300.000 43.200 C 300.000 43.420,300.373 43.600,300.829 43.600 C 301.284 43.600,301.927 43.870,302.257 44.200 C 302.610 44.553,303.587 44.800,304.629 44.800 C 305.603 44.800,306.400 44.980,306.400 45.200 C 306.400 45.420,307.051 45.600,307.847 45.600 C 309.096 45.600,309.265 45.491,309.084 44.800 C 308.842 43.874,310.287 43.647,311.120 44.480 C 311.384 44.744,311.600 44.789,311.600 44.580 C 311.600 42.573,302.705 39.121,299.400 39.845 M299.000 44.400 C 299.136 44.620,299.642 44.787,300.124 44.772 C 300.969 44.745,300.971 44.731,300.200 44.400 C 299.099 43.927,298.708 43.927,299.000 44.400 M90.655 57.007 C 80.487 59.585,73.716 68.442,74.495 78.146 C 75.997 96.857,106.014 95.805,111.268 76.858 C 114.900 63.760,104.296 53.548,90.655 57.007 M137.200 56.965 C 134.119 58.132,132.766 58.855,131.380 60.072 L 129.929 61.345 130.210 59.473 L 130.491 57.600 125.672 57.600 C 120.070 57.600,120.715 56.941,119.807 63.600 C 119.462 66.130,118.743 71.260,118.210 75.000 C 117.676 78.740,116.768 85.130,116.191 89.200 C 115.615 93.270,114.824 98.805,114.435 101.500 L 113.726 106.400 119.031 106.400 L 124.336 106.400 124.550 105.300 C 124.668 104.695,124.945 102.850,125.166 101.200 C 127.017 87.397,126.970 87.603,128.027 88.737 C 130.871 91.790,139.064 92.551,143.800 90.203 C 154.974 84.662,158.818 66.922,150.400 59.742 C 146.971 56.817,140.940 55.549,137.200 56.965 M171.104 57.023 C 163.567 58.850,159.161 64.827,160.392 71.555 C 160.994 74.848,164.653 77.228,170.600 78.192 C 174.912 78.892,176.913 81.121,174.594 82.641 C 172.099 84.276,168.192 83.694,165.532 81.291 L 163.969 79.879 160.437 83.240 C 156.324 87.152,156.365 87.053,158.251 88.558 C 163.839 93.017,177.047 92.537,182.450 87.679 C 190.057 80.839,187.219 72.474,176.536 70.254 C 171.880 69.285,170.480 68.340,171.239 66.674 C 172.408 64.109,177.400 64.148,179.747 66.742 C 180.492 67.564,180.498 67.561,184.043 64.483 C 187.917 61.118,188.023 60.927,186.700 59.717 C 183.615 56.896,176.616 55.687,171.104 57.023 M98.619 66.976 C 102.692 69.644,101.998 77.119,97.348 80.668 C 95.078 82.399,89.554 82.583,87.660 80.989 C 80.362 74.848,90.618 61.733,98.619 66.976 M141.523 67.083 C 144.539 69.334,145.143 73.592,143.004 77.522 C 139.201 84.508,128.000 83.288,128.000 75.889 C 128.000 68.660,136.352 63.221,141.523 67.083 " stroke="none" fill="#ffffff" fill-rule="evenodd"></path><path id="path1" d="M320.400 69.944 C 320.400 70.157,321.180 71.022,322.133 71.866 C 323.086 72.710,326.608 75.893,329.959 78.941 C 333.310 81.988,336.132 84.401,336.230 84.303 C 336.423 84.110,333.834 81.627,329.449 77.800 C 327.937 76.480,326.118 74.860,325.407 74.200 C 324.697 73.540,323.279 72.225,322.257 71.278 C 321.236 70.331,320.400 69.731,320.400 69.944 M317.605 72.908 C 316.838 73.596,316.509 74.044,316.874 73.904 C 317.486 73.669,331.510 87.207,331.944 88.452 C 332.023 88.679,332.598 88.377,333.220 87.781 L 334.352 86.696 327.476 79.930 C 323.694 76.208,320.240 72.824,319.800 72.410 C 319.013 71.670,318.977 71.678,317.605 72.908 M317.600 75.277 C 317.600 75.387,317.960 75.893,318.400 76.400 C 318.840 76.907,319.200 77.143,319.200 76.923 C 319.200 76.704,318.840 76.198,318.400 75.800 C 317.960 75.402,317.600 75.166,317.600 75.277 M335.722 90.100 C 334.973 90.924,334.611 92.417,335.167 92.387 C 335.846 92.351,337.647 90.300,337.450 89.787 C 337.136 88.969,336.673 89.053,335.722 90.100 " stroke="none" fill="#322d2d" fill-rule="evenodd"></path><path id="path2" d="M294.800 36.928 C 278.566 42.513,277.885 66.528,293.800 72.175 C 294.900 72.565,296.200 73.073,296.688 73.304 C 298.187 74.011,304.518 73.843,305.626 73.067 C 306.150 72.700,307.009 72.400,307.537 72.400 C 308.064 72.400,309.560 71.753,310.862 70.963 C 313.400 69.420,314.516 69.548,314.376 71.366 C 314.247 73.031,314.435 73.433,316.258 75.400 C 319.858 79.283,321.091 80.644,324.957 85.000 C 327.105 87.420,329.427 89.895,330.116 90.500 L 331.370 91.600 327.729 91.600 C 323.950 91.600,321.853 92.391,322.567 93.547 C 322.893 94.075,335.100 94.165,337.577 93.658 C 339.251 93.316,339.586 92.584,338.225 92.242 L 337.214 91.988 338.607 90.164 C 340.431 87.774,340.369 87.130,338.100 84.867 C 335.497 82.270,324.400 72.297,324.400 72.554 C 324.400 72.669,327.145 75.234,330.500 78.255 C 333.855 81.275,336.667 84.029,336.748 84.373 C 337.002 85.446,337.766 86.200,338.600 86.200 C 340.733 86.200,339.030 90.159,335.932 92.403 C 334.310 93.578,333.089 93.827,331.300 93.348 C 330.100 93.026,330.151 92.400,331.376 92.400 C 331.913 92.400,332.469 92.212,332.611 91.982 C 332.991 91.367,332.032 90.400,331.040 90.400 C 330.566 90.400,329.836 89.995,329.418 89.500 C 328.999 89.005,326.484 86.187,323.829 83.238 C 314.816 73.229,314.722 73.109,314.955 71.933 C 315.097 71.218,314.899 70.525,314.354 69.833 C 313.908 69.265,313.707 68.800,313.909 68.800 C 314.458 68.800,315.489 70.056,315.962 71.301 C 316.496 72.704,317.173 72.690,318.557 71.245 L 319.664 70.090 318.756 69.454 C 317.576 68.628,318.085 68.128,319.466 68.757 C 320.417 69.191,320.478 69.176,320.018 68.622 C 319.734 68.280,318.916 68.000,318.200 68.000 C 316.576 68.000,315.634 67.033,316.317 66.066 C 317.729 64.066,318.750 62.040,318.972 60.800 L 319.222 59.400 318.229 61.200 C 317.556 62.420,317.230 62.744,317.218 62.206 C 317.205 61.650,316.931 61.903,316.300 63.052 C 313.102 68.880,308.155 71.738,301.200 71.775 C 296.542 71.800,295.704 71.611,292.338 69.778 C 290.933 69.013,290.581 69.048,291.251 69.888 C 291.706 70.458,291.590 70.440,290.574 69.788 C 288.455 68.426,287.796 67.843,286.634 66.300 C 285.562 64.875,285.645 64.230,286.763 65.300 C 287.050 65.575,286.714 64.720,286.015 63.400 C 283.163 58.011,282.980 52.551,285.460 46.857 C 285.974 45.678,286.277 44.508,286.133 44.257 C 285.989 44.006,286.016 43.931,286.193 44.090 C 286.369 44.250,287.560 43.412,288.839 42.228 C 297.747 33.981,311.299 36.312,316.383 46.965 C 317.509 49.324,318.550 53.463,319.096 57.748 C 319.426 60.339,319.987 58.547,319.994 54.881 C 319.999 52.371,319.805 51.158,319.200 49.906 C 318.760 48.995,318.400 47.900,318.400 47.472 C 318.400 45.645,313.959 40.321,310.968 38.563 C 306.321 35.831,299.882 35.180,294.800 36.928 M297.000 38.936 C 292.244 40.174,288.630 43.165,286.091 47.965 C 284.376 51.206,284.009 58.421,285.447 60.616 C 285.787 61.134,286.100 61.793,286.142 62.079 C 286.301 63.143,289.606 67.042,291.165 68.004 C 292.052 68.552,292.783 69.135,292.789 69.300 C 292.795 69.465,293.025 69.606,293.300 69.614 C 293.575 69.621,294.520 69.975,295.400 70.400 C 299.614 72.436,307.197 71.090,311.642 67.518 C 313.364 66.135,316.000 62.729,316.000 61.888 C 316.000 61.608,316.315 60.933,316.700 60.389 C 318.136 58.360,317.633 51.175,315.818 47.800 C 311.936 40.583,304.369 37.018,297.000 38.936 M307.400 41.161 C 311.731 43.217,314.975 47.510,315.374 51.714 C 315.483 52.861,315.475 53.483,315.356 53.095 C 315.078 52.189,314.416 52.572,314.656 53.500 C 315.085 55.163,303.720 56.392,301.898 54.881 C 301.477 54.532,301.186 54.499,301.012 54.781 C 300.693 55.296,298.133 55.339,297.821 54.834 C 297.696 54.633,296.246 54.341,294.597 54.187 C 292.949 54.032,291.600 53.747,291.600 53.553 C 291.600 53.359,291.195 53.194,290.700 53.187 C 288.002 53.147,287.212 48.834,289.320 45.649 C 292.953 40.159,301.053 38.148,307.400 41.161 M317.360 69.154 C 317.126 69.422,315.200 68.001,315.200 67.560 C 315.200 67.329,315.716 67.558,316.347 68.070 C 316.978 68.581,317.434 69.069,317.360 69.154 M321.600 70.125 C 321.600 70.194,322.185 70.779,322.900 71.425 L 324.200 72.600 323.025 71.300 C 321.930 70.088,321.600 69.816,321.600 70.125 M334.275 87.522 C 332.992 88.861,332.946 89.249,333.989 89.901 C 335.285 90.709,337.584 88.288,336.577 87.175 C 335.669 86.172,335.552 86.189,334.275 87.522 " stroke="none" fill="#deeaf7" fill-rule="evenodd"></path><path id="path3" d="M292.753 42.310 C 292.727 42.469,292.731 42.748,292.763 42.930 C 292.794 43.111,292.622 43.137,292.380 42.988 C 292.139 42.838,291.493 43.137,290.945 43.651 C 287.303 47.073,287.147 53.134,290.700 53.187 C 291.195 53.194,291.600 53.359,291.600 53.553 C 291.600 53.747,292.949 54.032,294.597 54.187 C 296.246 54.341,297.696 54.633,297.821 54.834 C 298.133 55.339,300.693 55.296,301.012 54.781 C 301.186 54.499,301.477 54.532,301.898 54.881 C 303.720 56.392,315.085 55.163,314.656 53.500 C 314.416 52.572,315.078 52.189,315.356 53.095 C 315.475 53.483,315.481 52.846,315.369 51.680 C 315.154 49.425,313.212 45.326,312.442 45.500 C 312.199 45.555,311.997 45.195,311.994 44.700 C 311.989 44.043,311.895 43.946,311.644 44.343 C 311.404 44.721,311.217 44.751,311.026 44.443 C 310.507 43.602,308.851 43.907,309.084 44.800 C 309.265 45.491,309.096 45.600,307.847 45.600 C 307.051 45.600,306.400 45.420,306.400 45.200 C 306.400 44.980,305.603 44.800,304.629 44.800 C 303.587 44.800,302.610 44.553,302.257 44.200 C 301.927 43.870,301.284 43.600,300.829 43.600 C 300.373 43.600,300.000 43.420,300.000 43.200 C 300.000 42.621,298.504 42.707,298.265 43.300 C 298.104 43.700,298.057 43.700,298.032 43.300 C 298.014 43.025,297.799 42.800,297.553 42.800 C 297.304 42.800,297.199 43.153,297.316 43.600 C 297.431 44.040,297.362 44.400,297.163 44.400 C 296.963 44.400,296.800 44.220,296.800 44.000 C 296.800 43.780,296.485 43.586,296.100 43.568 C 295.682 43.550,295.601 43.456,295.900 43.335 C 296.748 42.993,296.451 42.293,295.557 42.527 C 295.093 42.648,294.283 42.584,293.757 42.384 C 293.231 42.184,292.779 42.150,292.753 42.310 M300.200 44.400 C 300.971 44.731,300.969 44.745,300.124 44.772 C 299.642 44.787,299.136 44.620,299.000 44.400 C 298.708 43.927,299.099 43.927,300.200 44.400 " stroke="none" fill="#e9f2fa" fill-rule="evenodd"></path><path id="path4" d="M296.983 37.758 C 293.878 38.512,291.354 39.899,288.824 42.242 C 287.553 43.418,286.369 44.250,286.193 44.090 C 286.016 43.931,285.989 44.006,286.133 44.257 C 286.277 44.508,285.974 45.678,285.460 46.857 C 282.980 52.551,283.163 58.011,286.015 63.400 C 286.714 64.720,287.050 65.575,286.763 65.300 C 285.645 64.230,285.562 64.875,286.634 66.300 C 287.796 67.843,288.455 68.426,290.574 69.788 C 291.590 70.440,291.706 70.458,291.251 69.888 C 290.581 69.048,290.933 69.013,292.338 69.778 C 300.957 74.472,311.686 71.461,316.300 63.052 C 316.931 61.902,317.206 61.649,317.219 62.206 C 317.231 62.713,317.605 62.293,318.255 61.043 C 319.363 58.914,319.363 58.630,318.267 52.894 C 316.113 41.623,307.192 35.278,296.983 37.758 M308.200 40.169 C 314.183 43.126,317.302 48.176,317.362 55.000 C 317.393 58.590,317.271 59.582,316.700 60.389 C 316.315 60.933,316.000 61.608,316.000 61.888 C 316.000 62.729,313.364 66.135,311.642 67.518 C 307.197 71.090,299.614 72.436,295.400 70.400 C 294.520 69.975,293.575 69.621,293.300 69.614 C 293.025 69.606,292.795 69.465,292.789 69.300 C 292.783 69.135,292.052 68.552,291.165 68.004 C 289.606 67.042,286.301 63.143,286.142 62.079 C 286.100 61.793,285.787 61.134,285.447 60.616 C 284.448 59.090,284.212 54.945,284.942 51.735 C 287.409 40.890,298.501 35.374,308.200 40.169 M315.200 67.560 C 315.200 68.001,317.126 69.422,317.360 69.154 C 317.434 69.069,316.978 68.581,316.347 68.070 C 315.716 67.558,315.200 67.329,315.200 67.560 M318.000 68.704 C 318.000 68.871,318.380 69.245,318.845 69.535 L 319.690 70.063 318.570 71.231 C 317.173 72.690,316.497 72.708,315.962 71.301 C 315.489 70.056,314.458 68.800,313.909 68.800 C 313.707 68.800,313.913 69.272,314.366 69.848 C 314.900 70.527,315.110 71.219,314.962 71.811 C 314.830 72.334,315.003 73.139,315.367 73.694 C 315.717 74.228,315.867 74.813,315.701 74.996 C 315.536 75.179,315.612 75.207,315.871 75.058 C 316.379 74.767,319.879 78.641,319.690 79.285 C 319.630 79.491,319.752 79.553,319.962 79.423 C 320.173 79.293,320.460 79.373,320.600 79.600 C 320.740 79.827,321.027 79.907,321.238 79.777 C 321.448 79.647,321.570 79.779,321.510 80.070 C 321.449 80.362,321.638 80.551,321.930 80.490 C 322.221 80.430,322.350 80.557,322.216 80.774 C 321.810 81.431,324.858 84.538,325.302 83.920 C 325.570 83.547,325.610 83.604,325.442 84.122 C 325.282 84.617,325.753 85.432,326.943 86.722 C 327.897 87.755,329.015 89.005,329.428 89.500 C 329.840 89.995,330.566 90.400,331.040 90.400 C 332.032 90.400,332.991 91.367,332.611 91.982 C 332.469 92.212,331.913 92.400,331.376 92.400 C 330.151 92.400,330.100 93.026,331.300 93.348 C 334.910 94.315,340.956 89.403,338.957 87.127 C 338.251 86.323,338.249 86.282,338.921 86.528 C 339.384 86.697,339.547 86.637,339.376 86.361 C 339.229 86.124,338.789 86.014,338.397 86.117 C 337.746 86.287,337.162 85.606,336.729 84.172 C 336.559 83.606,320.853 69.469,319.726 68.867 C 318.724 68.331,318.000 68.263,318.000 68.704 M325.407 74.200 C 326.118 74.860,327.937 76.480,329.449 77.800 C 333.834 81.627,336.423 84.110,336.230 84.303 C 336.132 84.401,333.310 81.988,329.959 78.941 C 326.608 75.893,323.086 72.710,322.133 71.866 C 321.180 71.022,320.400 70.157,320.400 69.944 C 320.400 69.731,321.236 70.331,322.257 71.278 C 323.279 72.225,324.697 73.540,325.407 74.200 M327.476 79.930 L 334.352 86.696 333.220 87.781 C 332.598 88.377,332.023 88.679,331.944 88.452 C 331.510 87.207,317.486 73.669,316.874 73.904 C 316.509 74.044,316.838 73.596,317.605 72.908 C 318.977 71.678,319.013 71.670,319.800 72.410 C 320.240 72.824,323.694 76.208,327.476 79.930 M319.200 76.923 C 319.200 77.143,318.840 76.907,318.400 76.400 C 317.960 75.893,317.600 75.387,317.600 75.277 C 317.600 75.166,317.960 75.402,318.400 75.800 C 318.840 76.198,319.200 76.704,319.200 76.923 M336.577 87.175 C 337.584 88.288,335.285 90.709,333.989 89.901 C 332.946 89.249,332.992 88.861,334.275 87.522 C 335.552 86.189,335.669 86.172,336.577 87.175 M337.450 89.787 C 337.647 90.300,335.846 92.351,335.167 92.387 C 334.611 92.417,334.973 90.924,335.722 90.100 C 336.673 89.053,337.136 88.969,337.450 89.787 " stroke="none" fill="#413e41" fill-rule="evenodd"></path></g></svg>