<?xml version="1.0" encoding="utf-8"?>
<!-- Generator: Adobe Illustrator 19.0.0, SVG Export Plug-In . SVG Version: 6.00 Build 0)  -->
<svg version="1.1" id="Ebene_1" xmlns="http://www.w3.org/2000/svg" xmlns:xlink="http://www.w3.org/1999/xlink" x="0px" y="0px"
	 viewBox="0 0 523.2 138" style="enable-background:new 0 0 523.2 138;" xml:space="preserve">
<style type="text/css">
	.st0{fill:#FFFFFF;}
</style>
<g>
	<g>
		<path class="st0" d="M41.4,62.4l1.1-5.2l0,0l1.1-5.2l0,0l1.1-5.2l0,0l1.1-5.2l0-0.1L47,36l0-0.1l1.1-5.2l0-0.1l1.1-5.2l0-0.1
			l1.1-5.2l0-0.1l1.1-5l0.1-0.2l1.1-5.3l0.9-4.1c0.1-0.4,0.1-0.8,0.1-1.2C53.4,2.4,52,1.1,50,1.1h-9.9h-7.9c-1.8,0-3.6,1.1-4.6,2.7
			c-0.3,0.5-0.6,1.1-0.7,1.7L26.1,9L25,14.3l-1.1,5.3l-1.1,5.3l-1.1,5.3l-1.1,5.3l-1.1,5.3L18.2,46l-1.1,5.3l-1.1,5.3l-1.1,5.3
			l-1.1,5.3l-1.1,5.3l-1.1,5.3l-1.1,5.3l-1.1,5.3l-1.1,5.3l-1.1,5.3l-1.1,5.3L0.1,131c-0.5,2.4,1.1,4.3,3.5,4.3h17.8
			c1.2,0,2.3-0.4,3.3-1.2c1-0.8,1.8-1.9,2.1-3.2l4.5-21.1l0,0l1.1-5.3l0,0l1.1-5.3l0,0l1.1-5.3l0,0l1.1-5.3l0,0l1.1-5.3l0,0l1.1-5.2
			l0,0l1.1-5.2l0,0l1.1-5.2l0,0L41.4,62.4L41.4,62.4z"/>
		<path class="st0" d="M140.1,57.4c-0.2-2.1-0.7-4.1-1.4-5.8c0,0,0,0,0-0.1c-0.4-0.9-0.8-1.7-1.3-2.5c-0.2-0.4-0.5-0.7-0.8-1.1
			c-0.8-1.1-1.7-2.1-2.7-3c-2.1-2-4.4-3.6-7.2-4.8c-4-1.8-8.4-3-13.2-3.7c-4.8-0.6-9.4-0.9-13.6-0.9c-2,0-4,0.1-5.9,0.2
			c-3.4,0.2-6.8,0.7-10.1,1.4c-1.3,0.3-2.6,0.6-3.8,1c-1.4,0.4-2.7,0.9-4,1.4c-1.6,0.6-3.1,1.3-4.6,2.1c0,0,0,0-0.1,0
			c-0.5,0.3-1,0.6-1.5,0.9c-1.6,1-3.1,2-4.5,3.3c0,0,0,0,0,0c-1.6,1.4-3,2.9-4.4,4.5c0,0,0,0,0,0c-0.5,0.7-1.1,1.3-1.6,2
			c-0.6,0.8-1.1,1.7-1.6,2.7c0,0,0,0,0,0c-0.8,1.7-1.5,3.5-2,5c0,0,0,0,0,0c-0.6,1.8-0.9,3.2-0.9,3.2c-0.2,0.8-0.1,1.5,0.1,2.1
			c0,0,0,0,0,0c0.5,1.3,1.7,2.1,3.3,2.1h6h0.2h5.2H78c0.3-0.8,0.6-1.5,0.9-2.2c0.9-1.9,1.7-3.6,2.8-4.9c1.1-1.5,2.4-2.7,4.1-3.7
			c0.3-0.2,0.7-0.4,1.1-0.6c3.5-1.9,7.3-2.9,11.6-2.9c0.1,0,0.1,0,0.2,0c1.6,0,3.4,0.2,5.4,0.5c2,0.3,3.9,0.9,5.5,1.8
			c0.3,0.2,0.6,0.3,0.9,0.5c1.3,0.8,2.4,1.9,3.4,3.2c0.7,1,1.2,2.1,1.5,3.5c0.1,0.8,0.2,1.6,0.2,2.4c0,1.1-0.1,2.2-0.3,3.1
			c-0.3,1.6-1,3-2,4c-0.3,0.3-0.6,0.6-1,0.9c-1.4,1.1-3.4,2-5.9,2.7c-1,0.3-2.1,0.5-3.4,0.7c-2.4,0.4-5.1,0.8-8.2,1.1
			c-2.4,0.2-5.1,0.4-8,0.7c-2.6,0.3-5.3,0.6-8.3,0.9c-2.4,0.3-4.7,0.7-6.9,1.1c-1.8,0.4-3.6,0.8-5.2,1.3c-1.7,0.5-3.4,1.1-5,1.8
			c0,0,0,0-0.1,0c-2.6,1.1-5,2.4-7.1,3.9c0,0,0,0,0,0c-1.1,0.7-2.1,1.5-3.1,2.3c-0.7,0.6-1.4,1.3-2.1,2c0,0,0,0,0,0
			c-1.4,1.5-2.6,3-3.6,4.7c0,0,0,0,0,0c-1,1.6-1.7,3.2-2.4,5c0,0,0,0,0,0c-0.6,1.7-1,3.4-1.3,5.2c0,0,0,0,0,0
			c-0.3,1.7-0.4,3.5-0.4,5.4c0,0,0,0,0,0c0,0.1,0,0.1,0,0.2c0,3.4,0.6,6.6,2,9.7c1.3,3.1,3.3,5.8,5.9,8.2c1.5,1.4,3.3,2.6,5.2,3.6
			c1.4,0.8,3,1.4,4.6,2c4,1.4,8.5,2.1,13.8,2.1c5.5,0,10.9-1,16.3-3c5.3-2,10.1-6.3,10.1-6.3c1.8-1.6,3.3-0.9,3.3,1.5v0.7
			c0,2.4,2,4.4,4.4,4.4h22.3c-0.3-0.9-0.5-1.7-0.7-2.6c0-0.1-0.1-0.3-0.1-0.4c0,0,0,0,0,0c-0.1-0.9-0.2-1.7-0.2-2.6
			c0-0.9,0-1.9,0.1-3c0,0,0,0,0,0c0-1.1,0.1-2.4,0.2-3.7l0.1-1.8l0,0l0.1-0.8c0.3-1.2,0.6-2.8,1-4.5c0,0,0,0,0,0
			c0.3-1.3,0.6-2.7,0.8-3.7l0.3-1.5l0,0l1.2-5.2l0,0l1.2-5.2l0,0l1.2-5.2l0,0l1.2-5.2l0,0l1.2-5.2l0,0l1.2-5.2l0,0l0.3-1.6
			c0.2-1.2,0.5-2.5,0.7-3.7c0,0,0,0,0,0c0.3-1.7,0.6-3.4,0.8-5.1c0-0.1,0-0.1,0-0.2c0,0,0,0,0-0.1c0.2-2,0.4-3.8,0.5-5.4
			c0,0,0,0,0-0.1c0-0.6,0-1.3,0-1.9C140.3,59.8,140.2,58.6,140.1,57.4C140.1,57.4,140.1,57.4,140.1,57.4 M109,93l-0.4,1.5l-1,3.6
			c-0.1,0.5-0.3,1-0.5,1.6c-0.5,1.7-1.1,3.4-1.8,5.1c-0.2,0.4-0.3,0.8-0.5,1.2c-0.6,1.3-1.2,2.6-2,3.7c-0.8,1.2-1.6,2.3-2.6,3.3
			c-0.4,0.5-0.9,0.9-1.4,1.3c-1.7,1.5-3.6,2.7-5.8,3.8c-0.2,0.1-0.5,0.2-0.7,0.3c-2.7,1.1-5.9,1.7-9.8,1.7c-3.9,0-7.3-0.9-10.2-2.7
			c-1.8-1.1-3.1-2.6-3.8-4.4c-0.4-1.1-0.6-2.4-0.6-3.8c0-0.7,0-1.3,0.1-1.9c0.2-2,0.7-3.8,1.4-5.2c0.1-0.1,0.1-0.2,0.2-0.3
			c1-1.8,2.4-3.2,3.9-4.3c0.2-0.1,0.3-0.2,0.5-0.3c1.8-1.1,3.9-2,6.3-2.5c0.8-0.2,1.7-0.4,2.5-0.5c1.6-0.3,3.2-0.5,4.8-0.7
			c3.9-0.3,7.8-0.6,11.6-1c0,0,0.1,0,0.1,0c3.8-0.4,6.8-1.8,6.8-1.8C108.4,89.6,109.6,90.7,109,93"/>
		<path class="st0" d="M166.8,28.2h8.9h5.5h0.6h3c2.2,0,4.3-1.5,5.1-3.6c0,0,0-0.1,0-0.1c0.1-0.2,0.2-0.5,0.2-0.7l1.1-4.4l0-0.1
			l1.3-5.2l0-0.1l1.3-5.2l0,0l0-0.1l0,0l0-0.1c0.5-2.4-1.1-4.3-3.5-4.3h-9.2H174h0h-1.5c-2.3,0-4.6,1.8-5.3,4c0,0.1-0.1,0.2-0.1,0.4
			l-1.2,4.9l-1.3,5.2v0l-1.3,5c0,0.1,0,0.1,0,0.2C162.9,26.3,164.5,28.2,166.8,28.2"/>
		<path class="st0" d="M254.9,1.1c-1.9-0.5-3.8-0.7-5.9-0.9C247.1,0,245.1,0,243.2,0c-1,0-2,0-3,0c-6.3,0-12.7,0.8-17,2.4
			c-4.3,1.6-7.8,4.1-10.4,7.3c-0.7,0.9-1.4,1.9-2,2.9c0,0,0,0,0,0c-1,1.5-1.8,3.2-2.6,4.9c-0.6,1.3-1.1,2.7-1.6,4.2
			c-0.1,0.3-0.2,0.6-0.3,0.9c-0.5,1.6-1,3.5-1.4,5.2c-0.6,2.3-1.1,4.3-1.3,5.2c-0.1,0.4-0.1,0.6-0.1,0.6c-0.1,0.6-0.5,2.3-1,4.6
			c-0.2,1-0.5,2-0.7,3.2c-0.1,0.7-0.3,1.4-0.5,2.1c-0.4,1.7-0.8,3.5-1.2,5.3c-0.4,1.9-0.8,3.7-1.2,5.3v0c-0.5,2.3-0.9,4.2-1.1,5.3v0
			c-0.1,0.4-0.1,0.6-0.2,0.8l-0.9,4.5v0l-1.1,5.3l-1.1,5.3l-1.1,5.3v0l-1.1,5.3v0l-1.1,5.3v0l-1.1,5.3v0l-1.1,5.3v0l-1.1,5.3v0
			l-1.1,5.3l0,0l-1.1,5.3l0,0l-1.1,5.3l0,0l-1.1,5.3v0l-0.6,2.7c-0.2,1.1,0,2,0.5,2.8c0,0,0,0,0,0c0.6,0.9,1.7,1.6,3.1,1.6h0.3h3.4
			H204c1.3,0,2.6-0.6,3.6-1.5c0.9-0.8,1.5-1.8,1.8-2.9l0.5-2.2l1.1-5.3l1.1-5.3l1.1-5.3l1.1-5.3l1.1-5.3l1.1-5.3l1.1-5.3l1.1-5.3
			l1.1-5.3L221,76l1.1-5.3l1.1-5.3l1.1-5.1c0-0.1,0-0.2,0.1-0.2c0.6-2.3,2.9-4.1,5.3-4.1h0.9h9.4c1.7,0,3.4-1,4.4-2.4
			c0.4-0.6,0.8-1.3,0.9-2l0.7-3.2l1.1-5.3l0.1-0.7c0.5-2.4-1.1-4.3-3.5-4.3h-14.6c0.3-1.6,0.6-3.1,1-4.4c0.4-1.8,0.9-3.5,1.6-5.2
			c0.4-1.2,0.9-2.4,1.5-3.7c0.2-0.5,0.5-0.9,0.8-1.3c0.8-1.1,2-2.2,3.3-2.8c1.5-0.6,3.4-0.7,5.7-0.7h0.1c0.6,0,1.2,0,1.8,0h5.8
			c1.5,0.1,3.2-1.4,3.7-3.8l2.7-12.5C257.2,3.9,257.2,1.7,254.9,1.1"/>
		<path class="st0" d="M183.2,56.2l1.1-5.3v0l1.1-5.3l0.7-3.1c0.2-0.8,0.1-1.6-0.2-2.3c-0.5-1.2-1.8-2-3.3-2H177h-3.6h-8.9
			c-1.5,0-2.9,0.7-3.9,1.8c-0.1,0.1-0.1,0.1-0.2,0.2c-0.6,0.7-1,1.5-1.2,2.4l-0.5,2.5l0,0.1l-1.1,5.2l0,0.1l-1.1,5.2l0,0.1l-1.1,5.2
			l0,0.1l-1.1,5.2l0,0.1l-1.1,5.2l0,0.1l-1.1,5.2l0,0l-1.1,5.2l0,0l-1.1,5.2l0,0l-1.1,5.2l0,0l-1.1,5.2l0,0l-1.1,5.2l0,0l-1.1,5.2
			l0,0l-1.1,5.3l0,0l-1.1,5.3l0,0l-1.1,5.3l0,0l-1.1,5.3l0,0l-0.3,1.4c-0.3,1.3,0.1,2.5,0.9,3.3c0.6,0.7,1.6,1,2.7,1h18
			c0.7,0,1.4-0.2,2-0.4c1.3-0.6,2.5-1.7,3.1-3.1c0.1-0.3,0.2-0.6,0.3-0.8l0.2-0.8v0l1.1-5.3v0l1.1-5.3v0l1.1-5.3v0l1.1-5.3v0
			l1.1-5.3v0l1.1-5.3v0l1.1-5.3v0l1.1-5.3v0l1.1-5.3v0l1.1-5.3v0l1.1-5.3v0l1.1-5.3l0,0l1.1-5.3l0,0L183.2,56.2L183.2,56.2z"/>
		<path class="st0" d="M313.9,67.7c-8.8,0-16,3.2-21.9,9.7c-5.7,6.3-8.5,14.4-8.5,24.1c0,9.7,2.8,17.7,8.5,24.2
			c5.8,6.3,13.1,9.6,21.9,9.6c13.4,0,23.9-7,27.7-18.9h-6.1c-3.1,8.7-11.4,13.6-21.6,13.6c-7.1,0-12.9-2.7-17.7-8.1
			c-4.7-5.4-7-12.2-7-20.3s2.3-15,7-20.3c4.8-5.4,10.6-8.1,17.7-8.1c10.2,0,18.6,5.2,21.7,13.6h5.9
			C337.8,74.7,327.3,67.7,313.9,67.7 M383.9,67.7c-9.4,0-17.2,3.2-23,9.6c-5.8,6.3-8.8,14.5-8.8,24.2c0,9.7,3,17.8,8.8,24.2
			c5.8,6.3,13.6,9.6,23,9.6c9.4,0,16.9-3.2,22.8-9.6c5.8-6.3,8.8-14.5,8.8-24.2c0-9.7-3-17.8-8.8-24.2
			C400.9,70.9,393.4,67.7,383.9,67.7 M383.9,73c7.8,0,14,2.7,18.8,8c4.8,5.3,7.1,12.2,7.1,20.4c0,8.1-2.3,15-7.1,20.4
			c-4.8,5.3-11,8-18.8,8c-7.9,0-14.2-2.7-19-8c-4.8-5.4-7.1-12.3-7.1-20.4c0-8.3,2.3-15.1,7.1-20.4C369.7,75.7,376.1,73,383.9,73
			 M457.8,68.4c-10.5,0-17.3,5.8-19.8,12.7v-12h-5.6v64.7h5.6V98.1c0-7.9,2.2-14.1,6.5-18.6c3.5-3.8,8-5.7,13.3-5.7V68.4z
			 M493.7,67.7c-8.8,0-15.9,3.2-21.3,9.6c-5.4,6.3-8.1,14.5-8.1,24.2c0,10.1,2.8,18.2,8.4,24.4c5.7,6.2,12.9,9.3,21.7,9.3
			c14.1,0,24.2-6.9,27.9-18.9h-6.1c-3.2,8.7-11,13.6-21.9,13.6c-6.9,0-12.5-2.5-17.2-7.2c-4.5-4.8-7-11.2-7.2-19.1h53.3v-3.9
			C523.2,79.3,511.7,67.7,493.7,67.7 M493.7,73c14.6,0,23.8,9.3,23.8,25.3h-47.6c0.4-7.5,2.8-13.6,7.1-18.2
			C481.4,75.3,487,73,493.7,73"/>
	</g>
</g>
</svg>
