<?xml version="1.0" encoding="utf-8"?>
<!-- Generator: Adobe Illustrator 16.0.0, SVG Export Plug-In . SVG Version: 6.00 Build 0)  -->
<!DOCTYPE svg PUBLIC "-//W3C//DTD SVG 1.1//EN" "http://www.w3.org/Graphics/SVG/1.1/DTD/svg11.dtd">
<svg version="1.1" xmlns="http://www.w3.org/2000/svg" xmlns:xlink="http://www.w3.org/1999/xlink" x="0px" y="0px"
	 width="98.034px" height="31.835px" viewBox="0 0 98.034 31.835" enable-background="new 0 0 98.034 31.835" xml:space="preserve">
<g>
	<g>
		<g>
			<g>
				<path fill="#231916" d="M34.953,17.393V0.448h8.095c3.811,0,6.847,0.894,6.847,4.259c0,1.742-1.129,3.014-2.21,3.695
					c1.833,0.471,2.823,2.048,2.823,3.883c0,3.788-2.895,5.107-7.295,5.107H34.953z M40.508,4.401v2.825h2.305
					c1.107,0,1.907-0.495,1.907-1.484c0-1.318-1.083-1.341-2.26-1.341H40.508z M40.508,10.31v3.128h2.421
					c1.366,0,2.401-0.281,2.401-1.553c0-1.482-1.293-1.575-3.059-1.575H40.508z"/>
				<path fill="#231916" d="M50.061,17.393l6.07-16.944h5.648l6.071,16.944h-5.53l-0.658-2.236H56.13l-0.634,2.236H50.061z
					 M58.908,5.555l-1.719,6.072h3.507L58.908,5.555z"/>
				<path fill="#231916" d="M76.817,5.366c-0.095-0.587-0.401-0.942-0.801-1.152c-0.401-0.212-0.895-0.306-1.437-0.306
					c-1.223,0-1.765,0.354-1.765,0.965c0,2.542,9.745,0.964,9.745,7.128c0,3.933-3.272,5.837-7.932,5.837
					c-4.471,0-7.388-2.611-7.506-5.671h5.317c0.118,0.611,0.448,1.058,0.917,1.341c0.448,0.283,1.035,0.425,1.578,0.425
					c1.387,0,2.305-0.447,2.305-1.248c0-2.565-9.742-0.8-9.742-7.271C67.498,1.813,70.604,0,74.84,0
					c4.706,0,6.848,2.401,7.248,5.366H76.817z"/>
				<path fill="#231916" d="M83.312,17.393V0.448h13.176v3.953h-7.624v3.083h6.071v3.953h-6.071v5.955H83.312z"/>
			</g>
			<path fill="#888888" d="M0,0.18v17.479h17.481V0.18H0z M11.654,11.833H5.827V6.006h5.827V11.833z"/>
			<rect x="23.287" y="6.006" fill="#888888" width="5.826" height="5.827"/>
		</g>
		<g>
			<path fill="#231916" d="M5.665,22.992v1.204H3.629v5.602H2.197v-5.602H0.152v-1.204H5.665z"/>
			<path fill="#231916" d="M9.533,24.794c0.252,0.108,0.46,0.272,0.623,0.493c0.138,0.188,0.222,0.383,0.252,0.582
				c0.031,0.197,0.046,0.521,0.046,0.972v2.957H9.111v-3.065c0-0.271-0.046-0.489-0.136-0.656c-0.121-0.232-0.346-0.351-0.679-0.351
				c-0.345,0-0.609,0.116-0.786,0.35c-0.179,0.231-0.269,0.563-0.269,0.994v2.729H5.925v-6.782h1.316v2.4
				c0.19-0.292,0.41-0.495,0.659-0.612c0.25-0.114,0.513-0.172,0.788-0.172C8.999,24.632,9.281,24.687,9.533,24.794z"/>
			<path fill="#231916" d="M14.499,24.867c0.351,0.158,0.64,0.405,0.87,0.745c0.205,0.299,0.339,0.646,0.401,1.039
				c0.034,0.231,0.049,0.564,0.042,0.999h-3.664c0.02,0.505,0.196,0.858,0.526,1.063c0.201,0.124,0.442,0.189,0.725,0.189
				c0.3,0,0.544-0.077,0.731-0.233c0.103-0.083,0.192-0.196,0.271-0.345h1.344c-0.036,0.299-0.199,0.602-0.488,0.909
				c-0.452,0.489-1.083,0.734-1.894,0.734c-0.669,0-1.26-0.206-1.773-0.618c-0.51-0.414-0.767-1.086-0.767-2.016
				c0-0.871,0.231-1.541,0.693-2.005c0.461-0.466,1.062-0.698,1.8-0.698C13.752,24.632,14.148,24.709,14.499,24.867z M12.529,26.005
				c-0.185,0.19-0.303,0.45-0.351,0.778h2.267c-0.022-0.349-0.14-0.614-0.349-0.795c-0.21-0.182-0.47-0.272-0.781-0.272
				C12.978,25.716,12.716,25.814,12.529,26.005z"/>
			<path fill="#231916" d="M18.916,23.703c0.548-0.559,1.244-0.839,2.091-0.839c1.133,0,1.961,0.374,2.484,1.126
				c0.289,0.421,0.444,0.845,0.467,1.269h-1.422c-0.091-0.325-0.208-0.571-0.348-0.738c-0.255-0.296-0.63-0.443-1.128-0.443
				c-0.505,0-0.906,0.209-1.198,0.626c-0.292,0.417-0.439,1.007-0.439,1.771c0,0.764,0.154,1.334,0.463,1.713
				c0.309,0.382,0.701,0.571,1.177,0.571c0.488,0,0.858-0.163,1.114-0.49c0.143-0.175,0.261-0.438,0.354-0.788h1.413
				c-0.122,0.742-0.434,1.346-0.933,1.809c-0.502,0.465-1.143,0.696-1.926,0.696c-0.969,0-1.729-0.312-2.284-0.94
				c-0.554-0.632-0.832-1.496-0.832-2.594C17.969,25.263,18.286,24.347,18.916,23.703z"/>
			<path fill="#231916" d="M28.13,24.794c0.252,0.108,0.461,0.272,0.623,0.493c0.137,0.188,0.221,0.383,0.252,0.582
				c0.031,0.197,0.046,0.521,0.046,0.972v2.957h-1.342v-3.065c0-0.271-0.047-0.489-0.137-0.656
				c-0.121-0.232-0.345-0.351-0.679-0.351c-0.345,0-0.607,0.116-0.785,0.35c-0.18,0.231-0.27,0.563-0.27,0.994v2.729h-1.314v-6.782
				h1.314v2.4c0.191-0.292,0.411-0.495,0.661-0.612c0.25-0.114,0.512-0.172,0.787-0.172C27.596,24.632,27.878,24.687,28.13,24.794z"
				/>
			<path fill="#231916" d="M33.096,24.867c0.351,0.158,0.641,0.405,0.87,0.745c0.206,0.299,0.339,0.646,0.401,1.039
				c0.035,0.231,0.049,0.564,0.042,0.999h-3.664c0.02,0.505,0.196,0.858,0.526,1.063c0.201,0.124,0.443,0.189,0.725,0.189
				c0.3,0,0.544-0.077,0.732-0.233c0.101-0.083,0.191-0.196,0.27-0.345h1.344c-0.037,0.299-0.199,0.602-0.488,0.909
				c-0.452,0.489-1.083,0.734-1.894,0.734c-0.669,0-1.26-0.206-1.773-0.618c-0.511-0.414-0.766-1.086-0.766-2.016
				c0-0.871,0.23-1.541,0.693-2.005c0.461-0.466,1.062-0.698,1.798-0.698C32.35,24.632,32.746,24.709,33.096,24.867z M31.126,26.005
				c-0.185,0.19-0.301,0.45-0.349,0.778h2.267c-0.023-0.349-0.142-0.614-0.351-0.795c-0.21-0.182-0.47-0.272-0.781-0.272
				C31.576,25.716,31.313,25.814,31.126,26.005z"/>
			<path fill="#231916" d="M40.881,24.784c0.216,0.086,0.412,0.237,0.586,0.453c0.142,0.176,0.237,0.391,0.286,0.646
				c0.031,0.168,0.046,0.418,0.046,0.743l-0.01,3.172h-1.347v-3.204c0-0.192-0.031-0.348-0.092-0.471
				c-0.118-0.234-0.333-0.353-0.647-0.353c-0.363,0-0.614,0.153-0.753,0.453c-0.07,0.161-0.105,0.353-0.105,0.578v2.996H37.52
				v-2.996c0-0.299-0.031-0.515-0.092-0.651c-0.111-0.242-0.328-0.366-0.651-0.366c-0.376,0-0.628,0.124-0.757,0.366
				c-0.07,0.14-0.107,0.344-0.107,0.619v3.028H34.58v-5.023h1.278v0.734c0.164-0.262,0.317-0.446,0.461-0.559
				c0.255-0.196,0.586-0.296,0.993-0.296c0.384,0,0.696,0.085,0.933,0.254c0.19,0.158,0.335,0.358,0.433,0.605
				c0.173-0.296,0.387-0.513,0.643-0.65c0.27-0.141,0.572-0.209,0.905-0.209C40.448,24.654,40.665,24.699,40.881,24.784z"/>
			<path fill="#231916" d="M43.889,24.166h-1.333V22.95h1.333V24.166z M42.556,24.767h1.333v5.031h-1.333V24.767z"/>
			<path fill="#231916" d="M47.701,26.57c-0.025-0.187-0.088-0.357-0.191-0.508c-0.147-0.202-0.376-0.303-0.688-0.303
				c-0.445,0-0.748,0.219-0.912,0.659c-0.087,0.232-0.129,0.543-0.129,0.93c0,0.367,0.042,0.663,0.129,0.888
				c0.158,0.418,0.453,0.629,0.888,0.629c0.309,0,0.527-0.083,0.659-0.25c0.129-0.165,0.207-0.38,0.234-0.646h1.344
				c-0.031,0.4-0.175,0.777-0.434,1.135c-0.414,0.577-1.027,0.864-1.834,0.864c-0.811,0-1.408-0.241-1.79-0.721
				c-0.381-0.479-0.572-1.103-0.572-1.868c0-0.861,0.21-1.535,0.633-2.015c0.422-0.481,1.005-0.72,1.746-0.72
				c0.633,0,1.149,0.142,1.552,0.424c0.401,0.283,0.64,0.785,0.714,1.501H47.701z"/>
			<path fill="#231916" d="M51.47,26.735c0.244-0.029,0.419-0.068,0.525-0.113c0.189-0.08,0.283-0.206,0.283-0.375
				c0-0.206-0.072-0.349-0.217-0.426c-0.145-0.08-0.358-0.119-0.638-0.119c-0.316,0-0.539,0.078-0.669,0.232
				c-0.094,0.113-0.156,0.268-0.188,0.462h-1.27c0.028-0.44,0.152-0.803,0.371-1.086c0.351-0.443,0.95-0.665,1.8-0.665
				c0.554,0,1.045,0.109,1.476,0.328c0.429,0.218,0.644,0.63,0.644,1.237v2.308c0,0.16,0.003,0.354,0.009,0.582
				c0.01,0.173,0.036,0.289,0.078,0.353c0.042,0.06,0.108,0.112,0.195,0.151v0.193h-1.432c-0.04-0.101-0.067-0.196-0.083-0.286
				c-0.015-0.09-0.028-0.19-0.037-0.306c-0.182,0.197-0.394,0.364-0.631,0.503c-0.286,0.165-0.607,0.246-0.967,0.246
				c-0.458,0-0.837-0.131-1.135-0.39c-0.3-0.26-0.449-0.63-0.449-1.105c0-0.619,0.24-1.067,0.721-1.344
				c0.264-0.152,0.651-0.26,1.163-0.324L51.47,26.735z M52.274,27.35c-0.084,0.054-0.169,0.096-0.255,0.13
				c-0.085,0.03-0.203,0.06-0.353,0.088l-0.299,0.055c-0.281,0.051-0.483,0.109-0.606,0.181c-0.207,0.121-0.31,0.308-0.31,0.559
				c0,0.225,0.064,0.388,0.189,0.488c0.126,0.1,0.28,0.15,0.463,0.15c0.286,0,0.551-0.083,0.794-0.251
				c0.243-0.166,0.367-0.469,0.377-0.908V27.35z"/>
			<path fill="#231916" d="M55.605,29.798H54.29v-6.806h1.316V29.798z"/>
			<path fill="#231916" d="M59.326,23.703c0.548-0.559,1.247-0.839,2.093-0.839c1.132,0,1.961,0.374,2.484,1.126
				c0.29,0.421,0.444,0.845,0.465,1.269h-1.421c-0.091-0.325-0.206-0.571-0.349-0.738c-0.252-0.296-0.628-0.443-1.125-0.443
				c-0.508,0-0.906,0.209-1.199,0.626c-0.293,0.417-0.439,1.007-0.439,1.771c0,0.764,0.155,1.334,0.464,1.713
				c0.309,0.382,0.7,0.571,1.176,0.571c0.488,0,0.858-0.163,1.115-0.49c0.142-0.175,0.259-0.438,0.354-0.788h1.413
				c-0.122,0.742-0.434,1.346-0.936,1.809c-0.499,0.465-1.142,0.696-1.924,0.696c-0.968,0-1.729-0.312-2.282-0.94
				c-0.554-0.632-0.832-1.496-0.832-2.594C58.381,25.263,58.696,24.347,59.326,23.703z"/>
			<path fill="#231916" d="M69.122,29.184c-0.425,0.521-1.07,0.785-1.934,0.785c-0.866,0-1.511-0.264-1.935-0.785
				c-0.425-0.526-0.637-1.157-0.637-1.896c0-0.727,0.212-1.354,0.637-1.887c0.424-0.531,1.069-0.797,1.935-0.797
				c0.864,0,1.509,0.266,1.934,0.797c0.427,0.533,0.637,1.16,0.637,1.887C69.759,28.026,69.549,28.657,69.122,29.184z
				 M68.069,28.454c0.208-0.272,0.312-0.661,0.312-1.166c0-0.503-0.104-0.892-0.312-1.162c-0.207-0.272-0.501-0.41-0.887-0.41
				c-0.383,0-0.679,0.138-0.888,0.41c-0.208,0.271-0.312,0.659-0.312,1.162c0,0.505,0.104,0.894,0.312,1.166
				c0.209,0.274,0.505,0.411,0.888,0.411C67.568,28.865,67.862,28.729,68.069,28.454z"/>
			<path fill="#231916" d="M76.507,24.784c0.215,0.086,0.41,0.237,0.585,0.453c0.143,0.176,0.237,0.391,0.288,0.646
				c0.03,0.168,0.045,0.418,0.045,0.743l-0.007,3.172h-1.35v-3.204c0-0.192-0.031-0.348-0.092-0.471
				c-0.117-0.234-0.331-0.353-0.647-0.353c-0.362,0-0.614,0.153-0.752,0.453c-0.07,0.161-0.106,0.353-0.106,0.578v2.996h-1.324
				v-2.996c0-0.299-0.031-0.515-0.092-0.651c-0.112-0.242-0.329-0.366-0.652-0.366c-0.375,0-0.627,0.124-0.756,0.366
				c-0.07,0.14-0.105,0.344-0.105,0.619v3.028h-1.337v-5.023h1.281v0.734c0.163-0.262,0.315-0.446,0.461-0.559
				c0.255-0.196,0.586-0.296,0.993-0.296c0.384,0,0.696,0.085,0.933,0.254c0.191,0.158,0.334,0.358,0.434,0.605
				c0.172-0.296,0.386-0.513,0.641-0.65c0.272-0.141,0.572-0.209,0.905-0.209C76.074,24.654,76.292,24.699,76.507,24.784z"/>
			<path fill="#231916" d="M82.395,25.307c0.411,0.433,0.616,1.068,0.616,1.91c0,0.887-0.202,1.562-0.602,2.027
				c-0.402,0.464-0.919,0.696-1.55,0.696c-0.403,0-0.738-0.101-1.004-0.3c-0.145-0.11-0.288-0.272-0.428-0.483v2.621h-1.302v-7.012
				h1.261v0.742c0.143-0.218,0.293-0.391,0.456-0.519c0.293-0.223,0.644-0.336,1.049-0.336
				C81.483,24.654,81.984,24.871,82.395,25.307z M81.385,26.252c-0.178-0.298-0.468-0.447-0.87-0.447
				c-0.482,0-0.813,0.226-0.995,0.677c-0.092,0.24-0.139,0.546-0.139,0.916c0,0.584,0.157,0.996,0.471,1.231
				c0.185,0.14,0.407,0.209,0.661,0.209c0.372,0,0.654-0.143,0.847-0.426c0.195-0.282,0.292-0.659,0.292-1.131
				C81.653,26.895,81.563,26.549,81.385,26.252z"/>
			<path fill="#231916" d="M85.457,26.735c0.247-0.029,0.422-0.068,0.527-0.113c0.189-0.08,0.283-0.206,0.283-0.375
				c0-0.206-0.073-0.349-0.219-0.426c-0.143-0.08-0.356-0.119-0.637-0.119c-0.317,0-0.539,0.078-0.67,0.232
				c-0.094,0.113-0.154,0.268-0.187,0.462h-1.27c0.028-0.44,0.151-0.803,0.37-1.086c0.349-0.443,0.95-0.665,1.8-0.665
				c0.553,0,1.043,0.109,1.474,0.328c0.429,0.218,0.644,0.63,0.644,1.237v2.308c0,0.16,0.002,0.354,0.01,0.582
				c0.008,0.173,0.035,0.289,0.079,0.353c0.043,0.06,0.108,0.112,0.193,0.151v0.193h-1.431c-0.041-0.101-0.069-0.196-0.084-0.286
				c-0.016-0.09-0.027-0.19-0.035-0.306c-0.184,0.197-0.395,0.364-0.634,0.503c-0.283,0.165-0.606,0.246-0.963,0.246
				c-0.459,0-0.837-0.131-1.136-0.39c-0.299-0.26-0.448-0.63-0.448-1.105c0-0.619,0.239-1.067,0.72-1.344
				c0.264-0.152,0.652-0.26,1.163-0.324L85.457,26.735z M86.262,27.35c-0.083,0.054-0.168,0.096-0.255,0.13
				c-0.084,0.03-0.204,0.06-0.352,0.088l-0.3,0.055c-0.281,0.051-0.481,0.109-0.604,0.181c-0.208,0.121-0.31,0.308-0.31,0.559
				c0,0.225,0.063,0.388,0.189,0.488c0.126,0.1,0.28,0.15,0.461,0.15c0.289,0,0.553-0.083,0.794-0.251
				c0.243-0.166,0.369-0.469,0.377-0.908V27.35z"/>
			<path fill="#231916" d="M92.309,25.054c0.328,0.272,0.494,0.724,0.494,1.355v3.389h-1.348v-3.062
				c0-0.262-0.037-0.466-0.105-0.607c-0.129-0.259-0.375-0.389-0.732-0.389c-0.443,0-0.748,0.189-0.914,0.567
				c-0.087,0.2-0.129,0.456-0.129,0.767v2.725h-1.316v-5.023h1.275v0.734c0.168-0.257,0.327-0.443,0.478-0.559
				c0.27-0.203,0.61-0.305,1.024-0.305C91.556,24.646,91.978,24.781,92.309,25.054z"/>
			<path fill="#231916" d="M93.752,30.762l0.167,0.01c0.128,0.007,0.251,0.001,0.368-0.013c0.118-0.016,0.216-0.052,0.296-0.106
				c0.077-0.054,0.148-0.161,0.214-0.33c0.066-0.165,0.094-0.268,0.086-0.303l-1.849-5.253h1.465l1.097,3.711l1.04-3.711h1.398
				l-1.724,4.948c-0.333,0.954-0.599,1.546-0.791,1.774c-0.195,0.229-0.583,0.346-1.166,0.346c-0.117,0-0.212-0.002-0.282-0.003
				c-0.07-0.002-0.177-0.009-0.318-0.019V30.762z"/>
		</g>
	</g>
</g>
</svg>
