<?xml version="1.0" encoding="utf-8"?>
<!-- Generator: Adobe Illustrator 16.0.0, SVG Export Plug-In . SVG Version: 6.00 Build 0)  -->
<!DOCTYPE svg PUBLIC "-//W3C//DTD SVG 1.1//EN" "http://www.w3.org/Graphics/SVG/1.1/DTD/svg11.dtd">
<svg version="1.1" xmlns="http://www.w3.org/2000/svg" xmlns:xlink="http://www.w3.org/1999/xlink" x="0px" y="0px"
	 width="143.613px" height="17.715px" viewBox="0 0 143.613 17.715" enable-background="new 0 0 143.613 17.715"
	 xml:space="preserve">
<g>
	<path fill="#1D1D1B" d="M1.822,7.481V1.55h1.761c2.25,0,4.946-0.133,4.946,2.933c0,3.044-2.852,2.999-5.08,2.999H1.822L1.822,7.481
		z M1.822,9.032h2.34c3.832,0,4.794,1.523,4.794,3.605c0,1.903-0.738,3.179-4.964,3.179H1.822V9.032L1.822,9.032z M5.042,17.367
		c4.847,0,5.736-2.781,5.736-4.842c0-2.217-1.2-3.692-3.276-4.312c1.782-0.443,2.849-1.896,2.849-3.753
		C10.351,2.513,9.196,0,4.763,0H0v17.367H5.042L5.042,17.367z"/>
	<path fill="#1D1D1B" d="M34.691,11.917c0,4.659-3.05,5.798-5.505,5.798s-5.505-1.139-5.505-5.798V0.003h1.822v10.644
		c0,2.696,0.201,5.326,3.683,5.326s3.683-2.63,3.683-5.326V0.003h1.822V11.917L34.691,11.917z"/>
	<polygon fill="#1D1D1B" points="58.062,1.55 53.395,1.55 53.395,17.364 51.572,17.364 51.572,1.55 46.905,1.55 46.905,0 58.062,0 
		58.062,1.55 	"/>
	<polygon fill="#1D1D1B" points="80.48,1.55 75.814,1.55 75.814,17.364 73.99,17.364 73.99,1.55 69.324,1.55 69.324,0 80.48,0 
		80.48,1.55 	"/>
	<polygon fill="#1D1D1B" points="102.256,1.55 94.664,1.55 94.664,7.481 100.09,7.481 100.09,9.032 94.664,9.032 94.664,15.816 
		102.77,15.816 102.77,17.367 92.842,17.367 92.842,0 102.256,0 102.256,1.55 	"/>
	<path fill="#1D1D1B" d="M117.596,1.55h2.799c2.484,0,3.986,0.85,3.986,3.241c0,1.608-0.719,3.194-4.322,3.194h-2.463V1.55
		L117.596,1.55z M115.773,0v17.364h1.822V9.537h3.471l3.156,7.827h2.023l-3.322-8.116c1.967-0.642,3.277-2.312,3.277-4.391
		c0-2.011-0.91-4.857-6.322-4.857H115.773L115.773,0z"/>
	<polygon fill="#E20613" points="137.898,11.78 143.613,11.78 143.613,17.495 137.898,17.495 137.898,11.78 	"/>
</g>
</svg>
