<?xml version="1.0" encoding="utf-8"?>
<!-- Generator: Adobe Illustrator 16.0.0, SVG Export Plug-In . SVG Version: 6.00 Build 0)  -->
<!DOCTYPE svg PUBLIC "-//W3C//DTD SVG 1.1//EN" "http://www.w3.org/Graphics/SVG/1.1/DTD/svg11.dtd">
<svg version="1.1" xmlns="http://www.w3.org/2000/svg" xmlns:xlink="http://www.w3.org/1999/xlink" x="0px" y="0px"
	 width="169.438px" height="22.274px" viewBox="0 0 169.438 22.274" enable-background="new 0 0 169.438 22.274"
	 xml:space="preserve">
<g>
	<g>
		<path fill="#FFFFFF" d="M5.928,18.313c-1.551,0-2.986-0.587-4.041-1.656c-1.081-1.096-1.676-2.626-1.676-4.31
			c0-1.635,0.608-3.165,1.714-4.309c1.106-1.142,2.582-1.77,4.161-1.77c1.469,0,2.854,0.561,3.833,1.548L8.511,9.283
			C7.806,8.666,6.976,8.353,6.039,8.353c-1.917,0-3.363,1.688-3.363,3.928c0,1.096,0.331,2.093,0.931,2.809
			c0.619,0.735,1.499,1.142,2.479,1.142c1.06,0,1.925-0.332,2.635-1.015l1.338,1.373C8.979,17.749,7.627,18.313,5.928,18.313"/>
		<path fill="#FFFFFF" d="M17.451,18.313c-3.469,0-5.988-2.508-5.988-5.967c0-3.407,2.671-6.077,6.079-6.077
			c3.47,0,5.988,2.509,5.988,5.965C23.53,15.644,20.86,18.313,17.451,18.313 M17.497,8.307c-2.093,0-3.612,1.671-3.612,3.973
			c0,2.354,1.484,3.996,3.612,3.996c2.093,0,3.612-1.67,3.612-3.972c0-1.106-0.347-2.112-0.977-2.835
			C19.471,8.709,18.56,8.307,17.497,8.307"/>
		<path fill="#FFFFFF" d="M39.549,18.089h-2.237l-0.523-6.254c-0.112-1.286-0.134-2.588-0.134-2.602
			c-0.003-0.113-0.097-0.205-0.211-0.205h-0.045c-0.099,0-0.185,0.07-0.205,0.167c-0.002,0.013-0.272,1.31-0.625,2.436l-1.983,6.458
			h-2.058l-1.982-6.412c-0.354-1.172-0.646-2.472-0.649-2.485c-0.021-0.095-0.105-0.163-0.204-0.163h-0.044
			c-0.116,0-0.208,0.092-0.211,0.205c0,0.014-0.022,1.314-0.134,2.555l-0.524,6.301h-2.079L26.83,6.472h3.217l1.802,5.802
			c0.311,0.978,0.625,2.209,0.629,2.223c0.024,0.092,0.107,0.157,0.203,0.157s0.178-0.065,0.202-0.157
			c0.003-0.014,0.317-1.247,0.605-2.201l1.781-5.823h3.148L39.549,18.089z"/>
		<path fill="#FFFFFF" d="M56.339,18.089h-2.238l-0.523-6.254c-0.111-1.286-0.136-2.588-0.136-2.602
			c-0.001-0.113-0.095-0.205-0.209-0.205h-0.044c-0.1,0-0.185,0.07-0.205,0.167c-0.003,0.013-0.272,1.31-0.626,2.436l-1.983,6.458
			h-2.058l-1.983-6.412c-0.354-1.172-0.645-2.472-0.648-2.485c-0.021-0.095-0.105-0.163-0.203-0.163h-0.046
			c-0.114,0-0.207,0.092-0.209,0.205c-0.001,0.014-0.024,1.314-0.135,2.555l-0.526,6.301h-2.077l1.131-11.617h3.217l1.802,5.802
			c0.312,0.978,0.627,2.21,0.63,2.223c0.023,0.092,0.106,0.157,0.202,0.157s0.179-0.065,0.202-0.157
			c0.003-0.014,0.317-1.247,0.607-2.201l1.779-5.823h3.148L56.339,18.089z"/>
		<path fill="#FFFFFF" d="M67.06,18.089h-7.401V6.472h7.334v1.881h-4.93c-0.114,0-0.209,0.094-0.209,0.209v2.547
			c0,0.115,0.095,0.209,0.209,0.209h4.208v1.835h-4.208c-0.114,0-0.209,0.095-0.209,0.21v2.636c0,0.116,0.095,0.211,0.209,0.211
			h4.997V18.089z"/>
		<path fill="#FFFFFF" d="M79.123,18.089h-2.617l-2.508-4.269c-0.039-0.064-0.107-0.104-0.182-0.104h-0.833
			c-0.117,0-0.21,0.093-0.21,0.209v4.163h-2.195V6.472h3.396c1.722,0,2.942,0.316,3.729,0.967c0.716,0.592,1.063,1.468,1.063,2.678
			c0,1.467-0.816,2.582-2.298,3.141c-0.058,0.021-0.104,0.068-0.124,0.127c-0.021,0.06-0.014,0.124,0.019,0.178L79.123,18.089z
			 M72.983,8.307c-0.117,0-0.21,0.094-0.21,0.209v3.201c0,0.116,0.093,0.209,0.21,0.209h1.081c1.626,0,2.417-0.592,2.417-1.81
			c0-1.217-0.791-1.81-2.417-1.81H72.983z"/>
		<path fill="#FFFFFF" d="M89.214,18.089h-7.966v-1.713l4.947-7.701c0.04-0.064,0.045-0.146,0.008-0.213
			c-0.036-0.067-0.106-0.109-0.184-0.109H81.36V6.472h7.74v1.713l-4.947,7.701c-0.041,0.064-0.044,0.146-0.007,0.214
			c0.036,0.066,0.106,0.109,0.184,0.109h4.884V18.089z"/>
		<path fill="#FFFFFF" d="M96.734,18.089h-4.388V6.472h3.959c2.855,0,4.185,0.915,4.185,2.879c0,1.197-0.677,2.095-1.856,2.459
			c-0.087,0.027-0.146,0.108-0.146,0.201v0.021c0,0.104,0.077,0.194,0.181,0.208c1.494,0.192,2.388,1.158,2.388,2.587
			C101.056,17.234,98.728,18.089,96.734,18.089 M94.751,13.13c-0.116,0-0.21,0.095-0.21,0.21v2.704c0,0.116,0.094,0.21,0.21,0.21
			h1.939c1.408,0,2.124-0.541,2.124-1.607c0-0.692-0.368-1.517-2.124-1.517H94.751z M94.751,8.307c-0.116,0-0.21,0.094-0.21,0.209
			v2.615c0,0.115,0.094,0.209,0.21,0.209h1.622c1.089,0,1.765-0.599,1.765-1.562c0-0.935-0.683-1.472-1.876-1.472H94.751z"/>
		<path fill="#FFFFFF" d="M113.651,18.089h-2.371l-0.785-2.314c-0.028-0.085-0.108-0.143-0.198-0.143h-4.687
			c-0.091,0-0.17,0.058-0.198,0.143l-0.787,2.314h-2.189l4.133-11.616h2.95L113.651,18.089z M107.954,8.487
			c-0.095,0-0.178,0.063-0.202,0.153c-0.003,0.008-0.228,0.818-0.518,1.704l-1.057,3.177c-0.021,0.063-0.012,0.134,0.028,0.188
			s0.104,0.087,0.17,0.087h3.155c0.067,0,0.131-0.032,0.169-0.087c0.04-0.055,0.051-0.124,0.029-0.188l-1.059-3.2
			c-0.289-0.865-0.515-1.673-0.517-1.681C108.129,8.55,108.048,8.487,107.954,8.487"/>
		<path fill="#FFFFFF" d="M125.333,18.089h-2.001l-4.017-5.903c-0.618-0.93-1.18-1.894-1.188-1.903
			c-0.037-0.066-0.106-0.104-0.18-0.104c-0.021,0-0.04,0.003-0.062,0.009c-0.092,0.028-0.154,0.116-0.147,0.213
			c0.002,0.012,0.067,1.111,0.067,2.174v5.516h-2.016V6.472h2.183l3.835,5.633c0.62,0.93,1.182,1.894,1.188,1.903
			c0.036,0.066,0.107,0.104,0.18,0.104c0.021,0,0.041-0.003,0.062-0.009c0.092-0.027,0.154-0.116,0.146-0.214
			c0-0.01-0.065-1.11-0.065-2.173V6.472h2.014V18.089z"/>
		<path fill="#FFFFFF" d="M137.729,18.089h-2.716l-3.79-5.544c-0.039-0.058-0.106-0.09-0.172-0.09c-0.022,0-0.043,0.002-0.063,0.009
			c-0.087,0.026-0.146,0.108-0.146,0.199v5.426h-2.196V6.472h2.196v5.199c0,0.093,0.06,0.173,0.146,0.2
			c0.021,0.007,0.041,0.01,0.063,0.01c0.065,0,0.133-0.034,0.173-0.093l3.565-5.316h2.502l-3.753,5.259
			c-0.052,0.072-0.052,0.168-0.001,0.239L137.729,18.089z"/>
		<path fill="#FFFFFF" d="M163.363,22.17h-6.782h-6.783l-5.942-10.295c0-0.002-0.002-0.003-0.003-0.004l-0.009-0.019l0.179-0.313
			l6.602-11.433h0.069h0.007h11.838l6.782,11.746l-0.026,0.044c-0.001,0.002-0.002,0.003-0.002,0.004l-2.631,4.555l-3.238,5.61
			c0,0.002-0.003,0.003-0.003,0.004L163.363,22.17z M156.581,1.882c-0.03,0-0.06,0.013-0.08,0.037
			c-0.65,0.768-1.113,1.569-1.267,1.833l-2.964,5.135l-2.966,5.136c-0.151,0.265-0.614,1.066-0.954,2.014
			c-0.011,0.029-0.009,0.06,0.008,0.087c0.016,0.027,0.042,0.045,0.072,0.051c0.991,0.18,1.915,0.18,2.22,0.18h5.931h5.93
			c0.304,0,1.231,0,2.222-0.18c0.028-0.006,0.056-0.023,0.07-0.051c0.016-0.027,0.019-0.058,0.008-0.087
			c-0.339-0.947-0.802-1.749-0.954-2.014l-2.964-5.136l-2.966-5.135c-0.415-0.717-0.828-1.317-1.266-1.833
			C156.641,1.895,156.611,1.882,156.581,1.882"/>
		<path fill="#1D1D1B" d="M5.928,18.523c1.87,0,3.313-0.677,4.417-1.939l-1.623-1.667c-0.676,0.722-1.532,1.104-2.636,1.104
			c-1.916,0-3.2-1.601-3.2-3.741c0-2.073,1.307-3.719,3.153-3.719c0.971,0,1.803,0.36,2.48,1.015l1.69-1.758
			C9.217,6.736,7.753,6.06,6.086,6.06C2.704,6.06,0,8.854,0,12.348C0,15.998,2.66,18.523,5.928,18.523"/>
		<path fill="#1D1D1B" d="M17.497,16.066c-2.073,0-3.403-1.646-3.403-3.786c0-2.028,1.285-3.764,3.403-3.764
			c2.072,0,3.401,1.646,3.401,3.785C20.898,14.331,19.614,16.066,17.497,16.066 M17.452,18.523c3.583,0,6.287-2.817,6.287-6.289
			c0-3.516-2.547-6.175-6.197-6.175c-3.583,0-6.288,2.817-6.288,6.288C11.254,15.864,13.802,18.523,17.452,18.523"/>
		<path fill="#1D1D1B" d="M33.739,18.298l2.028-6.604c0.36-1.148,0.631-2.457,0.631-2.457h0.045c0,0,0.023,1.309,0.135,2.616
			l0.542,6.445h2.659L38.607,6.263h-3.493l-1.826,5.972c-0.292,0.97-0.607,2.209-0.607,2.209s-0.314-1.239-0.632-2.231l-1.848-5.949
			H26.64l-1.172,12.035h2.502l0.541-6.491c0.113-1.262,0.137-2.57,0.137-2.57h0.044c0,0,0.293,1.309,0.654,2.503l2.027,6.559H33.739
			z"/>
		<path fill="#1D1D1B" d="M50.528,18.298l2.028-6.604c0.361-1.148,0.632-2.457,0.632-2.457h0.044c0,0,0.024,1.309,0.136,2.616
			l0.541,6.445h2.66L55.397,6.263h-3.494l-1.824,5.972c-0.294,0.97-0.609,2.209-0.609,2.209s-0.316-1.239-0.632-2.231L46.99,6.263
			H43.43l-1.172,12.035h2.502l0.54-6.491c0.113-1.262,0.136-2.57,0.136-2.57h0.045c0,0,0.293,1.309,0.653,2.503l2.028,6.559H50.528z
			"/>
		<polygon fill="#1D1D1B" points="59.449,18.298 67.269,18.298 67.269,15.999 62.062,15.999 62.062,13.361 66.479,13.361 
			66.479,11.108 62.062,11.108 62.062,8.562 67.2,8.562 67.2,6.263 59.449,6.263 		"/>
		<path fill="#1D1D1B" d="M76.273,10.116c0,1.127-0.744,1.601-2.209,1.601h-1.081V8.516h1.081
			C75.461,8.516,76.273,8.945,76.273,10.116 M79.496,18.298l-2.952-4.847c1.553-0.585,2.433-1.78,2.433-3.335
			c0-2.434-1.374-3.854-5.002-3.854h-3.605v12.035h2.614v-4.372h0.833l2.569,4.372H79.496z"/>
		<polygon fill="#1D1D1B" points="81.039,18.298 89.422,18.298 89.422,15.999 84.33,15.999 89.31,8.246 89.31,6.263 81.152,6.263 
			81.152,8.562 86.02,8.562 81.039,16.314 		"/>
		<path fill="#1D1D1B" d="M94.751,13.34h1.939c1.17,0,1.914,0.359,1.914,1.307c0,0.925-0.585,1.397-1.914,1.397h-1.939V13.34z
			 M94.751,8.516h1.511c0.834,0,1.667,0.271,1.667,1.263c0,0.968-0.72,1.353-1.556,1.353h-1.622V8.516z M92.138,18.298h4.597
			c2.142,0,4.53-0.97,4.53-3.471c0-1.555-0.991-2.593-2.569-2.795v-0.021c1.239-0.386,2.007-1.331,2.007-2.66
			c0-2.615-2.299-3.088-4.396-3.088h-4.168V18.298z"/>
		<path fill="#1D1D1B" d="M104.776,18.298l0.834-2.457h4.687l0.833,2.457h2.817l-4.281-12.035h-3.245l-4.282,12.035H104.776z
			 M109.531,13.587h-3.155l1.06-3.178c0.293-0.901,0.52-1.713,0.52-1.713s0.223,0.812,0.518,1.691L109.531,13.587z"/>
		<path fill="#1D1D1B" d="M115.581,18.298h2.436v-5.724c0-1.083-0.068-2.187-0.068-2.187s0.564,0.969,1.194,1.914l4.079,5.996h2.322
			V6.263h-2.435v5.454c0,1.082,0.067,2.187,0.067,2.187s-0.563-0.97-1.195-1.917l-3.897-5.724h-2.503V18.298z"/>
		<polygon fill="#1D1D1B" points="128.436,6.263 128.436,18.298 131.05,18.298 131.05,12.664 134.903,18.298 138.127,18.298 
			133.709,11.853 137.697,6.263 134.678,6.263 131.05,11.671 131.05,6.263 		"/>
	</g>
	<g>
		<defs>
			<path id="SVGID_27_" d="M160.02,0c-0.466,0-1.853,0.002-3.462,1.957c0.02,0.024,0.04,0.051,0.062,0.075
				c0.414-0.483,0.932-0.978,1.489-1.338c0.516-0.334,1.112-0.553,1.606-0.607c0.36-0.041,1.551-0.025,2.908-0.025
				c0.007,0,0.011,0.003,0.015,0.008l-0.035-0.061C162.6,0.005,162.595,0,162.59,0H160.02z"/>
		</defs>
		<clipPath id="SVGID_2_">
			<use xlink:href="#SVGID_27_"  overflow="visible"/>
		</clipPath>
		
			<radialGradient id="SVGID_4_" cx="-360.208" cy="251.4531" r="0.7986" gradientTransform="matrix(24.9017 0 0 -24.9017 9134.6377 6281.3745)" gradientUnits="userSpaceOnUse">
			<stop  offset="0" style="stop-color:#FFDF43"/>
			<stop  offset="0.0036" style="stop-color:#FFDF42"/>
			<stop  offset="0.1905" style="stop-color:#FDCD1E"/>
			<stop  offset="0.3426" style="stop-color:#FBC208"/>
			<stop  offset="0.44" style="stop-color:#FBBE00"/>
			<stop  offset="0.6162" style="stop-color:#F9BB00"/>
			<stop  offset="0.7683" style="stop-color:#F4B000"/>
			<stop  offset="0.9" style="stop-color:#EDA000"/>
			<stop  offset="1" style="stop-color:#E08700"/>
		</radialGradient>
		<rect x="156.556" clip-path="url(#SVGID_2_)" fill="url(#SVGID_4_)" width="6.082" height="2.032"/>
	</g>
	<g>
		<defs>
			<path id="SVGID_30_" d="M150.572,0c-0.005,0.002-0.01,0.003-0.014,0.009l-5.044,8.737l-1.583,2.741l-0.183,0.317l-0.023,0.041
				c-0.003,0.004-0.003,0.01,0.001,0.016l4.807,8.322v-0.034c-0.105-0.189-0.181-0.337-0.22-0.432
				c-0.201-0.454-0.314-1.083-0.285-1.694c0.081-1.612,0.938-3.202,1.369-3.949c1.01-1.751,2.964-5.135,2.964-5.135
				s1.953-3.385,2.964-5.136c0.431-0.746,1.38-2.282,2.735-3.157c0.515-0.333,1.118-0.548,1.611-0.604
				c0.36-0.04,1.56-0.043,2.918-0.043H150.572z"/>
		</defs>
		<clipPath id="SVGID_6_">
			<use xlink:href="#SVGID_30_"  overflow="visible"/>
		</clipPath>
		
			<radialGradient id="SVGID_8_" cx="-360.1553" cy="251.2705" r="0.798" gradientTransform="matrix(24.92 0 0 -24.92 9134.7236 6261.687)" gradientUnits="userSpaceOnUse">
			<stop  offset="0" style="stop-color:#FFDF43"/>
			<stop  offset="0.0036" style="stop-color:#FFDF42"/>
			<stop  offset="0.1905" style="stop-color:#FDCD1E"/>
			<stop  offset="0.3426" style="stop-color:#FBC208"/>
			<stop  offset="0.44" style="stop-color:#FBBE00"/>
			<stop  offset="0.6162" style="stop-color:#F9BB00"/>
			<stop  offset="0.7683" style="stop-color:#F4B000"/>
			<stop  offset="0.9" style="stop-color:#EDA000"/>
			<stop  offset="1" style="stop-color:#E08700"/>
		</radialGradient>
		<rect x="143.723" clip-path="url(#SVGID_6_)" fill="url(#SVGID_8_)" width="18.867" height="20.184"/>
	</g>
	<g>
		<defs>
			<path id="SVGID_33_" d="M167.939,14.365c-0.294,0.4-0.78,0.814-1.326,1.094c-1.437,0.736-3.24,0.789-4.102,0.789h-5.931h-5.929
				c-0.861,0-2.668-0.053-4.104-0.789c-0.546-0.279-1.033-0.693-1.327-1.094c-0.188-0.254-0.665-1.068-1.23-2.048l1.205,2.09
				l4.538,7.86c0.003,0.004,0.008,0.007,0.014,0.007h13.667c0.004,0,0.01-0.004,0.012-0.008l5.956-10.314
				C168.727,13.09,168.15,14.081,167.939,14.365 M143.767,11.928c0.076,0.132,0.151,0.262,0.225,0.39L143.767,11.928z"/>
		</defs>
		<clipPath id="SVGID_10_">
			<use xlink:href="#SVGID_33_"  overflow="visible"/>
		</clipPath>
		
			<radialGradient id="SVGID_12_" cx="-360.0044" cy="251.4092" r="0.797" gradientTransform="matrix(24.9101 0 0 -24.9101 9112.9033 6277.0708)" gradientUnits="userSpaceOnUse">
			<stop  offset="0" style="stop-color:#FFDF43"/>
			<stop  offset="0.0036" style="stop-color:#FFDF42"/>
			<stop  offset="0.1905" style="stop-color:#FDCD1E"/>
			<stop  offset="0.3426" style="stop-color:#FBC208"/>
			<stop  offset="0.44" style="stop-color:#FBBE00"/>
			<stop  offset="0.6162" style="stop-color:#F9BB00"/>
			<stop  offset="0.7683" style="stop-color:#F4B000"/>
			<stop  offset="0.9" style="stop-color:#EDA000"/>
			<stop  offset="1" style="stop-color:#E08700"/>
		</radialGradient>
		<rect x="143.767" y="11.928" clip-path="url(#SVGID_10_)" fill="url(#SVGID_12_)" width="25.616" height="10.347"/>
	</g>
	<g>
		<defs>
			<path id="SVGID_36_" d="M159.672,0.043c-0.493,0.056-1.097,0.271-1.611,0.604c-0.567,0.365-1.062,0.848-1.479,1.34
				c0.579,0.683,1.005,1.384,1.255,1.817c1.011,1.751,2.966,5.136,2.966,5.136s1.953,3.384,2.966,5.135
				c0.43,0.747,1.286,2.337,1.366,3.949c0.03,0.611-0.085,1.24-0.284,1.694c-0.14,0.319-0.693,1.286-1.337,2.399l5.924-10.259
				c0-0.002,0.001-0.002,0.001-0.002V11.85c0-0.002-0.001-0.004-0.002-0.006l-6.833-11.835C162.6,0.005,162.595,0.002,162.59,0
				C161.231,0,160.032,0.003,159.672,0.043"/>
		</defs>
		<clipPath id="SVGID_13_">
			<use xlink:href="#SVGID_36_"  overflow="visible"/>
		</clipPath>
		
			<radialGradient id="SVGID_15_" cx="-360.2153" cy="251.5078" r="0.7965" gradientTransform="matrix(24.9799 0 0 -24.9799 9162.9775 6302.3979)" gradientUnits="userSpaceOnUse">
			<stop  offset="0" style="stop-color:#FFDF43"/>
			<stop  offset="0.0036" style="stop-color:#FFDF42"/>
			<stop  offset="0.1905" style="stop-color:#FDCD1E"/>
			<stop  offset="0.3426" style="stop-color:#FBC208"/>
			<stop  offset="0.44" style="stop-color:#FBBE00"/>
			<stop  offset="0.6162" style="stop-color:#F9BB00"/>
			<stop  offset="0.7683" style="stop-color:#F4B000"/>
			<stop  offset="0.9" style="stop-color:#EDA000"/>
			<stop  offset="1" style="stop-color:#E08700"/>
		</radialGradient>
		<rect x="156.581" clip-path="url(#SVGID_13_)" fill="url(#SVGID_15_)" width="12.856" height="22.117"/>
	</g>
</g>
</svg>
