<?xml version="1.0" encoding="utf-8"?>
<!-- Generator: Adobe Illustrator 16.0.0, SVG Export Plug-In . SVG Version: 6.00 Build 0)  -->
<!DOCTYPE svg PUBLIC "-//W3C//DTD SVG 1.1//EN" "http://www.w3.org/Graphics/SVG/1.1/DTD/svg11.dtd">
<svg version="1.1" xmlns="http://www.w3.org/2000/svg" xmlns:xlink="http://www.w3.org/1999/xlink" x="0px" y="0px"
	 width="126.933px" height="21.54px" viewBox="0 0 126.933 21.54" enable-background="new 0 0 126.933 21.54" xml:space="preserve">
<g>
	<path id="SCHENKER" fill="#1D1D1B" d="M124.378,13.512c-0.335-0.552-0.682-0.897-1.062-1.131c1.544-0.514,2.237-1.405,2.237-2.977
		c0-2.382-1.447-3.538-4.423-3.538h-4.52v11.955h3.04c0,0,0-4.481,0-4.717c0.143,0,0.386,0,0.386,0c0.685,0,0.932,0.184,1.467,1.098
		l2.112,3.619h3.316L124.378,13.512z M119.651,8.173c0.205,0,1.383,0,1.383,0c1.184,0,1.562,0.339,1.562,1.393
		c0,1.046-0.422,1.436-1.562,1.436c0,0-1.178,0-1.383,0V8.173 M109.083,15.397v-2.504c0.23,0,4.045,0,4.045,0v-2.311
		c0,0-3.814,0-4.045,0V8.288c0.234,0,5.123,0,5.123,0V5.866h-8.16v11.955h8.404l0.214-2.424
		C114.664,15.397,109.317,15.397,109.083,15.397 M99.817,11.497c0.115-0.147,4.447-5.631,4.447-5.631h-3.157
		c0,0-3.485,4.588-3.88,5.103c0-0.63,0-5.103,0-5.103h-3.035v11.955h3.035c0,0,0-4.42,0-5.057c0.395,0.52,3.818,5.057,3.818,5.057
		h3.608C104.654,17.821,99.933,11.648,99.817,11.497 M89.05,5.866c0,0,0,5.873,0,6.534c-0.402-0.537-4.893-6.534-4.893-6.534h-2.549
		v11.955h2.576c0,0,0-6.563,0-7.228c0.406,0.539,5.418,7.228,5.418,7.228h2.023V5.866H89.05 M74.077,15.397v-2.504
		c0.229,0,4.047,0,4.047,0v-2.311c0,0-3.817,0-4.047,0V8.288c0.234,0,5.125,0,5.125,0V5.866H71.04v11.955h8.406l0.211-2.424
		C79.657,15.397,74.312,15.397,74.077,15.397 M65.438,5.866c0,0,0,4.401,0,4.637h-4.197c0-0.235,0-4.637,0-4.637h-3.037v11.955
		h3.037c0,0,0-4.691,0-4.928h4.197c0,0.236,0,4.928,0,4.928h3.037V5.866H65.438 M56.015,15.116
		c-1.123,0.424-1.854,0.571-2.799,0.571c-1.967,0-2.732-1.064-2.732-3.804c0-2.857,0.744-3.919,2.748-3.919
		c0.93,0,1.743,0.168,2.717,0.554l0.167,0.068V6.112l-0.079-0.031c-0.914-0.336-1.829-0.489-2.884-0.489
		c-1.638,0-3.031,0.465-4.031,1.352C47.87,8.047,47.288,9.62,47.288,11.9c0,1.933,0.396,3.314,1.248,4.347
		c0.993,1.188,2.555,1.814,4.521,1.814c1.101,0,2.156-0.227,3.052-0.656l0.07-0.03v-2.32L56.015,15.116 M42.98,10.657
		c0.001,0.001-0.19-0.081-0.19-0.081c-1.223-0.533-1.272-0.552-1.562-0.76c-0.4-0.285-0.534-0.508-0.534-0.879
		c0-0.654,0.539-0.988,1.605-0.988c0.943,0,1.632,0.162,2.728,0.65l0.172,0.074V6.176l-0.081-0.031
		c-1.053-0.389-1.934-0.553-2.945-0.553c-2.719,0-4.277,1.323-4.277,3.634c0,1.74,0.775,2.739,2.771,3.562
		c2.12,0.893,2.32,1.116,2.32,1.769c0,0.761-0.632,1.147-1.879,1.147c-1.074,0-1.887-0.216-3.1-0.823l-0.179-0.089v2.5l0.071,0.036
		c1.127,0.521,2.112,0.733,3.4,0.733c2.974,0,4.612-1.324,4.612-3.73C45.912,12.507,45.172,11.58,42.98,10.657"/>
	<path id="DB" fill="#E20613" d="M9.27,17.819h-5.1V3.719h5.1c3.593,0,5.517,2.285,5.517,6.985
		C14.787,14.785,13.505,17.787,9.27,17.819z M11.484,10.998c0-2.842-0.29-5.059-3.305-5.059H7.504v9.594h1.188
		C10.456,15.533,11.484,14.099,11.484,10.998 M21.652,17.819h-5.389V3.719h5.647c2.663,0,4.105,1.111,4.105,3.755
		c0,1.371-1.123,2.35-2.341,2.97c1.7,0.488,2.854,1.535,2.854,3.295C26.528,16.612,24.154,17.819,21.652,17.819z M19.567,9.301
		h1.155c1.091,0,1.893-0.488,1.893-1.697c0-1.339-1.028-1.697-2.118-1.697h-0.93V9.301z M22.999,13.674
		c0-1.437-0.897-1.762-2.211-1.762h-1.22v3.621h1.188C21.942,15.533,22.999,15.142,22.999,13.674 M27.299,0H3.045
		C1.379,0,0,1.337,0,3.067v15.373c0,1.729,1.379,3.101,3.045,3.101h24.253c1.635,0,3.016-1.371,3.016-3.101V3.067
		C30.315,1.337,28.934,0,27.299,0z M28.101,18.439c0,0.49-0.322,0.883-0.802,0.883H3.045c-0.48,0-0.833-0.393-0.833-0.883V3.067
		c0-0.491,0.353-0.881,0.833-0.881h24.253c0.48,0,0.802,0.391,0.802,0.881V18.439"/>
</g>
</svg>
