<?xml version="1.0" encoding="utf-8"?>
<!-- Generator: Adobe Illustrator 16.0.0, SVG Export Plug-In . SVG Version: 6.00 Build 0)  -->
<!DOCTYPE svg PUBLIC "-//W3C//DTD SVG 1.1//EN" "http://www.w3.org/Graphics/SVG/1.1/DTD/svg11.dtd">
<svg version="1.1" xmlns="http://www.w3.org/2000/svg" xmlns:xlink="http://www.w3.org/1999/xlink" x="0px" y="0px"
	 width="67.943px" height="38.863px" viewBox="0 0 67.943 38.863" enable-background="new 0 0 67.943 38.863" xml:space="preserve">
<g>
	<path fill="#012D5A" d="M67.943,19.433c0,10.73-8.7,19.431-19.432,19.431c-10.732,0-19.432-8.7-19.432-19.431
		C29.079,8.699,37.778,0,48.511,0C59.243,0,67.943,8.699,67.943,19.433z M42.079,26.082h3.84l2.554-6.299l2.747,6.299h3.882
		l4.07-13.3h-4.354l-2.03,6.65l-2.574-6.624h-3.408l-2.508,6.633l-1.985-6.665h-4.356L42.079,26.082z"/>
	<g>
		<path fill="#012D5A" d="M38.863,19.433c0,10.731-8.7,19.431-19.431,19.431C8.7,38.863,0,30.164,0,19.433C0,8.699,8.7,0,19.432,0
			c5.785,0,10.98,2.528,14.54,6.54C37.016,9.97,38.863,14.485,38.863,19.433z"/>
		<circle fill="#FFFFFF" cx="19.431" cy="19.432" r="15.297"/>
	</g>
	<path fill="#012D5A" d="M22.347,11.899c0,0,7.151,0.825,7.1,7.459c-0.056,7.084-7.1,7.617-7.1,7.617H11.38V11.889L22.347,11.899z
		 M20.685,16.336H16.1v6.373h4.584c0,0,3.791,0.095,3.791-3.187S20.685,16.336,20.685,16.336z"/>
</g>
</svg>
