<?xml version="1.0" encoding="utf-8"?>
<!-- Generator: Adobe Illustrator 16.0.0, SVG Export Plug-In . SVG Version: 6.00 Build 0)  -->
<!DOCTYPE svg PUBLIC "-//W3C//DTD SVG 1.1//EN" "http://www.w3.org/Graphics/SVG/1.1/DTD/svg11.dtd">
<svg version="1.1" xmlns="http://www.w3.org/2000/svg" xmlns:xlink="http://www.w3.org/1999/xlink" x="0px" y="0px"
	 width="161.804px" height="25.502px" viewBox="0 0 161.804 25.502" enable-background="new 0 0 161.804 25.502"
	 xml:space="preserve">
<g>
	<polygon fill="#008039" points="14.126,5.312 14.124,5.308 14.124,5.308 	"/>
	<path fill="#008039" d="M20.077,11.296c-0.225-0.572-0.682-1.011-1.256-1.202c-0.344-0.114-1.059-0.353-5.926,0.312
		c-5.375,0.734-5.557,1.097-5.953,1.891c-0.445,0.89-0.084,1.971,0.805,2.416c0.479,0.238,1.012,0.245,1.473,0.062
		c0.395-0.158,0.158-0.094,0.137-0.086c0.764-0.278,4.389-0.805,6.704-1.03c0.081-0.009-0.015,0.095-0.052,0.207
		c-0.167,0.497-0.34,1.167-0.508,1.375c-0.109,0.134-0.209,0.289-0.518,0.408c-1.856,0.716-5.227,1.894-6.898,1.955
		c-1.926,0.071-3.492-0.895-4.297-2.651c-0.241-0.526-0.379-1.325,0.426-3.257c0.705-1.693,3.309-3.94,4.421-4.9
		c0.205-0.177,0.382-0.33,0.521-0.455c1.963-1.767,3.403-2.537,4.155-2.702c0.26,0.308,0.626,1.048,0.812,1.671
		c0.28,0.953,1.28,1.5,2.234,1.221c0.953-0.279,1.5-1.279,1.221-2.233c-0.305-1.042-1.513-4.434-4.222-4.291
		C11.565,0.099,9.341,1.33,6.748,3.664c-0.111,0.1-0.275,0.242-0.466,0.406C4.759,5.384,1.923,7.833,0.89,10.31
		c-1.05,2.521-1.166,4.415-0.374,6.142c1.421,3.1,4.3,4.875,7.703,4.749c1.784-0.065,4.465-0.896,6.433-1.592v4.093
		c0,0.995,0.807,1.801,1.801,1.801s1.8-0.806,1.8-1.801v-6.247C20.695,12.912,20.282,11.823,20.077,11.296z"/>
	<polygon fill="#008039" points="22.837,9.91 22.837,9.91 22.837,9.91 	"/>
	<path fill="#008039" d="M30.333,13.119l-0.095-0.082c0.671-0.372,1.262-0.757,1.608-1.065c1.717-1.525,2.003-4.679,1.901-6.3
		c-0.16-2.561-2.782-5.17-5.196-5.17c-1.404,0-4.195,0.726-4.74,0.871c-1.121,0.299-1.787,1.449-1.488,2.57
		c0.23,0.865,0.969,1.453,1.809,1.542c-0.127,0.774-0.256,1.412-0.351,1.648c-0.216,0.538-0.411,1.452-0.661,2.802
		c-0.094-0.009-0.191-0.018-0.283-0.025c-1.156-0.102-2.175,0.752-2.277,1.908c-0.097,1.106,0.686,2.079,1.768,2.25
		c-0.226,1.461-0.209,4.59-0.175,6.467c0.019,0.995,0.839,1.785,1.833,1.767c0.994-0.018,1.785-0.839,1.767-1.832
		c-0.034-1.815-0.016-3.948,0.054-5.113l1.935,1.075l4.532,3.953c0.873,0.763,2.199,0.672,2.963-0.202
		c0.762-0.874,0.672-2.2-0.203-2.963L30.333,13.119z M29.556,5.933c0.082,1.311-0.286,2.615-0.52,2.915
		c-0.398,0.341-1.545,0.914-2.275,1.208c0.139-0.717,0.274-1.361,0.363-1.586c0.316-0.793,0.586-2.457,0.756-3.696
		c0.25-0.039,0.453-0.062,0.602-0.067C28.866,4.833,29.531,5.534,29.556,5.933z"/>
	<path fill="#008039" d="M48.902,6.138c1.29-0.304,2.09-1.596,1.786-2.887c-0.304-1.289-1.595-2.09-2.886-1.786l-9,2.4
		c-1.29,0.304-2.091,1.595-1.786,2.886c0.107,0.457,0.344,0.849,0.655,1.156c-0.06,1.185-0.142,2.242-0.229,2.728
		c-0.188,0.317-0.286,0.69-0.282,1.083c-0.031,0.109-0.064,0.223-0.097,0.336c-0.771,2.696-1.007,3.73-0.892,4.545
		c0.237,1.657,2.568,3.864,4.07,4.24c0.912,0.228,4.014,0.526,5.318,0.199c1.126-0.28,1.81-1.421,1.528-2.546
		c-0.281-1.126-1.421-1.81-2.547-1.527c0.022-0.007,0.036-0.009,0.036-0.009c-0.52,0.091-2.539-0.039-3.213-0.173
		c-0.26-0.148-0.711-0.572-0.969-0.895c0.107-0.546,0.365-1.479,0.566-2.189l6.519-0.401c1.157-0.072,2.037-1.068,1.966-2.227
		c-0.071-1.156-1.067-2.037-2.226-1.967l-5.435,0.336c0.035-0.477,0.063-0.964,0.086-1.429L48.902,6.138z"/>
	<path fill="#008039" d="M65.988,3.251c-0.303-1.289-1.596-2.09-2.885-1.786l-10.201,2.4c-1.29,0.304-2.09,1.595-1.786,2.886
		c0.108,0.457,0.344,0.85,0.656,1.156c-0.06,1.186-0.142,2.242-0.229,2.728c-0.188,0.318-0.285,0.691-0.282,1.085
		c-0.031,0.109-0.063,0.221-0.096,0.334c-0.771,2.696-1.008,3.73-0.892,4.545c0.236,1.657,2.567,3.864,4.07,4.24
		c0.912,0.228,4.013,0.526,5.318,0.199c1.125-0.28,1.809-1.421,1.527-2.546c-0.281-1.126-1.421-1.81-2.547-1.527
		c0.023-0.007,0.037-0.009,0.037-0.009c-0.521,0.091-2.557-0.04-3.223-0.175c-0.361-0.196-0.678-0.52-0.859-0.695
		c-0.115-0.111-0.102-0.219-0.037-0.493c0.117-0.508,0.305-1.19,0.465-1.759c0.014-0.047,0.025-0.089,0.038-0.134l0.099-0.006
		l6.42-0.396c1.158-0.072,2.038-1.068,1.967-2.227c-0.072-1.156-1.068-2.037-2.226-1.967l-5.435,0.336
		c0.033-0.455,0.061-0.92,0.082-1.366l8.231-1.937C65.492,5.834,66.293,4.542,65.988,3.251z"/>
	<path fill="#008039" d="M70.977,1.46C70.984,1.478,71,1.517,71.021,1.575c0.001,0.003,0.003,0.006,0.004,0.009L70.977,1.46z"/>
	<path fill="#008039" d="M77.9,1.002c-0.994-0.026-1.82,0.757-1.848,1.751l-0.299,8.57c-0.015,0.352-0.038,0.811-0.064,1.32
		c-0.188-0.387-0.348-0.705-0.457-0.904c-0.146-0.268-0.373-0.583-0.794-1.163c-0.606-0.835-1.523-2.097-2.083-3.192
		c-0.349-0.686-0.652-1.5-0.891-2.23c-0.002-2.131-0.318-3.232-0.443-3.579c-0.4-1.083-1.6-1.642-2.687-1.247
		c-1.09,0.396-1.652,1.602-1.256,2.691l-0.019-0.051c0.004,0.008,0.271,0.912,0.193,2.953c-0.096,2.51-0.391,5.99-0.746,7.5
		c-0.42,1.788-0.822,4.985-0.839,5.12c-0.144,1.15,0.673,2.2,1.823,2.344c1.15,0.145,2.2-0.672,2.344-1.822
		c0.004-0.031,0.392-3.11,0.761-4.68c0.148-0.631,0.28-1.484,0.396-2.43c0.19,0.267,0.372,0.519,0.532,0.739
		c0.217,0.298,0.487,0.67,0.553,0.781c0.461,0.844,2.275,4.813,2.935,6.271c0.065,0.145,0.153,0.271,0.249,0.39
		c0.017,0.929,0.735,1.705,1.679,1.765c0.992,0.062,1.847-0.692,1.909-1.686v0.001c0.016-0.263,0.402-6.443,0.502-8.734l0.301-8.631
		C79.679,1.856,78.895,1.029,77.9,1.002z"/>
	<path fill="#008039" d="M95.834,10.402c2.125-1.274,2.232-4.523,2.103-5.561c-0.265-2.122-3.188-3.666-5.106-3.922
		c-1.487-0.197-4.283-0.456-6.286,0.045c-1.688,0.422-4.97,1.613-5.108,1.664c-1.09,0.396-1.652,1.602-1.256,2.691
		s1.601,1.652,2.691,1.256c0.538-0.196,1.695-0.605,2.797-0.966l-0.236,3.776c-0.419,0.094-0.707,0.159-0.746,0.168
		c-1.131,0.259-1.838,1.385-1.58,2.516c0.224,0.977,1.095,1.635,2.057,1.629l-0.007,0.113c-0.102,2.021-0.103,6.597-0.103,6.79
		c0,0.994,0.807,1.8,1.8,1.8c0.994,0,1.8-0.806,1.8-1.8c0-0.047,0.002-4.678,0.099-6.61l0.064-1.038
		c0.588-0.121,1.12-0.225,1.457-0.276C92.088,12.398,94.984,10.912,95.834,10.402z M89.087,8.621l0.233-3.744
		c0.863-0.004,1.882,0.063,2.955,0.207c0.498,0.066,1.32,0.382,1.443,0.63c0.116,0.232-0.025,0.876-0.193,1.171
		C92.493,7.478,90.46,8.4,89.633,8.527C89.477,8.55,89.29,8.583,89.087,8.621z"/>
	<path fill="#008039" d="M106.458,16.492c-0.89-0.444-1.97-0.084-2.415,0.805c0.018-0.034,0.026-0.05,0.026-0.05
		c-0.065,0.109-0.438,0.655-1.417,0.655c-1.979,0-2.893-0.19-3.26-0.681c-0.288-0.383-0.297-1.529,0.136-2.857
		c0.672-0.094,1.536-0.164,1.979-0.09c1.151,0.191,2.99-0.072,5.396-0.527c0.168-0.032,0.326-0.062,0.394-0.073
		c0.846-0.141,1.894-0.643,2.194-0.793c1.037-0.52,1.458-1.78,0.938-2.818c-0.519-1.037-1.779-1.457-2.816-0.938l0.001-0.001
		c-0.354,0.176-0.848,0.375-1.016,0.409c-0.105,0.018-0.261,0.047-0.477,0.088c-2.802,0.53-3.664,0.547-3.929,0.511
		c-0.256-0.043-0.529-0.062-0.807-0.074c0.396-0.865,0.798-1.736,1.151-2.498c0.062-0.01,0.124-0.01,0.186-0.025l4.817-1.18
		c1.586-0.215,4.306-1.189,5.146-1.502c1.242-0.461,1.876-1.842,1.414-3.085c-0.461-1.243-1.843-1.876-3.085-1.414
		c-1.508,0.56-3.582,1.214-4.148,1.257l-0.196,0.016l-0.19,0.046l-4.9,1.2c-1.017,0.249-1.713,1.113-1.809,2.1
		c-0.562,1.204-1.946,4.178-2.832,6.194c-0.167,0.237-0.286,0.507-0.345,0.796c-0.14,0.328-0.253,0.605-0.329,0.81
		c-0.473,1.26-1.395,4.426,0.245,6.611c1.468,1.957,3.939,2.121,6.14,2.121c2.615,0,4.129-1.632,4.61-2.596
		C107.707,18.017,107.348,16.936,106.458,16.492z"/>
	<path fill="#008039" d="M121.706,1.544c-0.771-0.642-1.58-0.868-2.409-0.674c-1.497,0.351-2.57,1.853-4.591,6.43
		c-0.684,1.547-1.245,2.808-1.714,3.851c-1.019,0.329-1.729,1.308-1.659,2.426c0.018,0.281,0.092,0.543,0.196,0.788
		c-0.237,0.512-0.427,0.915-0.584,1.251l-0.198,0.425c-0.496,1.062-1.442,2.812-1.452,2.829c-0.473,0.874-0.148,1.967,0.726,2.439
		c0.874,0.475,1.967,0.149,2.44-0.726c0.041-0.074,1.007-1.86,1.549-3.021l0.195-0.418c0.172-0.366,0.379-0.809,0.645-1.384
		l5.136-0.321c-0.005,2.214-0.031,4.304-0.032,4.339c-0.013,0.993,0.782,1.81,1.776,1.822c0.995,0.014,1.811-0.782,1.823-1.775
		c0.003-0.237,0.074-5.843,0-8.475C123.329,3.529,122.552,2.249,121.706,1.544z M118,8.753c0.628-1.422,1.469-3.07,1.469-3.07
		l0.112,0.201c0,0,0.238,2.303,0.343,4.75l-2.836,0.178C117.366,10.185,117.668,9.506,118,8.753z"/>
	<path fill="#008039" d="M161.789,3.134c-0.148-1.317-1.336-2.266-2.653-2.117c-0.201,0.022-4.948,0.556-6.021,0.709l-2.212,0.322
		c-1.33,0.195-3.34,0.49-3.58,0.52c-0.672,0.079-1.877,0.284-2.523,0.397c-0.866-0.06-1.714,0.416-2.076,1.259
		c-0.002,0.005-0.003,0.008-0.005,0.012c-0.087,0.155-0.157,0.318-0.208,0.49c-0.613,1.456-0.785,1.97-0.844,2.215
		c-0.055,0.168-0.262,0.736-0.447,1.247c-0.351,0.962-0.699,1.929-1.01,2.828c-0.11,0.206-0.191,0.429-0.228,0.668
		c-0.331,0.986-0.597,1.854-0.73,2.475c-0.055,0.252-0.074,0.485-0.097,0.721c-0.121-0.076-0.25-0.143-0.39-0.194
		c-1.087-0.406-1.534-0.323-2.702,1.229l0.001-0.004c-0.008,0.021-1.485,0.666-2.948,0.366c-0.42-0.086-1.38-0.46-1.763-0.675
		c-0.599-0.338-1.679-0.788-2.474-1.537c-0.293-0.276-0.689-1.431-0.479-2.692c0.089-0.539,0.659-1.468,0.659-1.468
		c1.105-1.313,2.275-2.233,4.035-3.177c1.227-0.657,1.671-0.389,1.784-0.201c0.111,0.188-0.113,0.862-0.113,0.862
		c-0.112,1.612-0.25,1.846,0.407,2.802c0.656,0.956,1.963,1.199,2.92,0.542c0.584-0.401,1.127-1.208,1.709-2.54
		c0.599-1.367,0.479-3.144-0.296-4.42c-0.6-0.988-1.553-1.596-2.612-1.666c-0.129-0.01-0.281-0.025-0.442-0.041
		c-1.188-0.121-2.981-0.304-5.34,0.96c-2.184,1.17-3.736,2.392-5.164,4.06c-0.407,0.389-1.681,1.734-1.991,3.596
		c-0.257,1.545-0.4,4.406,1.533,6.226c1.171,1.103,2.729,1.975,4.104,2.746c0.38,0.213,0.738,0.414,1.071,0.609
		c1.68,0.988,3.43,1.305,5.675,1.023c1.714-0.215,2.796-1.922,3.391-3.256c0.192,0.372,0.382,0.644,0.505,0.797
		c1.515,2.269,4.452,2.275,6.419,2.275c2.753,0,4.873-1.621,5.106-1.806c0.908-0.721,1.06-2.042,0.338-2.95
		c-0.721-0.908-2.042-1.061-2.95-0.339l0.013-0.011c-0.328,0.252-1.417,0.905-2.507,0.905c-1.788,0-2.777-0.142-2.943-0.421
		l-0.108-0.184l-0.094-0.103c-0.044-0.061-0.302-0.454-0.151-1.149c0.056-0.257,0.155-0.607,0.276-1.004
		c0.305-0.014,0.594-0.03,0.795-0.047c0.603-0.051,3.278-0.192,3.625-0.193l3.584-0.05c1.16-0.019,2.085-0.974,2.066-2.133
		c-0.019-1.16-0.974-2.086-2.134-2.066l-3.517,0.05c-0.392,0-1.867,0.076-2.931,0.14c0.014-0.037,0.029-0.08,0.042-0.115
		c0.412-1.129,0.527-1.451,0.582-1.685c0.021-0.063,0.056-0.159,0.105-0.287c0.666-0.115,1.572-0.265,2.032-0.319
		c0.264-0.031,1.643-0.232,3.716-0.537l2.193-0.32c0.803-0.115,4.196-0.502,5.879-0.691C160.988,5.639,161.937,4.451,161.789,3.134z
		"/>
</g>
</svg>
