<?xml version="1.0" encoding="utf-8"?>
<!-- Generator: Adobe Illustrator 16.0.0, SVG Export Plug-In . SVG Version: 6.00 Build 0)  -->
<!DOCTYPE svg PUBLIC "-//W3C//DTD SVG 1.1//EN" "http://www.w3.org/Graphics/SVG/1.1/DTD/svg11.dtd">
<svg version="1.1" xmlns="http://www.w3.org/2000/svg" xmlns:xlink="http://www.w3.org/1999/xlink" x="0px" y="0px"
	 width="93.639px" height="14.256px" viewBox="0 0 93.639 14.256" enable-background="new 0 0 93.639 14.256" xml:space="preserve">
<g>
	<polygon fill-rule="evenodd" clip-rule="evenodd" fill="#1D1D1B" points="27.383,11.842 29.318,11.842 29.318,8.048 32.877,8.048 
		32.877,11.842 34.811,11.842 34.811,3.047 32.877,3.047 32.877,6.422 29.318,6.422 29.318,3.047 27.383,3.047 27.383,11.842 	"/>
	<path fill-rule="evenodd" clip-rule="evenodd" fill="#1D1D1B" d="M39.506,9.378c0,0.382-0.049,1.466-1.416,1.466
		c-0.566,0-1.072-0.161-1.072-0.812c0-0.641,0.493-0.826,1.035-0.938c0.542-0.099,1.158-0.11,1.454-0.369V9.378L39.506,9.378z
		 M37.215,7.432c0.062-0.689,0.493-0.961,1.158-0.961c0.616,0,1.133,0.111,1.133,0.862c0,0.715-0.998,0.677-2.069,0.838
		c-1.084,0.147-2.168,0.492-2.168,1.934c0,1.306,0.961,1.908,2.168,1.908c0.776,0,1.589-0.209,2.144-0.787
		c0.012,0.209,0.062,0.418,0.123,0.616h1.774c-0.16-0.259-0.222-0.838-0.222-1.417V7.112c0-1.528-1.527-1.812-2.796-1.812
		c-1.429,0-2.895,0.493-2.993,2.131H37.215L37.215,7.432z"/>
	<path fill-rule="evenodd" clip-rule="evenodd" fill="#1D1D1B" d="M41.825,14.083h1.75v-3.03h0.024
		c0.419,0.628,1.146,0.96,1.909,0.96c1.86,0,2.796-1.588,2.796-3.288c0-1.811-0.899-3.424-2.895-3.424
		c-0.789,0-1.479,0.308-1.897,0.985h-0.024V5.474h-1.663V14.083L41.825,14.083z M45.04,10.695c-1.133,0-1.527-0.985-1.527-2.02
		c0-1.035,0.37-2.058,1.515-2.058c1.12,0,1.527,1.047,1.527,2.058C46.555,9.71,46.186,10.695,45.04,10.695L45.04,10.695z"/>
	<path fill-rule="evenodd" clip-rule="evenodd" fill="#1D1D1B" d="M52.775,9.378c0,0.382-0.049,1.466-1.417,1.466
		c-0.567,0-1.072-0.161-1.072-0.812c0-0.641,0.492-0.826,1.035-0.938c0.542-0.099,1.158-0.11,1.454-0.369V9.378L52.775,9.378z
		 M50.484,7.432c0.062-0.689,0.493-0.961,1.158-0.961c0.616,0,1.133,0.111,1.133,0.862c0,0.715-0.998,0.677-2.069,0.838
		c-1.084,0.147-2.168,0.492-2.168,1.934c0,1.306,0.96,1.908,2.168,1.908c0.776,0,1.589-0.209,2.143-0.787
		c0.012,0.209,0.062,0.418,0.123,0.616h1.773c-0.16-0.259-0.221-0.838-0.221-1.417V7.112c0-1.528-1.528-1.812-2.796-1.812
		c-1.429,0-2.895,0.493-2.994,2.131H50.484L50.484,7.432z"/>
	<path fill-rule="evenodd" clip-rule="evenodd" fill="#1D1D1B" d="M61.462,5.474h-1.663v0.85h-0.024
		c-0.419-0.739-1.059-1.022-1.897-1.022c-1.786,0-2.734,1.503-2.734,3.153c0,1.749,0.812,3.202,2.722,3.202
		c0.763,0,1.527-0.319,1.909-0.985h0.024v0.838c0.012,0.911-0.431,1.575-1.404,1.575c-0.616,0-1.145-0.221-1.305-0.873h-1.737
		c0.086,1.454,1.552,2.045,2.808,2.045c2.932,0,3.301-1.774,3.301-2.821V5.474L61.462,5.474z M58.309,10.339
		c-1.072,0-1.417-0.998-1.417-1.909c0-0.948,0.431-1.812,1.417-1.812c1.133,0,1.49,0.925,1.49,1.959
		C59.799,9.488,59.306,10.339,58.309,10.339L58.309,10.339z"/>
	<polygon fill-rule="evenodd" clip-rule="evenodd" fill="#1D1D1B" points="61.942,9.23 65.649,9.23 65.649,7.729 61.942,7.729 
		61.942,9.23 	"/>
	<polygon fill-rule="evenodd" clip-rule="evenodd" fill="#1D1D1B" points="66.12,11.842 72.34,11.842 72.34,10.216 68.055,10.216 
		68.055,3.047 66.12,3.047 66.12,11.842 	"/>
	<polygon fill-rule="evenodd" clip-rule="evenodd" fill="#1D1D1B" points="72.748,11.842 74.498,11.842 74.498,3.047 72.748,3.047 
		72.748,11.842 	"/>
	<path fill-rule="evenodd" clip-rule="evenodd" fill="#1D1D1B" d="M74.893,8.663c0,2.02,1.294,3.35,3.289,3.35
		c2.008,0,3.301-1.33,3.301-3.35c0-2.032-1.293-3.362-3.301-3.362C76.187,5.301,74.893,6.631,74.893,8.663L74.893,8.663z
		 M76.643,8.663c0-1.022,0.357-2.045,1.539-2.045c1.195,0,1.552,1.022,1.552,2.045c0,1.01-0.357,2.032-1.552,2.032
		C77,10.695,76.643,9.673,76.643,8.663L76.643,8.663z"/>
	<path fill-rule="evenodd" clip-rule="evenodd" fill="#1D1D1B" d="M87.629,5.474h-1.811l-1.392,4.359h-0.025l-1.44-4.359h-1.872
		l2.241,5.974c0.197,0.506,0,1.134-0.604,1.194c-0.345,0.013-0.69-0.037-1.023-0.061v1.44c0.358,0.037,0.715,0.062,1.072,0.062
		c1.207,0,1.811-0.418,2.193-1.441L87.629,5.474L87.629,5.474z"/>
	<path fill-rule="evenodd" clip-rule="evenodd" fill="#1D1D1B" d="M91.977,11.842h1.662V3.047H91.89V6.25h-0.024h0.012
		c-0.407-0.629-1.146-0.949-1.897-0.949c-1.873,0-2.82,1.589-2.82,3.301c0,1.762,0.936,3.411,2.857,3.411
		c0.813,0,1.527-0.294,1.934-0.985h0.025V11.842L91.977,11.842z M91.951,8.639c0,1.047-0.344,2.057-1.502,2.057
		c-1.084,0-1.54-1.047-1.54-2.045c0-1.047,0.394-2.032,1.54-2.032C91.582,6.618,91.951,7.604,91.951,8.639L91.951,8.639z"/>
	<polygon fill-rule="evenodd" clip-rule="evenodd" fill="#043572" points="5.926,0 12.129,0 8.135,6.553 9.368,6.553 13.324,0 
		19.729,0 15.772,6.424 19.969,6.424 18.239,9.607 13.804,9.607 17.263,14.043 10.859,14.043 7.656,9.607 6.423,9.607 9.607,14.043 
		3.46,14.043 0,9.367 5.926,0 	"/>
</g>
</svg>
