<?xml version="1.0" encoding="utf-8"?>
<!-- Generator: Adobe Illustrator 16.0.0, SVG Export Plug-In . SVG Version: 6.00 Build 0)  -->
<!DOCTYPE svg PUBLIC "-//W3C//DTD SVG 1.1//EN" "http://www.w3.org/Graphics/SVG/1.1/DTD/svg11.dtd">
<svg version="1.1" xmlns="http://www.w3.org/2000/svg" xmlns:xlink="http://www.w3.org/1999/xlink" x="0px" y="0px"
	 width="91.732px" height="23.447px" viewBox="0 0 91.732 23.447" enable-background="new 0 0 91.732 23.447" xml:space="preserve">
<g id="layer1" transform="translate(-201.7967,-413.11332)">
	<g id="g2887" transform="matrix(3.190431,0,0,3.190431,-560.52344,-1180.7649)">
		<path id="path2612" fill="#211D1E" d="M250.254,506.93c-0.788,0-1.248-0.604-1.248-1.339s0.451-1.337,1.248-1.337
			s1.25,0.601,1.25,1.337S251.042,506.93,250.254,506.93z M251.131,505.591c0-0.661-0.337-1.011-0.877-1.011
			c-0.538,0-0.877,0.349-0.877,1.011c0,0.662,0.346,1.013,0.877,1.013S251.131,506.252,251.131,505.591"/>
		<path id="path2614" fill="#211D1E" d="M248.28,504.301v1.964h-0.027l-1.284-1.964h-0.361v2.582h0.353v-1.964h0.027l1.304,1.964
			h0.341v-2.582H248.28"/>
		<path id="path2616" fill="#211D1E" d="M252.241,506.883h-0.35v-2.582h0.821c0.614,0,0.916,0.251,0.916,0.693
			c0,0.359-0.21,0.611-0.498,0.703l0.531,1.185h-0.382l-0.509-1.143h-0.529V506.883z M252.241,504.611v0.819h0.467
			c0.353,0,0.549-0.109,0.549-0.409c0-0.3-0.196-0.41-0.549-0.41H252.241"/>
		<path id="path2618" fill="#211D1E" d="M254.122,504.301h0.71c0.29,0,0.587,0.065,0.766,0.181c0.371,0.239,0.549,0.646,0.549,1.109
			c0,0.463-0.178,0.871-0.549,1.11c-0.179,0.116-0.476,0.182-0.766,0.182h-0.71V504.301z M254.473,506.573l0.366,0
			c0.19,0,0.4-0.038,0.531-0.116c0.29-0.175,0.404-0.518,0.404-0.865c0-0.346-0.114-0.691-0.404-0.865
			c-0.13-0.078-0.341-0.116-0.531-0.116h-0.366V506.573"/>
		<path id="path2620" fill="#211D1E" d="M258.288,505.636c0.136,0.112,0.215,0.282,0.215,0.48c0,0.238-0.078,0.472-0.292,0.612
			c-0.148,0.096-0.366,0.155-0.65,0.155h-0.842v-2.582h0.91c0.283,0,0.458,0.068,0.589,0.181c0.134,0.118,0.212,0.285,0.212,0.471
			c0,0.165-0.07,0.317-0.181,0.425c-0.058,0.058-0.145,0.105-0.227,0.129v0.013C258.132,505.543,258.219,505.581,258.288,505.636z
			 M257.071,505.686v0.887h0.525c0.384,0,0.536-0.16,0.536-0.443c0-0.292-0.148-0.444-0.536-0.444H257.071z M257.071,504.611v0.765
			h0.529c0.364,0,0.469-0.163,0.469-0.383c0-0.257-0.138-0.382-0.469-0.382H257.071"/>
		<path id="path2622" fill="#211D1E" d="M260.333,506.212h-1.011l-0.224,0.671h-0.38l0.949-2.581h0.322l0.949,2.581h-0.38
			L260.333,506.212z M260.23,505.902l-0.393-1.173h-0.018l-0.393,1.173H260.23"/>
		<path id="path2624" fill="#211D1E" d="M262.944,504.301l-0.002,1.964h-0.025l-1.285-1.964h-0.36v2.582h0.353v-1.964h0.027
			l1.304,1.964h0.341v-2.582H262.944"/>
		<path id="path2626" fill="#211D1E" d="M264.275,505.496l1.034-1.195h0.407l-1.09,1.239v0.007l1.118,1.336h-0.421l-1.049-1.281
			h-0.011v1.281h-0.351v-2.582h0.351v1.195H264.275"/>
		<path id="path2628" fill="#4A93BC" d="M238.94,506.883h0.351v-1.176h1.188v1.176h0.352v-2.581h-0.352v1.095h-1.188v-1.095h-0.351
			V506.883"/>
		<path id="path2630" fill="#4A93BC" d="M242.977,504.982c-0.054-0.491-0.351-0.727-0.831-0.727c-0.578,0-0.871,0.268-0.871,0.703
			c0,0.488,0.315,0.677,0.891,0.797c0.446,0.094,0.562,0.24,0.562,0.464c0,0.278-0.179,0.424-0.567,0.424
			c-0.348,0-0.531-0.19-0.569-0.526h-0.377c0.031,0.539,0.4,0.813,0.946,0.813c0.674,0,0.94-0.312,0.94-0.768
			c0-0.451-0.25-0.628-0.891-0.772c-0.453-0.101-0.562-0.25-0.562-0.469c0-0.219,0.141-0.379,0.478-0.379
			c0.263,0,0.462,0.14,0.475,0.44H242.977"/>
		<path id="path2632" fill="#4A93BC" d="M243.448,506.883h0.352v-1.176h1.188v1.176h0.351v-2.581h-0.351v1.095H243.8v-1.095h-0.352
			V506.883"/>
		<path id="path2634" fill="#4A93BC" d="M256.158,503.462l0.136,1.333c0.004,0.033,0.015,0.05,0.04,0.05
			c0.024,0,0.034-0.017,0.038-0.05l0.136-1.331l11.133-0.135c0.029,0,0.051-0.01,0.051-0.035c0-0.026-0.022-0.035-0.051-0.036
			l-11.124-0.131l-0.147-3.495c-0.002-0.03-0.011-0.051-0.036-0.051c-0.027,0-0.036,0.021-0.038,0.051l-0.147,3.497l-5.393,0.13
			c-0.029,0.001-0.047,0.012-0.047,0.036s0.016,0.035,0.047,0.036L256.158,503.462"/>
	</g>
</g>
</svg>
