<?xml version="1.0" encoding="utf-8"?>
<!-- Generator: Adobe Illustrator 16.0.0, SVG Export Plug-In . SVG Version: 6.00 Build 0)  -->
<!DOCTYPE svg PUBLIC "-//W3C//DTD SVG 1.1//EN" "http://www.w3.org/Graphics/SVG/1.1/DTD/svg11.dtd">
<svg version="1.1" xmlns="http://www.w3.org/2000/svg" xmlns:xlink="http://www.w3.org/1999/xlink" x="0px" y="0px"
	 width="60.673px" height="33.563px" viewBox="0 0 60.673 33.563" enable-background="new 0 0 60.673 33.563" xml:space="preserve">
<g>
	<linearGradient id="SVGID_2_" gradientUnits="userSpaceOnUse" x1="30.3359" y1="33.563" x2="30.3359" y2="0">
		<stop  offset="0" style="stop-color:#666666"/>
		<stop  offset="0.5" style="stop-color:#8C8C8C"/>
		<stop  offset="1" style="stop-color:#E6E6E6"/>
	</linearGradient>
	<path fill="url(#SVGID_2_)" d="M3.335,33.563c-0.125-1.058-0.188-2.134-0.188-3.227c0-15.017,12.174-27.191,27.19-27.191
		s27.189,12.174,27.189,27.191c0,1.092-0.063,2.168-0.188,3.227h3.166c0.112-1.059,0.169-2.138,0.169-3.227
		C60.673,13.582,47.092,0,30.337,0S0,13.582,0,30.336c0,1.087,0.058,2.169,0.169,3.227H3.335L3.335,33.563L3.335,33.563z"/>
	<path fill="none" d="M0.662,33.02c-0.078-0.883-0.118-1.781-0.118-2.683c0-16.454,13.338-29.792,29.793-29.792
		c16.454,0,29.793,13.338,29.793,29.792c0,0.903-0.04,1.799-0.119,2.683h-2.068c0.085-0.883,0.128-1.778,0.128-2.683
		c0-15.317-12.416-27.734-27.733-27.734c-15.318,0-27.734,12.417-27.734,27.734c0,0.905,0.044,1.8,0.128,2.683H0.662L0.662,33.02
		L0.662,33.02z"/>
	<linearGradient id="SVGID_4_" gradientUnits="userSpaceOnUse" x1="58.0703" y1="17.9624" x2="2.6025" y2="17.9624">
		<stop  offset="0" style="stop-color:#000000"/>
		<stop  offset="0.35" style="stop-color:#000000"/>
		<stop  offset="0.6" style="stop-color:#EDEDED"/>
		<stop  offset="1" style="stop-color:#EDEDED"/>
	</linearGradient>
	<path fill="url(#SVGID_4_)" d="M3.065,33.322c-0.105-0.981-0.16-1.977-0.16-2.986c0-15.15,12.281-27.431,27.432-27.431
		c15.149,0,27.431,12.281,27.431,27.431c0,1.009-0.054,2.005-0.16,2.986l0.335-0.303c0.085-0.883,0.128-1.778,0.128-2.683
		c0-15.317-12.416-27.734-27.733-27.734c-15.318,0-27.734,12.417-27.734,27.734c0,0.905,0.044,1.8,0.128,2.683L3.065,33.322
		L3.065,33.322L3.065,33.322z"/>
	<linearGradient id="SVGID_6_" gradientUnits="userSpaceOnUse" x1="1.7266" y1="33.3223" x2="1.7266" y2="33.0195">
		<stop  offset="0" style="stop-color:#000000"/>
		<stop  offset="1" style="stop-color:#666666"/>
	</linearGradient>
	<polygon fill="url(#SVGID_6_)" points="0.387,33.322 0.662,33.02 2.73,33.02 3.067,33.322 0.387,33.322 0.387,33.322 	"/>
	<linearGradient id="SVGID_8_" gradientUnits="userSpaceOnUse" x1="0.2412" y1="16.7817" x2="60.4326" y2="16.7817">
		<stop  offset="0" style="stop-color:#000000"/>
		<stop  offset="0.15" style="stop-color:#000000"/>
		<stop  offset="0.5" style="stop-color:#EDEDED"/>
		<stop  offset="1" style="stop-color:#EDEDED"/>
	</linearGradient>
	<path fill="url(#SVGID_8_)" d="M60.286,33.322c0.097-0.981,0.146-1.979,0.146-2.986c0-16.622-13.475-30.096-30.096-30.096
		c-16.622,0-30.096,13.474-30.096,30.096c0,1.005,0.049,2.005,0.146,2.986l0.275-0.303c-0.078-0.883-0.118-1.781-0.118-2.683
		c0-16.454,13.338-29.792,29.793-29.792c16.454,0,29.793,13.338,29.793,29.792c0,0.903-0.04,1.799-0.119,2.683L60.286,33.322
		L60.286,33.322L60.286,33.322z"/>
	<linearGradient id="SVGID_10_" gradientUnits="userSpaceOnUse" x1="58.9482" y1="33.3223" x2="58.9482" y2="33.0195">
		<stop  offset="0" style="stop-color:#000000"/>
		<stop  offset="1" style="stop-color:#808080"/>
	</linearGradient>
	<polygon fill="url(#SVGID_10_)" points="57.61,33.321 57.942,33.02 60.011,33.02 60.286,33.322 57.61,33.321 57.61,33.321 	"/>
	<polygon fill="#B5B5B5" points="13.298,27.483 16.447,24.333 20.916,24.333 20.916,33.563 16.154,33.563 16.154,29.9 
		13.298,32.757 10.44,29.9 10.44,33.563 5.68,33.563 5.68,24.333 10.147,24.333 13.298,27.483 13.298,27.483 	"/>
	<linearGradient id="SVGID_12_" gradientUnits="userSpaceOnUse" x1="7.7256" y1="34.519" x2="18.8677" y2="23.3769">
		<stop  offset="0" style="stop-color:#666666"/>
		<stop  offset="1" style="stop-color:#E6E6E6"/>
	</linearGradient>
	<polygon fill="url(#SVGID_12_)" points="13.298,28.255 9.922,24.879 6.225,24.879 6.225,33.017 9.895,33.017 9.895,28.583 
		13.298,31.985 16.7,28.583 16.7,33.017 20.37,33.017 20.37,24.879 16.674,24.879 13.298,28.255 13.298,28.255 	"/>
	<linearGradient id="SVGID_13_" gradientUnits="userSpaceOnUse" x1="18.5352" y1="33.3198" x2="18.5352" y2="33.0171">
		<stop  offset="0" style="stop-color:#000000"/>
		<stop  offset="1" style="stop-color:#4D4D4D"/>
	</linearGradient>
	<polygon fill="url(#SVGID_13_)" points="16.397,33.32 16.7,33.017 20.37,33.017 20.672,33.32 16.397,33.32 16.397,33.32 	"/>
	<polygon fill="#FFFFFF" points="5.923,24.576 6.225,24.879 9.922,24.879 10.047,24.576 5.923,24.576 5.923,24.576 	"/>
	<linearGradient id="SVGID_15_" gradientUnits="userSpaceOnUse" x1="9.9219" y1="26.4155" x2="13.2979" y2="26.4155">
		<stop  offset="0" style="stop-color:#EDEDED"/>
		<stop  offset="1" style="stop-color:#CCCCCC"/>
	</linearGradient>
	<polygon fill="url(#SVGID_15_)" points="10.047,24.576 9.922,24.879 13.298,28.255 13.298,27.827 10.047,24.576 10.047,24.576 	"/>
	<linearGradient id="SVGID_17_" gradientUnits="userSpaceOnUse" x1="15.0303" y1="26.5229" x2="14.8162" y2="26.3089">
		<stop  offset="0" style="stop-color:#4D4D4D"/>
		<stop  offset="1" style="stop-color:#000000"/>
	</linearGradient>
	<polygon fill="url(#SVGID_17_)" points="13.298,27.827 13.298,28.255 16.674,24.879 16.548,24.576 13.298,27.827 13.298,27.827 	
		"/>
	<polygon fill="#FFFFFF" points="20.672,24.576 20.37,24.879 16.674,24.879 16.548,24.576 20.672,24.576 20.672,24.576 	"/>
	<linearGradient id="SVGID_19_" gradientUnits="userSpaceOnUse" x1="20.5215" y1="24.5762" x2="20.5215" y2="33.3198">
		<stop  offset="0" style="stop-color:#EDEDED"/>
		<stop  offset="1" style="stop-color:#D9D9D9"/>
	</linearGradient>
	<polygon fill="url(#SVGID_19_)" points="20.672,24.576 20.37,24.879 20.37,33.017 20.672,33.32 20.672,24.576 20.672,24.576 	"/>
	<polygon points="16.397,33.32 16.7,33.017 16.7,28.583 16.397,29.314 16.397,33.32 16.397,33.32 	"/>
	<linearGradient id="SVGID_20_" gradientUnits="userSpaceOnUse" x1="15.1064" y1="30.6055" x2="14.8924" y2="30.3914">
		<stop  offset="0" style="stop-color:#000000"/>
		<stop  offset="1" style="stop-color:#4D4D4D"/>
	</linearGradient>
	<polygon fill="url(#SVGID_20_)" points="13.298,32.414 13.298,31.985 16.7,28.583 16.397,29.314 13.298,32.414 13.298,32.414 	"/>
	<linearGradient id="SVGID_22_" gradientUnits="userSpaceOnUse" x1="11.4883" y1="30.6055" x2="11.703" y2="30.3907">
		<stop  offset="0" style="stop-color:#000000"/>
		<stop  offset="1" style="stop-color:#4D4D4D"/>
	</linearGradient>
	<polygon fill="url(#SVGID_22_)" points="13.298,32.414 13.298,31.985 9.895,28.583 10.197,29.314 13.298,32.414 13.298,32.414 	"/>
	<linearGradient id="SVGID_24_" gradientUnits="userSpaceOnUse" x1="10.0459" y1="28.583" x2="10.0459" y2="33.3198">
		<stop  offset="0" style="stop-color:#000000"/>
		<stop  offset="1" style="stop-color:#EDEDED"/>
	</linearGradient>
	<polygon fill="url(#SVGID_24_)" points="10.197,33.32 9.895,33.017 9.895,28.583 10.197,29.314 10.197,33.32 10.197,33.32 	"/>
	<linearGradient id="SVGID_26_" gradientUnits="userSpaceOnUse" x1="8.0605" y1="33.3198" x2="8.0605" y2="33.0171">
		<stop  offset="0" style="stop-color:#000000"/>
		<stop  offset="1" style="stop-color:#4D4D4D"/>
	</linearGradient>
	<polygon fill="url(#SVGID_26_)" points="10.197,33.32 9.895,33.017 6.225,33.017 5.923,33.32 10.197,33.32 10.197,33.32 	"/>
	<linearGradient id="SVGID_28_" gradientUnits="userSpaceOnUse" x1="5.9229" y1="28.9478" x2="6.2246" y2="28.9478">
		<stop  offset="0" style="stop-color:#000000"/>
		<stop  offset="1" style="stop-color:#4D4D4D"/>
	</linearGradient>
	<polygon fill="url(#SVGID_28_)" points="5.923,24.576 6.225,24.879 6.225,33.017 5.923,33.32 5.923,24.576 5.923,24.576 	"/>
	<g>
		<path fill-rule="evenodd" clip-rule="evenodd" fill="#B5B5B5" d="M32.876,24.326l6.011,9.237h-4.912l-0.668-1.034h-5.92
			l-0.669,1.034h-4.912l6.012-9.237H32.876L32.876,24.326L32.876,24.326z M31.74,30.084l-1.394-2.154l-1.395,2.154H31.74
			L31.74,30.084L31.74,30.084z"/>
		<linearGradient id="SVGID_29_" gradientUnits="userSpaceOnUse" x1="30.3467" y1="33.0195" x2="30.3467" y2="24.8696">
			<stop  offset="0" style="stop-color:#BFBFBF"/>
			<stop  offset="1" style="stop-color:#E6E6E6"/>
		</linearGradient>
		<path fill="url(#SVGID_29_)" d="M28.112,24.87l-5.304,8.15h3.613l0.668-1.034h6.513l0.669,1.034h3.613l-5.305-8.15H28.112
			L28.112,24.87L28.112,24.87z M30.347,26.929l2.391,3.694h-4.781L30.347,26.929L30.347,26.929L30.347,26.929z"/>
		<linearGradient id="SVGID_31_" gradientUnits="userSpaceOnUse" x1="30.3467" y1="28.7759" x2="27.9561" y2="28.7759">
			<stop  offset="0" style="stop-color:#000000"/>
			<stop  offset="1" style="stop-color:#EDEDED"/>
		</linearGradient>
		<polygon fill="url(#SVGID_31_)" points="30.347,26.929 30.347,27.486 28.513,30.321 27.956,30.623 30.347,26.929 30.347,26.929 		
			"/>
		<linearGradient id="SVGID_32_" gradientUnits="userSpaceOnUse" x1="25.0938" y1="28.9419" x2="25.3558" y2="29.1121">
			<stop  offset="0" style="stop-color:#000000"/>
			<stop  offset="1" style="stop-color:#4D4D4D"/>
		</linearGradient>
		<polygon fill="url(#SVGID_32_)" points="27.948,24.567 28.112,24.87 22.809,33.02 22.25,33.322 27.948,24.567 27.948,24.567 		"/>
		<linearGradient id="SVGID_34_" gradientUnits="userSpaceOnUse" x1="27.9561" y1="30.4722" x2="32.7373" y2="30.4722">
			<stop  offset="0" style="stop-color:#EDEDED"/>
			<stop  offset="1" style="stop-color:#D9D9D9"/>
		</linearGradient>
		<polygon fill="url(#SVGID_34_)" points="32.737,30.623 32.181,30.321 28.513,30.321 27.956,30.623 32.737,30.623 32.737,30.623 		
			"/>
		<linearGradient id="SVGID_35_" gradientUnits="userSpaceOnUse" x1="30.3467" y1="28.7759" x2="32.7373" y2="28.7759">
			<stop  offset="0" style="stop-color:#000000"/>
			<stop  offset="1" style="stop-color:#4D4D4D"/>
		</linearGradient>
		<polygon fill="url(#SVGID_35_)" points="32.737,30.623 32.181,30.321 30.347,27.486 30.347,26.929 32.737,30.623 32.737,30.623 		
			"/>
		<linearGradient id="SVGID_37_" gradientUnits="userSpaceOnUse" x1="24.418" y1="33.3223" x2="24.418" y2="33.0195">
			<stop  offset="0" style="stop-color:#000000"/>
			<stop  offset="1" style="stop-color:#4D4D4D"/>
		</linearGradient>
		<polygon fill="url(#SVGID_37_)" points="26.587,33.322 26.422,33.02 22.809,33.02 22.25,33.322 26.587,33.322 26.587,33.322 		"/>
		<linearGradient id="SVGID_38_" gradientUnits="userSpaceOnUse" x1="26.709" y1="32.5698" x2="26.9662" y2="32.7368">
			<stop  offset="0" style="stop-color:#4D4D4D"/>
			<stop  offset="1" style="stop-color:#000000"/>
		</linearGradient>
		<polygon fill="url(#SVGID_38_)" points="26.587,33.322 26.422,33.02 27.09,31.985 27.255,32.289 26.587,33.322 26.587,33.322 		
			"/>
		<linearGradient id="SVGID_39_" gradientUnits="userSpaceOnUse" x1="30.3457" y1="32.2886" x2="30.3457" y2="31.9854">
			<stop  offset="0" style="stop-color:#000000"/>
			<stop  offset="1" style="stop-color:#4D4D4D"/>
		</linearGradient>
		<polygon fill="url(#SVGID_39_)" points="33.438,32.289 33.603,31.985 27.09,31.985 27.255,32.289 33.438,32.289 33.438,32.289 		
			"/>
		<linearGradient id="SVGID_40_" gradientUnits="userSpaceOnUse" x1="33.7266" y1="32.7363" x2="33.9829" y2="32.5699">
			<stop  offset="0" style="stop-color:#000000"/>
			<stop  offset="1" style="stop-color:#4D4D4D"/>
		</linearGradient>
		<polygon fill="url(#SVGID_40_)" points="33.438,32.289 33.603,31.985 34.271,33.02 34.106,33.322 33.438,32.289 33.438,32.289 		
			"/>
		<linearGradient id="SVGID_41_" gradientUnits="userSpaceOnUse" x1="36.2754" y1="33.3223" x2="36.2754" y2="33.0195">
			<stop  offset="0" style="stop-color:#000000"/>
			<stop  offset="1" style="stop-color:#4D4D4D"/>
		</linearGradient>
		<polygon fill="url(#SVGID_41_)" points="38.443,33.322 37.885,33.02 34.271,33.02 34.106,33.322 38.443,33.322 38.443,33.322 		
			"/>
		<linearGradient id="SVGID_42_" gradientUnits="userSpaceOnUse" x1="32.5801" y1="28.9448" x2="38.4434" y2="28.9448">
			<stop  offset="0" style="stop-color:#EDEDED"/>
			<stop  offset="1" style="stop-color:#D9D9D9"/>
		</linearGradient>
		<polygon fill="url(#SVGID_42_)" points="38.443,33.322 37.885,33.02 32.58,24.87 32.745,24.567 38.443,33.322 38.443,33.322 		"/>
		<polygon fill="#FFFFFF" points="27.948,24.567 28.112,24.87 32.58,24.87 32.745,24.567 27.948,24.567 27.948,24.567 		"/>
	</g>
	<g>
		<polygon fill="#B5B5B5" points="50.146,24.333 54.907,24.333 54.907,33.563 50.146,33.563 44.506,29.388 44.506,33.563 
			39.744,33.563 39.744,24.333 44.469,24.333 50.146,28.545 50.146,24.333 50.146,24.333 		"/>
		<linearGradient id="SVGID_43_" gradientUnits="userSpaceOnUse" x1="54.3623" y1="28.9478" x2="40.29" y2="28.9478">
			<stop  offset="0" style="stop-color:#666666"/>
			<stop  offset="1" style="stop-color:#E6E6E6"/>
		</linearGradient>
		<polygon fill="url(#SVGID_43_)" points="50.692,24.879 50.692,29.63 44.289,24.879 40.29,24.879 40.29,33.017 43.96,33.017 
			43.96,28.304 50.326,33.017 54.362,33.017 54.362,24.879 50.692,24.879 50.692,24.879 		"/>
		<linearGradient id="SVGID_44_" gradientUnits="userSpaceOnUse" x1="39.9883" y1="28.9478" x2="40.29" y2="28.9478">
			<stop  offset="0" style="stop-color:#000000"/>
			<stop  offset="1" style="stop-color:#4D4D4D"/>
		</linearGradient>
		<polygon fill="url(#SVGID_44_)" points="39.988,24.576 40.29,24.879 40.29,33.017 39.988,33.32 39.988,24.576 39.988,24.576 		"/>
		<polygon fill="#FFFFFF" points="39.988,24.576 40.29,24.879 44.289,24.879 44.389,24.576 39.988,24.576 39.988,24.576 		"/>
		<linearGradient id="SVGID_45_" gradientUnits="userSpaceOnUse" x1="44.2891" y1="27.103" x2="50.6924" y2="27.103">
			<stop  offset="0" style="stop-color:#EDEDED"/>
			<stop  offset="1" style="stop-color:#BFBFBF"/>
		</linearGradient>
		<polygon fill="url(#SVGID_45_)" points="50.39,29.027 50.692,29.63 44.289,24.879 44.389,24.576 50.39,29.027 50.39,29.027 		"/>
		<linearGradient id="SVGID_46_" gradientUnits="userSpaceOnUse" x1="50.3896" y1="27.103" x2="50.6924" y2="27.103">
			<stop  offset="0" style="stop-color:#000000"/>
			<stop  offset="1" style="stop-color:#4D4D4D"/>
		</linearGradient>
		<polygon fill="url(#SVGID_46_)" points="50.39,29.027 50.692,29.63 50.692,24.879 50.39,24.576 50.39,29.027 50.39,29.027 		"/>
		<polygon fill="#FFFFFF" points="54.665,24.576 54.362,24.879 50.692,24.879 50.39,24.576 54.665,24.576 54.665,24.576 		"/>
		<linearGradient id="SVGID_47_" gradientUnits="userSpaceOnUse" x1="54.3623" y1="28.9478" x2="54.665" y2="28.9478">
			<stop  offset="0" style="stop-color:#EDEDED"/>
			<stop  offset="1" style="stop-color:#D9D9D9"/>
		</linearGradient>
		<polygon fill="url(#SVGID_47_)" points="54.665,24.576 54.362,24.879 54.362,33.017 54.665,33.32 54.665,24.576 54.665,24.576 		
			"/>
		<linearGradient id="SVGID_48_" gradientUnits="userSpaceOnUse" x1="52.4453" y1="33.3198" x2="52.4453" y2="33.0171">
			<stop  offset="0" style="stop-color:#000000"/>
			<stop  offset="1" style="stop-color:#4D4D4D"/>
		</linearGradient>
		<polygon fill="url(#SVGID_48_)" points="50.226,33.32 50.326,33.017 54.362,33.017 54.665,33.32 50.226,33.32 50.226,33.32 		"/>
		<linearGradient id="SVGID_49_" gradientUnits="userSpaceOnUse" x1="47.0029" y1="30.9355" x2="47.1845" y2="30.6902">
			<stop  offset="0" style="stop-color:#000000"/>
			<stop  offset="1" style="stop-color:#4D4D4D"/>
		</linearGradient>
		<polygon fill="url(#SVGID_49_)" points="50.226,33.32 50.326,33.017 43.96,28.304 44.264,28.905 50.226,33.32 50.226,33.32 		"/>
		<linearGradient id="SVGID_50_" gradientUnits="userSpaceOnUse" x1="44.1113" y1="28.3037" x2="44.1113" y2="33.3198">
			<stop  offset="0" style="stop-color:#000000"/>
			<stop  offset="1" style="stop-color:#EDEDED"/>
		</linearGradient>
		<polygon fill="url(#SVGID_50_)" points="44.264,33.32 43.96,33.017 43.96,28.304 44.264,28.905 44.264,33.32 44.264,33.32 		"/>
		<linearGradient id="SVGID_51_" gradientUnits="userSpaceOnUse" x1="42.126" y1="33.3198" x2="42.126" y2="33.0171">
			<stop  offset="0" style="stop-color:#000000"/>
			<stop  offset="1" style="stop-color:#4D4D4D"/>
		</linearGradient>
		<polygon fill="url(#SVGID_51_)" points="44.264,33.32 43.96,33.017 40.29,33.017 39.988,33.32 44.264,33.32 44.264,33.32 		"/>
	</g>
</g>
</svg>
