<?xml version="1.0" encoding="utf-8"?>
<!-- Generator: Adobe Illustrator 16.0.0, SVG Export Plug-In . SVG Version: 6.00 Build 0)  -->
<!DOCTYPE svg PUBLIC "-//W3C//DTD SVG 1.1//EN" "http://www.w3.org/Graphics/SVG/1.1/DTD/svg11.dtd">
<svg version="1.1" xmlns="http://www.w3.org/2000/svg" xmlns:xlink="http://www.w3.org/1999/xlink" x="0px" y="0px"
	 width="108.374px" height="24.468px" viewBox="0 0 108.374 24.468" enable-background="new 0 0 108.374 24.468"
	 xml:space="preserve">
<g>
	<g>
		<linearGradient id="SVGID_2_" gradientUnits="userSpaceOnUse" x1="54.252" y1="58.502" x2="-11.168" y2="-6.9178">
			<stop  offset="0" style="stop-color:#0A71B3"/>
			<stop  offset="1" style="stop-color:#009DDF"/>
		</linearGradient>
		<path fill="url(#SVGID_2_)" d="M0,0.278h3.687c3.777,0,5.32,0.634,5.32,4.542c0,2.186-0.539,4.466-3.616,4.466H3.441v5.926H0
			V0.278 M3.441,6.631h0.855c1.111,0,1.277-0.541,1.277-1.888c0-1.812-0.581-1.812-1.737-1.812H3.441V6.631z"/>
		<linearGradient id="SVGID_4_" gradientUnits="userSpaceOnUse" x1="58.6006" y1="54.1411" x2="-6.811" y2="-11.2703">
			<stop  offset="0" style="stop-color:#0A71B3"/>
			<stop  offset="1" style="stop-color:#009DDF"/>
		</linearGradient>
		<path fill="url(#SVGID_4_)" d="M11.311,0.278h4.559l2.807,14.934h-3.608l-0.318-2.655h-2.416l-0.353,2.655H8.539L11.311,0.278
			 M12.693,9.903h1.722l-0.803-7.309h-0.045L12.693,9.903z"/>
		<linearGradient id="SVGID_6_" gradientUnits="userSpaceOnUse" x1="64.7559" y1="47.9897" x2="-0.6595" y2="-17.4254">
			<stop  offset="0" style="stop-color:#0A71B3"/>
			<stop  offset="1" style="stop-color:#009DDF"/>
		</linearGradient>
		<polyline fill="url(#SVGID_6_)" points="19.566,0.278 23.325,0.278 26.088,9.08 26.131,9.08 26.131,0.278 29.456,0.278 
			29.456,15.212 25.717,15.212 22.938,5.98 22.893,5.98 22.893,15.212 19.566,15.212 19.566,0.278 		"/>
		<linearGradient id="SVGID_8_" gradientUnits="userSpaceOnUse" x1="69.5068" y1="43.2378" x2="4.0934" y2="-22.1755">
			<stop  offset="0" style="stop-color:#0A71B3"/>
			<stop  offset="1" style="stop-color:#009DDF"/>
		</linearGradient>
		<path fill="url(#SVGID_8_)" d="M33.117,0.278h4.562l2.806,14.934h-3.608l-0.317-2.655h-2.417l-0.354,2.655h-3.439L33.117,0.278
			 M34.504,9.903h1.72l-0.802-7.309h-0.045L34.504,9.903z"/>
		<linearGradient id="SVGID_10_" gradientUnits="userSpaceOnUse" x1="74.0518" y1="38.6992" x2="8.6309" y2="-26.7214">
			<stop  offset="0" style="stop-color:#0A71B3"/>
			<stop  offset="1" style="stop-color:#009DDF"/>
		</linearGradient>
		<polyline fill="url(#SVGID_10_)" points="41.377,0.278 44.817,0.278 44.817,12.333 48.558,12.333 48.558,15.212 41.377,15.212 
			41.377,0.278 		"/>
		<linearGradient id="SVGID_12_" gradientUnits="userSpaceOnUse" x1="78.9922" y1="33.7559" x2="13.5756" y2="-31.6605">
			<stop  offset="0" style="stop-color:#0A71B3"/>
			<stop  offset="1" style="stop-color:#009DDF"/>
		</linearGradient>
		<path fill="url(#SVGID_12_)" d="M49.483,0.278h3.688c3.776,0,5.328,0.634,5.328,4.542c0,2.186-0.547,4.466-3.636,4.466h-1.94
			v5.926h-3.44V0.278 M52.924,6.631h0.864c1.105,0,1.271-0.541,1.271-1.888c0-1.812-0.582-1.812-1.737-1.812h-0.398V6.631z"/>
		<linearGradient id="SVGID_13_" gradientUnits="userSpaceOnUse" x1="83.0762" y1="29.6729" x2="17.6581" y2="-35.745">
			<stop  offset="0" style="stop-color:#0A71B3"/>
			<stop  offset="1" style="stop-color:#009DDF"/>
		</linearGradient>
		<rect x="59.428" y="0.278" fill="url(#SVGID_13_)" width="3.44" height="14.934"/>
		<linearGradient id="SVGID_15_" gradientUnits="userSpaceOnUse" x1="87.2285" y1="25.52" x2="21.8098" y2="-39.8985">
			<stop  offset="0" style="stop-color:#0A71B3"/>
			<stop  offset="1" style="stop-color:#009DDF"/>
		</linearGradient>
		<polyline fill="url(#SVGID_15_)" points="64.51,0.278 68.267,0.278 71.036,9.08 71.073,9.08 71.073,0.278 74.398,0.278 
			74.398,15.212 70.657,15.212 67.878,5.98 67.835,5.98 67.835,15.212 64.51,15.212 64.51,0.278 		"/>
		<linearGradient id="SVGID_17_" gradientUnits="userSpaceOnUse" x1="91.9814" y1="20.7661" x2="26.5683" y2="-44.6468">
			<stop  offset="0" style="stop-color:#0A71B3"/>
			<stop  offset="1" style="stop-color:#009DDF"/>
		</linearGradient>
		<path fill="url(#SVGID_17_)" d="M78.06,0.278h4.562l2.805,14.934h-3.608L81.5,12.558h-2.407l-0.361,2.655h-3.433L78.06,0.278
			 M79.444,9.903h1.721l-0.803-7.309h-0.043L79.444,9.903z"/>
		<linearGradient id="SVGID_19_" gradientUnits="userSpaceOnUse" x1="99.3662" y1="13.3813" x2="33.9556" y2="-52.029">
			<stop  offset="0" style="stop-color:#0A71B3"/>
			<stop  offset="1" style="stop-color:#009DDF"/>
		</linearGradient>
		<path fill="url(#SVGID_19_)" d="M98.643,15.403c1.518,0,2.743-1.229,2.743-2.747c0-1.513-1.226-2.744-2.743-2.744
			s-2.743,1.23-2.743,2.744C95.899,14.174,97.125,15.403,98.643,15.403"/>
		<linearGradient id="SVGID_20_" gradientUnits="userSpaceOnUse" x1="103.8096" y1="8.9375" x2="38.3949" y2="-56.477">
			<stop  offset="0" style="stop-color:#0A71B3"/>
			<stop  offset="1" style="stop-color:#009DDF"/>
		</linearGradient>
		<path fill="url(#SVGID_20_)" d="M93.738,5.465c0.157,0.109,4.064,2.94,4.064,2.94s2.374,1.725,3.434,2.166
			c1.226,0.511,3.114,0.582,4.773-0.429c1.341-0.82,2.364-2.542,2.364-4.513c-0.009-3.751-2.875-5.363-5.286-5.367h-4.507
			c0,0,0.024-0.269-0.159-0.263c-0.176,0.007-0.166,0.263-0.166,0.263S98.052,0.28,97.77,0.507
			c-0.282,0.229-2.268,1.977-2.268,1.977s-0.019-0.622-0.185-0.777c-0.187-0.181-0.53-0.3-0.891-0.177
			c-0.336,0.114-0.575,0.366-0.557,0.831c0.017,0.553,0.529,0.63,0.361,0.839c-0.15,0.173-0.804-0.12-0.804-0.688V1.503
			c0,0-0.114-1.24-1.313-1.24h-5.619c0,0,0.882,1.366,1.826,1.333c0.132,0.382,0.491,1.271,1.658,1.271
			c0.396,0.647,0.536,1.241,1.939,1.241h1.042c0,0,0.132-0.007,0.017,0.097l-1.278,1.067c0,0-1.112,0.76-0.16,1.634l4.467,4.064
			c0,0,0.096,0.168,0.245-0.051c0.134-0.185,0.494-0.527,0.768-0.708c0.248-0.164,0-0.104,0-0.104s-0.477,0.076-0.723,0.148
			c-0.159,0.047-0.221,0.05-0.477-0.282c-0.265-0.332-2.912-3.641-2.912-3.641s-0.106-0.099,0.105-0.276L93.738,5.465 M97.831,1.198
			c0.114-0.114,0.124-0.114,0.282-0.114c0.143,0,0.143,0.159,0.143,0.159s0,1.608,0,1.914c0,0.114-0.435,0.358-0.435,0.358
			l-2.046-0.14L97.831,1.198z M95.404,4.117c0,0,2.417,0.005,2.639,0.005c0.213,0,0.213,0.113,0.213,0.113v0.223
			c0,0,0,0.209,0.147,0.209c0.178,0,0.168-0.208,0.168-0.208c0-0.001,0-0.001,0-0.001v0.001c0.01,0,0.195,0.007,2.4,0.007
			c2.522,0,3.007,1.27,3.007,1.27s0.019,0.122,0,0.247c-0.263,1.994-1.859,2.531-2.688,2.523c-0.954-0.01-2.152-0.83-2.152-0.83
			s-4.184-2.938-4.351-3.052L95.404,4.117z M93.905,5.336l0.724-0.582l3.696,2.588l-0.019,1.166L93.905,5.336z M101.615,9.988
			c-1.358-0.002-3.098-1.354-3.098-1.354V7.469l0.485,0.339c0,0,1.254,0.903,2.25,0.907c1.413,0.004,2.701-0.94,2.921-2.676
			c0.159,0.315,0.221,0.804,0.212,1.153C104.376,7.5,104.209,9.994,101.615,9.988z"/>
	</g>
	<g>
		<linearGradient id="SVGID_22_" gradientUnits="userSpaceOnUse" x1="46.6094" y1="66.1284" x2="-18.7986" y2="0.7207">
			<stop  offset="0" style="stop-color:#0A71B3"/>
			<stop  offset="1" style="stop-color:#009DDF"/>
		</linearGradient>
		<path fill="url(#SVGID_22_)" d="M2.265,24.115C1.073,24.115,0,23.382,0,21.784s1.073-2.331,2.265-2.331
			c1.19,0,2.264,0.732,2.264,2.331S3.455,24.115,2.265,24.115z M2.265,20.435c-0.899,0-1.066,0.783-1.066,1.349
			s0.167,1.349,1.066,1.349c0.898,0,1.065-0.783,1.065-1.349S3.163,20.435,2.265,20.435z"/>
		<linearGradient id="SVGID_24_" gradientUnits="userSpaceOnUse" x1="50.6445" y1="62.1016" x2="-14.7701" y2="-3.3128">
			<stop  offset="0" style="stop-color:#0A71B3"/>
			<stop  offset="1" style="stop-color:#009DDF"/>
		</linearGradient>
		<path fill="url(#SVGID_24_)" d="M12.679,23.998h-1.165v-2.689c0-0.325-0.017-0.875-0.758-0.875c-0.516,0-0.916,0.35-0.916,1.024
			v2.539H8.675v-4.429H9.79v0.649h0.017c0.158-0.267,0.491-0.766,1.332-0.766c0.865,0,1.54,0.507,1.54,1.481V23.998z"/>
		<path fill="#E30E6F" d="M25.25,19.897c-0.033-0.333-0.25-0.566-0.683-0.566c-0.758,0-0.933,0.866-0.975,1.631l0.017,0.017
			c0.159-0.216,0.45-0.491,1.107-0.491c1.224,0,1.807,0.941,1.807,1.823c0,1.291-0.791,2.156-1.932,2.156
			c-1.789,0-2.139-1.499-2.139-2.972c0-1.124,0.149-3.096,2.197-3.096c0.241,0,0.916,0.091,1.207,0.382
			c0.325,0.316,0.441,0.491,0.55,1.116H25.25z M24.509,21.421c-0.441,0-0.891,0.274-0.891,1.015c0,0.641,0.366,1.099,0.924,1.099
			c0.425,0,0.815-0.325,0.815-1.124C25.357,21.662,24.875,21.421,24.509,21.421z"/>
		<linearGradient id="SVGID_26_" gradientUnits="userSpaceOnUse" x1="64.5605" y1="48.1841" x2="-0.8527" y2="-17.229">
			<stop  offset="0" style="stop-color:#0A71B3"/>
			<stop  offset="1" style="stop-color:#009DDF"/>
		</linearGradient>
		<path fill="url(#SVGID_26_)" d="M40.151,22.383c-0.041,0.458-0.399,1.731-2.022,1.731c-1.665,0-2.048-1.274-2.048-2.206
			c0-1.432,0.624-2.456,2.122-2.456c0.7,0,1.849,0.316,1.957,1.698h-1.183c-0.05-0.283-0.216-0.716-0.716-0.716h-0.059
			c-0.731,0-0.923,0.733-0.923,1.283c0,0.482,0.017,1.439,0.898,1.439c0.591,0,0.791-0.565,0.791-0.773H40.151z"/>
		<linearGradient id="SVGID_28_" gradientUnits="userSpaceOnUse" x1="68.6299" y1="44.1094" x2="3.227" y2="-21.2933">
			<stop  offset="0" style="stop-color:#0A71B3"/>
			<stop  offset="1" style="stop-color:#009DDF"/>
		</linearGradient>
		<path fill="url(#SVGID_28_)" d="M46.305,24.115c-1.191,0-2.265-0.733-2.265-2.331s1.073-2.331,2.265-2.331
			c1.19,0,2.264,0.732,2.264,2.331S47.495,24.115,46.305,24.115z M46.305,20.435c-0.899,0-1.065,0.783-1.065,1.349
			s0.166,1.349,1.065,1.349c0.898,0,1.065-0.783,1.065-1.349S47.203,20.435,46.305,20.435z"/>
		<linearGradient id="SVGID_29_" gradientUnits="userSpaceOnUse" x1="72.665" y1="40.0835" x2="7.2471" y2="-25.3343">
			<stop  offset="0" style="stop-color:#0A71B3"/>
			<stop  offset="1" style="stop-color:#009DDF"/>
		</linearGradient>
		<path fill="url(#SVGID_29_)" d="M56.719,23.998h-1.165v-2.689c0-0.325-0.018-0.875-0.758-0.875c-0.517,0-0.916,0.35-0.916,1.024
			v2.539h-1.166v-4.429h1.116v0.649h0.017c0.158-0.267,0.491-0.766,1.332-0.766c0.865,0,1.54,0.507,1.54,1.481V23.998z"/>
		<linearGradient id="SVGID_31_" gradientUnits="userSpaceOnUse" x1="76.8193" y1="35.9326" x2="11.3911" y2="-29.4954">
			<stop  offset="0" style="stop-color:#0A71B3"/>
			<stop  offset="1" style="stop-color:#009DDF"/>
		</linearGradient>
		<path fill="url(#SVGID_31_)" d="M62.438,19.569h0.724v0.833h-0.724v2.405c0,0.259,0.008,0.358,0.482,0.358
			c0.075,0,0.158-0.009,0.241-0.017v0.882c-0.183,0.009-0.366,0.017-0.549,0.017h-0.149c-1.008,0-1.191-0.383-1.191-0.957v-2.689
			h-0.6v-0.833h0.6V18.37h1.166V19.569z"/>
		<linearGradient id="SVGID_32_" gradientUnits="userSpaceOnUse" x1="79.8086" y1="32.939" x2="14.3935" y2="-32.476">
			<stop  offset="0" style="stop-color:#0A71B3"/>
			<stop  offset="1" style="stop-color:#009DDF"/>
		</linearGradient>
		<path fill="url(#SVGID_32_)" d="M68.433,19.045h-1.166v-1.082h1.166V19.045z M68.433,19.569v4.429h-1.166v-4.429H68.433z"/>
		<linearGradient id="SVGID_34_" gradientUnits="userSpaceOnUse" x1="82.7471" y1="30.0015" x2="17.3257" y2="-35.4197">
			<stop  offset="0" style="stop-color:#0A71B3"/>
			<stop  offset="1" style="stop-color:#009DDF"/>
		</linearGradient>
		<path fill="url(#SVGID_34_)" d="M76.882,23.998h-1.165v-2.689c0-0.325-0.017-0.875-0.758-0.875c-0.517,0-0.916,0.35-0.916,1.024
			v2.539h-1.165v-4.429h1.115v0.649h0.017c0.158-0.267,0.491-0.766,1.332-0.766c0.866,0,1.54,0.507,1.54,1.481V23.998z"/>
		<linearGradient id="SVGID_35_" gradientUnits="userSpaceOnUse" x1="87.0039" y1="25.7437" x2="21.5862" y2="-39.6739">
			<stop  offset="0" style="stop-color:#0A71B3"/>
			<stop  offset="1" style="stop-color:#009DDF"/>
		</linearGradient>
		<path fill="url(#SVGID_35_)" d="M85.099,22.699c-0.308,1.066-1.19,1.416-1.947,1.416c-1.249,0-2.206-0.6-2.206-2.422
			c0-0.533,0.183-2.239,2.123-2.239c0.873,0,2.08,0.416,2.08,2.439V22.1H82.11c0.033,0.333,0.1,1.082,1.041,1.082
			c0.324,0,0.657-0.167,0.749-0.483H85.099z M83.95,21.342c-0.066-0.716-0.524-0.933-0.899-0.933c-0.549,0-0.841,0.35-0.907,0.933
			H83.95z"/>
		<linearGradient id="SVGID_37_" gradientUnits="userSpaceOnUse" x1="90.9336" y1="21.8125" x2="25.519" y2="-43.6019">
			<stop  offset="0" style="stop-color:#0A71B3"/>
			<stop  offset="1" style="stop-color:#009DDF"/>
		</linearGradient>
		<path fill="url(#SVGID_37_)" d="M93.257,23.998h-1.165v-2.689c0-0.325-0.017-0.875-0.758-0.875c-0.516,0-0.915,0.35-0.915,1.024
			v2.539h-1.166v-4.429h1.116v0.649h0.017c0.158-0.267,0.491-0.766,1.331-0.766c0.866,0,1.54,0.507,1.54,1.481V23.998z"/>
		<linearGradient id="SVGID_38_" gradientUnits="userSpaceOnUse" x1="95.0869" y1="17.6616" x2="29.6744" y2="-47.7506">
			<stop  offset="0" style="stop-color:#0A71B3"/>
			<stop  offset="1" style="stop-color:#009DDF"/>
		</linearGradient>
		<path fill="url(#SVGID_38_)" d="M98.978,19.569h0.724v0.833h-0.724v2.405c0,0.259,0.008,0.358,0.482,0.358
			c0.075,0,0.158-0.009,0.241-0.017v0.882c-0.183,0.009-0.366,0.017-0.55,0.017h-0.149c-1.008,0-1.19-0.383-1.19-0.957v-2.689h-0.6
			v-0.833h0.6V18.37h1.166V19.569z"/>
		<linearGradient id="SVGID_39_" gradientUnits="userSpaceOnUse" x1="98.2197" y1="14.5254" x2="32.7891" y2="-50.905">
			<stop  offset="0" style="stop-color:#0A71B3"/>
			<stop  offset="1" style="stop-color:#009DDF"/>
		</linearGradient>
		<path fill="url(#SVGID_39_)" d="M106.278,20.918c-0.05-0.283-0.15-0.583-0.783-0.583c-0.632,0-0.716,0.241-0.716,0.433
			c0,0.699,2.772,0.192,2.772,1.823c0,1.29-1.249,1.523-1.939,1.523c-1.008,0-2.099-0.35-2.131-1.532h1.198
			c0,0.374,0.233,0.649,0.966,0.649c0.6,0,0.74-0.292,0.74-0.458c0-0.741-2.747-0.183-2.747-1.839c0-0.65,0.408-1.481,1.79-1.481
			c0.866,0,1.898,0.216,1.99,1.465H106.278z"/>
	</g>
</g>
</svg>
