<?xml version="1.0" encoding="utf-8"?>
<!-- Generator: Adobe Illustrator 16.0.0, SVG Export Plug-In . SVG Version: 6.00 Build 0)  -->
<!DOCTYPE svg PUBLIC "-//W3C//DTD SVG 1.1//EN" "http://www.w3.org/Graphics/SVG/1.1/DTD/svg11.dtd">
<svg version="1.1" xmlns="http://www.w3.org/2000/svg" xmlns:xlink="http://www.w3.org/1999/xlink" x="0px" y="0px"
	 width="108.172px" height="20.984px" viewBox="0 0 108.172 20.984" enable-background="new 0 0 108.172 20.984"
	 xml:space="preserve">
<g>
	<path fill-rule="evenodd" clip-rule="evenodd" fill="#CE1228" d="M0,20.984h35.121V0H0V20.984L0,20.984z M6.585,5.794h8.078v0.003
		l10.18,0.01c1.714,0,3.104,1.391,3.104,3.104s-1.39,3.104-3.104,3.104h-0.885l4.753,3.525h-7.288l-4.029-3.525h-2.732v3.525H6.585
		V5.794L6.585,5.794z"/>
	<path fill-rule="evenodd" clip-rule="evenodd" fill="#CE1228" d="M20.368,8.753c0-0.822-0.667-1.49-1.49-1.49h-4.214v2.982
		l4.214-0.002C19.701,10.244,20.368,9.576,20.368,8.753L20.368,8.753z"/>
	<path fill-rule="evenodd" clip-rule="evenodd" fill="#F0B010" d="M36.526,20.984h35.121V0H36.526V20.984L36.526,20.984z
		 M43.726,5.807h21.512v1.844h-6.323v8.253h-8.867V7.651h-6.322V5.807L43.726,5.807z"/>
	<path fill-rule="evenodd" clip-rule="evenodd" fill="#224195" d="M73.051,0v20.984h35.121V0H73.051L73.051,0z M100.236,15.904
		H79.309V5.807h9.278v8.253h11.648V15.904L100.236,15.904z"/>
</g>
</svg>
