<?xml version="1.0" encoding="utf-8"?>
<!-- Generator: Adobe Illustrator 16.0.0, SVG Export Plug-In . SVG Version: 6.00 Build 0)  -->
<!DOCTYPE svg PUBLIC "-//W3C//DTD SVG 1.1//EN" "http://www.w3.org/Graphics/SVG/1.1/DTD/svg11.dtd">
<svg version="1.1" xmlns="http://www.w3.org/2000/svg" xmlns:xlink="http://www.w3.org/1999/xlink" x="0px" y="0px"
	 width="123.453px" height="19.41px" viewBox="0 0 123.453 19.41" enable-background="new 0 0 123.453 19.41" xml:space="preserve">
<g>
	<path fill-rule="evenodd" clip-rule="evenodd" fill="#00ABAD" d="M0.381,18.729v-3.696c2.113,0.662,3.983,0.994,5.611,0.994
		c2.245,0,3.366-0.591,3.366-1.771c0-0.44-0.163-0.809-0.488-1.109c-0.335-0.316-1.195-0.759-2.572-1.321
		C3.823,10.812,2.21,9.95,1.46,9.234C0.485,8.295,0,7.104,0,5.669C0,3.818,0.709,2.41,2.125,1.439C3.524,0.48,5.35,0,7.598,0
		c1.241,0,3.036,0.229,5.381,0.682v3.554c-1.747-0.693-3.366-1.04-4.865-1.04c-2.108,0-3.162,0.578-3.162,1.731
		c0,0.434,0.213,0.782,0.636,1.057c0.355,0.222,1.33,0.686,2.921,1.4c2.294,1.015,3.821,1.895,4.583,2.643
		c0.905,0.892,1.356,2.04,1.356,3.452c0,2.026-0.885,3.57-2.658,4.635c-1.434,0.865-3.296,1.297-5.58,1.297
		C4.281,19.41,2.337,19.184,0.381,18.729L0.381,18.729z M17.413,19.031V0.327h5.252v18.704H17.413L17.413,19.031z M27.483,19.031
		V0.327h13.469v3.382h-8.41v4.224h7.322v3.085h-7.322v4.441h8.627v3.572H27.483L27.483,19.031z M44.599,19.031V0.327h6.81
		l4.731,11.951l4.849-11.951h6.467v18.704h-4.979V5.788L56.961,19.22h-3.253l-5.41-13.432v13.243H44.599L44.599,19.031z
		 M72.272,19.031V0.327h13.469v3.382h-8.409v4.224h7.319v3.085h-7.319v4.441h8.626v3.572H72.272L72.272,19.031z M89.416,19.031
		V0.327h6.085l6.458,12.521V0.327h3.7v18.704h-5.916l-6.627-12.69v12.69H89.416L89.416,19.031z M109.385,18.729v-3.696
		c2.097,0.662,3.966,0.994,5.61,0.994c2.247,0,3.37-0.591,3.37-1.771c0-0.44-0.162-0.809-0.479-1.109
		c-0.333-0.316-1.196-0.759-2.583-1.321c-2.467-1.003-4.083-1.868-4.84-2.591c-0.972-0.933-1.46-2.125-1.46-3.581
		c0-1.84,0.71-3.243,2.126-4.214C112.529,0.48,114.355,0,116.605,0c1.267,0,2.904,0.202,4.916,0.603l0.464,0.079v3.554
		c-1.747-0.693-3.372-1.04-4.877-1.04c-2.102,0-3.148,0.578-3.148,1.731c0,0.434,0.209,0.782,0.634,1.057
		c0.337,0.21,1.317,0.679,2.935,1.4c2.277,1.015,3.803,1.895,4.57,2.643c0.902,0.892,1.354,2.04,1.354,3.452
		c0,2.026-0.88,3.57-2.644,4.635c-1.441,0.865-3.306,1.297-5.59,1.297C113.287,19.41,111.342,19.184,109.385,18.729L109.385,18.729z
		"/>
</g>
</svg>
