<?xml version="1.0" encoding="utf-8"?>
<!-- Generator: Adobe Illustrator 16.0.0, SVG Export Plug-In . SVG Version: 6.00 Build 0)  -->
<!DOCTYPE svg PUBLIC "-//W3C//DTD SVG 1.1//EN" "http://www.w3.org/Graphics/SVG/1.1/DTD/svg11.dtd">
<svg version="1.1" xmlns="http://www.w3.org/2000/svg" xmlns:xlink="http://www.w3.org/1999/xlink" x="0px" y="0px"
	 width="100.118px" height="46.61px" viewBox="0 0 100.118 46.61" enable-background="new 0 0 100.118 46.61" xml:space="preserve">
<g>
	<g>
		<polygon fill-rule="evenodd" clip-rule="evenodd" fill="#164193" points="0.992,31.336 0,35.63 3.355,35.63 0.969,45.849 
			5.851,45.849 8.359,35.63 14.964,35.63 16.104,31.336 		"/>
		<path fill-rule="evenodd" clip-rule="evenodd" fill="#164193" d="M10.715,36.588h4.128l-1.196,4.732c0,0-0.394,0.999,0.704,0.999
			c1.094,0,1.145-0.789,1.145-0.789l1.111-4.942h4.134l-1.447,6.733c0,0-0.843,3.289-5.899,3.289c0,0-4.992-0.144-4.035-4.291
			L10.715,36.588z"/>
		<polygon fill-rule="evenodd" clip-rule="evenodd" fill="#164193" points="16.956,35.688 20.998,35.688 22.79,45.821 27.43,45.821 
			34.66,31.354 29.437,31.354 25.987,39.67 25.238,31.373 17.892,31.373 		"/>
		<path fill-rule="evenodd" clip-rule="evenodd" fill="#164193" d="M34.379,45.845h4.545l1.471-6.24c0,0,0.214-1.043,0.214-1.528
			l2.119,7.745h4.522l3.757-14.448h-4.524l-1.423,5.775c0,0-0.277,1.199-0.277,1.78l-2.196-7.575h-4.547L34.379,45.845z"/>
		<path fill-rule="evenodd" clip-rule="evenodd" fill="#164193" d="M56.931,34.57c0,0-2.493-0.296-3.149,5.799
			c0,0-0.236,2.137,1.117,2.137c1.356,0,2.633-1.556,3.146-6.003C58.045,36.503,58.194,34.658,56.931,34.57z M57.722,31.143
			c4.688-0.068,4.641,4.545,4.641,4.545c-0.021,8.874-6.529,10.175-6.529,10.175s-6.895,1.679-6.343-5.259
			C50.284,30.656,57.722,31.143,57.722,31.143z"/>
		<path fill-rule="evenodd" clip-rule="evenodd" fill="#164193" d="M67.978,35.223l-0.51,2.153h0.745c0,0,1.349-0.017,1.443-1.25
			c0.085-1.039-0.812-0.928-0.812-0.928L67.978,35.223z M79.644,35.226l-1.749,6.764h0.859c0,0,1.957,0.211,2.731-5.007
			C81.485,36.982,81.832,35.226,79.644,35.226z M64.554,31.329h5.69c0.677,0,3.937,0.931,3.937,4.661
			c0,3.729-3.376,4.284-3.376,4.284c0.979,1.046,1.912,4.035,1.912,4.035l3.313-12.956h5.105c4.501,0.417,5.595,3.546,3.773,9.317
			c-1.82,5.772-7.412,5.174-7.412,5.174h-8.935c0,0-1.56-4.545-1.631-4.847c-0.067-0.303-0.325-0.282-0.325-0.282l-1.122,5.105
			h-4.613L64.554,31.329z"/>
	</g>
	<linearGradient id="SVGID_2_" gradientUnits="userSpaceOnUse" x1="72.0498" y1="29.397" x2="88.1791" y2="4.5601">
		<stop  offset="0" style="stop-color:#E8E9F5"/>
		<stop  offset="1" style="stop-color:#164193"/>
	</linearGradient>
	<path fill-rule="evenodd" clip-rule="evenodd" fill="url(#SVGID_2_)" d="M73.927,1.532c0,0-15.365-0.687-22.634,14.163
		c0,0-0.4,0.444-0.595,0.238c-0.202-0.211-0.122-0.486-0.122-0.486S57.005,0,73.927,0s26.542,14.683,26.182,26.583
		c0,0-0.082,9.233-6.428,16.619c0,0-0.196,0.401-0.479,0.116c-0.278-0.279,0-0.684,0-0.684s5.989-6.101,5.392-17.913
		C98.214,17.193,92.047,2.056,73.927,1.532z"/>
</g>
</svg>
