<?xml version="1.0" encoding="utf-8"?>
<!-- Generator: Adobe Illustrator 16.0.0, SVG Export Plug-In . SVG Version: 6.00 Build 0)  -->
<!DOCTYPE svg PUBLIC "-//W3C//DTD SVG 1.1//EN" "http://www.w3.org/Graphics/SVG/1.1/DTD/svg11.dtd">
<svg version="1.1" xmlns="http://www.w3.org/2000/svg" xmlns:xlink="http://www.w3.org/1999/xlink" x="0px" y="0px"
	 width="97.663px" height="26.906px" viewBox="0 0 97.663 26.906" enable-background="new 0 0 97.663 26.906" xml:space="preserve">
<g>
	<g>
		<radialGradient id="SVGID_2_" cx="84.21" cy="13.4531" r="13.4531" gradientUnits="userSpaceOnUse">
			<stop  offset="0.427" style="stop-color:#000000"/>
			<stop  offset="0.6237" style="stop-color:#020202"/>
			<stop  offset="0.7017" style="stop-color:#090909"/>
			<stop  offset="0.7586" style="stop-color:#151515"/>
			<stop  offset="0.8053" style="stop-color:#272727"/>
			<stop  offset="0.8457" style="stop-color:#3D3D3D"/>
			<stop  offset="0.8817" style="stop-color:#595959"/>
			<stop  offset="0.9146" style="stop-color:#7A7A7A"/>
			<stop  offset="0.9449" style="stop-color:#A1A1A1"/>
			<stop  offset="0.9725" style="stop-color:#CCCCCC"/>
			<stop  offset="0.9979" style="stop-color:#FBFBFB"/>
			<stop  offset="1" style="stop-color:#FFFFFF"/>
		</radialGradient>
		<circle fill="url(#SVGID_2_)" cx="84.21" cy="13.453" r="13.453"/>
		<circle fill="#666666" cx="84.141" cy="13.107" r="12.97"/>
		<radialGradient id="SVGID_4_" cx="72.8203" cy="0.6035" r="31.6574" gradientUnits="userSpaceOnUse">
			<stop  offset="0.0056" style="stop-color:#FFFFFF"/>
			<stop  offset="0.2026" style="stop-color:#F9F9F9"/>
			<stop  offset="0.4542" style="stop-color:#EAEAEA"/>
			<stop  offset="0.7341" style="stop-color:#D0D0D0"/>
			<stop  offset="1" style="stop-color:#B0B0B0"/>
		</radialGradient>
		<circle fill="url(#SVGID_4_)" cx="84.141" cy="13.107" r="12.832"/>
		<radialGradient id="SVGID_6_" cx="96.0967" cy="22.9688" r="33.1665" gradientUnits="userSpaceOnUse">
			<stop  offset="0.0056" style="stop-color:#FFFFFF"/>
			<stop  offset="0.1222" style="stop-color:#FBFBFB"/>
			<stop  offset="0.246" style="stop-color:#EEEEEE"/>
			<stop  offset="0.3732" style="stop-color:#D9D9D9"/>
			<stop  offset="0.5028" style="stop-color:#BBBBBB"/>
			<stop  offset="0.6344" style="stop-color:#949494"/>
			<stop  offset="0.7674" style="stop-color:#656565"/>
			<stop  offset="0.8991" style="stop-color:#2F2F2F"/>
			<stop  offset="1" style="stop-color:#000000"/>
		</radialGradient>
		<circle fill="url(#SVGID_6_)" cx="84.192" cy="13.086" r="12.21"/>
		<radialGradient id="SVGID_8_" cx="71.0146" cy="1.0742" r="33.8988" gradientUnits="userSpaceOnUse">
			<stop  offset="0.0056" style="stop-color:#FFFFFF"/>
			<stop  offset="0.1222" style="stop-color:#FBFBFB"/>
			<stop  offset="0.246" style="stop-color:#EEEEEE"/>
			<stop  offset="0.3732" style="stop-color:#D9D9D9"/>
			<stop  offset="0.5028" style="stop-color:#BBBBBB"/>
			<stop  offset="0.6344" style="stop-color:#949494"/>
			<stop  offset="0.7674" style="stop-color:#656565"/>
			<stop  offset="0.8991" style="stop-color:#2F2F2F"/>
			<stop  offset="1" style="stop-color:#000000"/>
		</radialGradient>
		<circle fill="url(#SVGID_8_)" cx="84.192" cy="13.086" r="12.072"/>
		
			<radialGradient id="SVGID_10_" cx="112.9395" cy="-1.042" r="23.4815" gradientTransform="matrix(0.9963 0.0865 -0.0865 0.9963 -35.222 -5.3362)" gradientUnits="userSpaceOnUse">
			<stop  offset="0.0955" style="stop-color:#618EAE"/>
			<stop  offset="0.163" style="stop-color:#5887A9"/>
			<stop  offset="0.2745" style="stop-color:#3F749B"/>
			<stop  offset="0.4156" style="stop-color:#165584"/>
			<stop  offset="0.4438" style="stop-color:#0D4E7F"/>
			<stop  offset="0.6685" style="stop-color:#00345F"/>
			<stop  offset="0.7688" style="stop-color:#00325C"/>
			<stop  offset="0.8439" style="stop-color:#002B52"/>
			<stop  offset="0.9108" style="stop-color:#001E42"/>
			<stop  offset="0.9725" style="stop-color:#000E2C"/>
			<stop  offset="1" style="stop-color:#00041F"/>
		</radialGradient>
		<circle fill="url(#SVGID_10_)" cx="84.209" cy="13.039" r="11.855"/>
		<g>
			<g>
				<path fill="#333333" d="M84.283,8.605c-2.523,0-4.57,2.047-4.57,4.57c0,2.525,2.047,4.571,4.57,4.571
					c2.524,0,4.571-2.046,4.571-4.571C88.854,10.652,86.808,8.605,84.283,8.605z M84.283,17.176c-2.208,0-3.999-1.791-3.999-4
					c0-2.208,1.791-3.999,3.999-3.999c2.209,0,4,1.791,4,3.999C88.283,15.385,86.492,17.176,84.283,17.176z"/>
				<g>
					<path fill="#333333" d="M81.712,12.891c-2.523,0-4.57,2.047-4.57,4.57c0,2.525,2.047,4.571,4.57,4.571
						c2.525,0,4.571-2.046,4.571-4.571C86.283,14.938,84.237,12.891,81.712,12.891z M81.712,21.461c-2.208,0-3.999-1.79-3.999-4
						c0-2.208,1.791-3.999,3.999-3.999c2.209,0,4,1.791,4,3.999C85.712,19.671,83.921,21.461,81.712,21.461z"/>
					<path fill="#333333" d="M86.854,12.891c-2.524,0-4.57,2.047-4.57,4.57c0,2.525,2.046,4.571,4.57,4.571s4.57-2.046,4.57-4.571
						C91.425,14.938,89.379,12.891,86.854,12.891z M86.854,21.461c-2.208,0-3.999-1.79-3.999-4c0-2.208,1.791-3.999,3.999-3.999
						c2.209,0,3.999,1.791,3.999,3.999C90.854,19.671,89.063,21.461,86.854,21.461z"/>
				</g>
			</g>
			<path fill="#333333" d="M84.283,5.595c3.464,0,6.542,5.606,8.488,14.29c0.131,0,0.26,0,0.39,0
				C91.341,9.444,88.047,2.47,84.283,2.47c-3.763,0-7.056,6.975-8.877,17.415c0.13,0,0.259,0,0.389,0
				C77.742,11.201,80.819,5.595,84.283,5.595z"/>
		</g>
		<g>
			<g>
				<path fill="#FFFFFF" d="M84.141,8.32c-2.524,0-4.57,2.046-4.57,4.57s2.046,4.57,4.57,4.57s4.571-2.046,4.571-4.57
					S86.665,8.32,84.141,8.32z M84.141,16.89c-2.209,0-3.999-1.79-3.999-3.999s1.79-3.999,3.999-3.999s3.999,1.79,3.999,3.999
					S86.35,16.89,84.141,16.89z"/>
				<g>
					<path fill="#FFFFFF" d="M81.569,12.605c-2.524,0-4.57,2.046-4.57,4.57s2.046,4.57,4.57,4.57c2.525,0,4.571-2.046,4.571-4.57
						S84.095,12.605,81.569,12.605z M81.569,21.176c-2.208,0-3.999-1.791-3.999-4s1.791-4,3.999-4c2.209,0,4,1.791,4,4
						S83.778,21.176,81.569,21.176z"/>
					<path fill="#FFFFFF" d="M86.712,12.605c-2.524,0-4.571,2.046-4.571,4.57s2.047,4.57,4.571,4.57s4.57-2.046,4.57-4.57
						S89.236,12.605,86.712,12.605z M86.712,21.176c-2.209,0-3.999-1.791-3.999-4s1.79-4,3.999-4s4,1.791,4,4
						S88.921,21.176,86.712,21.176z"/>
				</g>
			</g>
			<path fill="#FFFFFF" d="M84.141,5.31c3.464,0,6.542,5.605,8.489,14.289c0.129,0,0.259,0,0.389,0
				c-1.821-10.44-5.115-17.415-8.878-17.415s-7.057,6.975-8.877,17.415c0.129,0,0.259,0,0.389,0
				C77.6,10.915,80.677,5.31,84.141,5.31z"/>
		</g>
	</g>
	<g>
		<path d="M0,8.098h5.157v1.19H3.284v7.271H1.873V9.288H0V8.098z"/>
		<path d="M5.729,8.098H7.03v3.029c0.291-0.652,0.786-0.979,1.483-0.979c0.357,0,0.657,0.083,0.902,0.248
			c0.244,0.165,0.414,0.386,0.511,0.66c0.097,0.275,0.145,0.795,0.145,1.56v3.944h-1.3v-3.944c0-0.652-0.073-1.055-0.22-1.206
			c-0.146-0.15-0.327-0.227-0.541-0.227c-0.654,0-0.98,0.598-0.98,1.793v3.584H5.729V8.098z"/>
		<path d="M10.723,10.302h1.264l1.103,4.343l1.131-4.343h1.175l-2.032,6.658c-0.149,0.483-0.286,0.842-0.41,1.073
			s-0.3,0.419-0.527,0.562c-0.229,0.142-0.522,0.214-0.883,0.214c-0.216,0-0.438-0.03-0.665-0.088v-1.036
			c0.166,0.029,0.317,0.044,0.454,0.044c0.336,0,0.574-0.082,0.716-0.244c0.141-0.163,0.292-0.541,0.454-1.135L10.723,10.302z"/>
		<path d="M19.88,11.75l-1.014,0.271c-0.185-0.617-0.536-0.926-1.055-0.926c-0.239,0-0.432,0.074-0.577,0.223
			s-0.219,0.332-0.219,0.55c0,0.248,0.073,0.429,0.222,0.545c0.148,0.115,0.487,0.259,1.019,0.434
			c0.654,0.219,1.125,0.466,1.413,0.74c0.287,0.275,0.432,0.659,0.432,1.15c0,0.554-0.206,1.022-0.618,1.404
			c-0.413,0.383-0.969,0.574-1.67,0.574c-1.324,0-2.075-0.607-2.252-1.823l1.103-0.205c0.137,0.721,0.526,1.08,1.169,1.08
			c0.326,0,0.57-0.082,0.729-0.248c0.159-0.165,0.239-0.362,0.239-0.589c0-0.158-0.056-0.313-0.165-0.469s-0.416-0.315-0.919-0.481
			c-0.482-0.157-0.847-0.304-1.093-0.44c-0.245-0.136-0.447-0.333-0.605-0.592s-0.237-0.552-0.237-0.877
			c0-0.534,0.193-0.987,0.581-1.361c0.387-0.374,0.889-0.562,1.503-0.562C18.907,10.147,19.579,10.682,19.88,11.75z"/>
		<path d="M24.857,11.75l-1.014,0.271c-0.186-0.617-0.537-0.926-1.055-0.926c-0.239,0-0.432,0.074-0.577,0.223
			c-0.146,0.148-0.22,0.332-0.22,0.55c0,0.248,0.074,0.429,0.223,0.545c0.147,0.115,0.487,0.259,1.018,0.434
			c0.654,0.219,1.125,0.466,1.413,0.74c0.288,0.275,0.433,0.659,0.433,1.15c0,0.554-0.206,1.022-0.618,1.404
			c-0.413,0.383-0.97,0.574-1.671,0.574c-1.323,0-2.074-0.607-2.251-1.823l1.102-0.205c0.138,0.721,0.527,1.08,1.169,1.08
			c0.327,0,0.57-0.082,0.729-0.248c0.16-0.165,0.239-0.362,0.239-0.589c0-0.158-0.055-0.313-0.164-0.469s-0.416-0.315-0.92-0.481
			c-0.482-0.157-0.847-0.304-1.092-0.44c-0.246-0.136-0.447-0.333-0.605-0.592c-0.159-0.259-0.237-0.552-0.237-0.877
			c0-0.534,0.193-0.987,0.58-1.361c0.388-0.374,0.889-0.562,1.503-0.562C23.885,10.147,24.557,10.682,24.857,11.75z"/>
		<path d="M30.605,13.63h-3.513c0,0.845,0.112,1.409,0.337,1.691s0.507,0.424,0.847,0.424c0.566,0,0.924-0.39,1.073-1.168
			l1.19,0.154c-0.309,1.322-1.078,1.983-2.308,1.983c-0.753,0-1.354-0.271-1.802-0.812c-0.449-0.541-0.673-1.336-0.673-2.381
			c0-1.075,0.227-1.906,0.68-2.493c0.454-0.587,1.06-0.881,1.819-0.881c0.531,0,0.979,0.147,1.341,0.441
			c0.363,0.294,0.618,0.681,0.767,1.16C30.513,12.228,30.594,12.854,30.605,13.63z M29.283,12.726c0-1.087-0.354-1.631-1.064-1.631
			c-0.665,0-1.029,0.544-1.095,1.631H29.283z"/>
		<path d="M31.688,10.302h1.19v0.962c0.288-0.744,0.803-1.116,1.545-1.116c0.42,0,0.759,0.102,1.017,0.304
			c0.257,0.202,0.42,0.446,0.488,0.729c0.067,0.283,0.102,0.731,0.102,1.343v4.037h-1.3v-3.968c0-0.547-0.047-0.918-0.141-1.114
			s-0.292-0.295-0.597-0.295c-0.316,0-0.563,0.126-0.739,0.376c-0.177,0.25-0.265,0.747-0.265,1.491v3.51h-1.301V10.302z"/>
		<path d="M37.57,8.098h1.411v4.062l2.554-4.062h1.457l-2.169,3.106l2.543,5.355h-1.512l-1.885-4.2l-0.988,1.424v2.776H37.57V8.098z
			"/>
		<path d="M44.017,10.302h1.146v1.399c0.345-1.036,0.862-1.554,1.551-1.554c0.065,0,0.144,0.006,0.234,0.019v1.366
			c-0.106-0.013-0.193-0.019-0.259-0.019c-0.915,0-1.372,0.62-1.372,1.859v3.187h-1.3V10.302z"/>
		<path d="M47.431,10.302h1.3v3.981c0,0.555,0.045,0.926,0.135,1.113c0.089,0.188,0.286,0.282,0.59,0.282
			c0.377,0,0.642-0.168,0.792-0.503c0.149-0.334,0.225-0.954,0.225-1.859v-3.015h1.301v6.258h-1.19v-0.937
			c-0.333,0.729-0.859,1.092-1.582,1.092c-0.369,0-0.672-0.078-0.908-0.235c-0.235-0.158-0.404-0.38-0.507-0.669
			c-0.104-0.29-0.154-0.792-0.154-1.506V10.302z"/>
		<path d="M52.849,10.302h1.19v1.024c0.323-0.757,0.837-1.135,1.538-1.135c0.627,0,1.134,0.276,1.52,0.828s0.578,1.338,0.578,2.359
			c0,0.913-0.175,1.69-0.523,2.33c-0.349,0.642-0.891,0.961-1.625,0.961c-0.588,0-1.047-0.254-1.377-0.762v2.768h-1.301V10.302z
			 M54.149,13.946c0,0.401,0.029,0.715,0.088,0.939s0.18,0.417,0.363,0.576c0.183,0.159,0.39,0.239,0.622,0.239
			c0.724,0,1.086-0.773,1.086-2.318c0-1.496-0.354-2.244-1.062-2.244c-0.313,0-0.574,0.153-0.784,0.459
			c-0.209,0.306-0.313,0.742-0.313,1.308V13.946z"/>
		<path d="M58.787,10.302h1.189v1.024c0.324-0.757,0.837-1.135,1.538-1.135c0.628,0,1.135,0.276,1.521,0.828
			c0.385,0.552,0.578,1.338,0.578,2.359c0,0.913-0.175,1.69-0.523,2.33c-0.35,0.642-0.892,0.961-1.625,0.961
			c-0.588,0-1.048-0.254-1.378-0.762v2.768h-1.3V10.302z M60.087,13.946c0,0.401,0.029,0.715,0.089,0.939
			c0.059,0.225,0.18,0.417,0.362,0.576c0.184,0.159,0.391,0.239,0.623,0.239c0.723,0,1.086-0.773,1.086-2.318
			c0-1.496-0.354-2.244-1.062-2.244c-0.313,0-0.575,0.153-0.784,0.459c-0.21,0.306-0.314,0.742-0.314,1.308V13.946z"/>
	</g>
</g>
</svg>
