<?xml version="1.0" encoding="utf-8"?>
<!-- Generator: Adobe Illustrator 16.0.0, SVG Export Plug-In . SVG Version: 6.00 Build 0)  -->
<!DOCTYPE svg PUBLIC "-//W3C//DTD SVG 1.1//EN" "http://www.w3.org/Graphics/SVG/1.1/DTD/svg11.dtd">
<svg version="1.1" xmlns="http://www.w3.org/2000/svg" xmlns:xlink="http://www.w3.org/1999/xlink" x="0px" y="0px"
	 width="112.694px" height="23.086px" viewBox="0 0 112.694 23.086" enable-background="new 0 0 112.694 23.086"
	 xml:space="preserve">
<g>
	<g>
		<path fill="#009EE2" d="M103.552,20.159c0,0,0.331-0.13,0.838-0.581c0.509-0.448,0.59-1.039,1.045-1.61
			c0.505-0.636,1.58-1.629,1.58-1.629s-0.328,1.371-0.639,2.011c-0.455,0.929-0.955,1.216-0.955,1.216s0.251,0.175,0.588,0.023
			c0.336-0.146,0.692-0.334,1.198-0.28c0.507,0.058,1.138,0.073,1.772-0.299c0.635-0.376,1.2-0.743,1.2-0.743
			s-0.399,1.22-1.986,1.896c-1.022,0.438-2.221,0.428-2.595,0.223c-0.377-0.205-0.823-0.304-1.142-0.209
			S103.552,20.159,103.552,20.159"/>
		<path fill="#009EE2" d="M108.681,13.656c0,0,0.012,1.18,0.087,1.592c0.075,0.41-0.013,0.918-0.185,1.312
			c-0.167,0.394-0.453,0.956-0.248,1.067c0.211,0.113,0.28-0.337,0.732-0.658c0.449-0.319,1.268-0.737,1.713-1.006
			c0.718-0.434,1.265-1.24,1.265-1.24s-0.316,1.837-1.859,2.902c-1.021,0.704-3.048,0.882-3.048,0.882s0.215-0.19,0.326-0.678
			c0.111-0.485,0.164-1.515,0.368-2.171C108.035,15.003,108.681,13.656,108.681,13.656"/>
		<path fill="#009EE2" d="M109.514,10.987c0,0,0.584,1.469,0.658,1.878c0.073,0.412-0.042,1.641-0.042,1.641
			s0.479-0.434,0.952-1.175c0.368-0.584,0.896-0.788,1.199-1.258c0.297-0.468,0.413-0.656,0.413-0.656s-0.295,1.302-0.622,2.062
			c-0.544,1.269-2.715,2.607-2.715,2.607s0.115-0.372,0.171-1.101c0.056-0.729-0.129-1.577-0.183-2.123
			C109.295,12.341,109.514,10.987,109.514,10.987"/>
		<path fill="#009EE2" d="M109.479,7.982c0,0,0.17,0.205,0.524,0.767c0.355,0.561,0.823,1.159,0.842,1.498
			c0.019,0.336,0.187,0.751,0.3,0.731c0.111-0.019,0.11-0.401,0.28-0.985c0.168-0.579,0.668-1.153,0.75-1.581
			c0.067-0.348,0.203-0.845,0.203-0.845s0.265,1.48-0.053,2.68c-0.319,1.198-1.027,1.776-1.141,1.929
			c-0.114,0.147-0.321,0.356-0.321,0.356s0.11,0.11-0.223-0.638c-0.335-0.749-0.571-1.213-0.867-1.765
			C109.547,9.707,109.479,7.982,109.479,7.982"/>
		<path fill="#009EE2" d="M108.729,5.505c0,0,0.815,0.473,1.189,0.878c0.42,0.455,0.891,1.301,1.04,1.264
			c0.151-0.038-0.009-0.751,0.03-1.031c0.041-0.28,0.148-1.546,0.091-1.881c-0.056-0.336-0.158-0.815-0.158-0.815
			s0.931,1.362,0.911,2.334c-0.018,0.974,0.029,1.191-0.41,1.95c-0.23,0.401-0.375,0.954-0.375,0.954s-0.136-0.285-0.455-0.678
			c-0.318-0.396-1.006-1.069-1.25-1.669C109.096,6.21,108.729,5.505,108.729,5.505"/>
		<path fill="#009EE2" d="M107.493,3.124c0,0,0.232,0.214,0.607,0.475c0.375,0.264,0.848,0.44,1.109,0.701
			c0.259,0.262,0.588,0.567,0.72,0.491c0.129-0.073-0.038-0.309-0.241-0.872c-0.208-0.562-0.211-1.119-0.377-1.364
			c-0.165-0.241-0.318-0.721-0.318-0.721s1.028,0.801,1.218,1.457c0.188,0.653,0.163,2.718,0.163,2.718s-0.186-0.261-0.539-0.522
			c-0.357-0.261-1.252-0.911-1.555-1.149C107.726,3.91,107.493,3.124,107.493,3.124"/>
		<g>
			<path fill="#009EE2" d="M106.658,0.925c0,0,0.826,0.224,1.351,0.671c0.522,0.451,0.955,1.689,0.955,1.689
				s-0.865-0.433-1.219-0.771C107.391,2.179,106.658,0.925,106.658,0.925"/>
			<path fill="#009EE2" d="M90.729,20.834c0,0,0.949,0.489,1.681,0.434c0.732-0.055,1.41-0.297,2.617-0.611
				c1.211-0.311,2.133-0.379,2.676-0.282c0.541,0.092,1.493,0.217,1.493,0.217s1.234-0.192,2.195-0.245
				c0.489-0.029,1.138,0.114,1.858,0.34c0.698,0.221,1.97,0.625,2.673,0.636c1.045,0.015,1.833-0.395,1.833-0.395
				s-0.102,0.764-2.604,1.005c-1.488,0.138-2.101,0.027-2.754-0.394s-1.373-0.771-1.695-0.784c-0.328-0.017-0.817,0.025-0.817,0.025
				s0.897,0.325,1.345,0.678c0.445,0.354,1.602,1.301,1.602,1.301l-0.287,0.328c0,0-0.446-0.651-1.18-1.183
				c-0.733-0.526-1.76-1.058-2.143-1.058c-0.38,0-1.626,0.569-2.428,1.315c-0.769,0.718-0.856,0.896-0.856,0.896l-0.299-0.299
				c0,0,0.588-0.582,1.37-1.097c0.785-0.519,1.615-0.924,1.615-0.924s-0.026-0.081-0.502-0.04c-0.476,0.04-0.854,0.097-1.666,0.597
				c-0.817,0.501-1.13,0.622-1.833,0.703c-0.688,0.083-2.064-0.054-2.891-0.404C90.904,21.241,90.729,20.834,90.729,20.834"/>
		</g>
		<path fill="#009EE2" d="M88.219,18.147c0,0,0.756,0.6,1.11,0.801c0.79,0.447,1.481,0.243,1.98,0.312
			c0.505,0.069,0.95,0.189,1.101,0.259c0.151,0.069,0.596,0.109,0.64,0.028c0.046-0.096-0.406-0.282-0.746-0.883
			c-0.497-0.878-0.789-2.318-0.789-2.318s0.745,0.528,1.424,1.424c0.679,0.897,0.586,1.338,1.06,1.737
			c0.5,0.418,0.964,0.65,0.964,0.65s-0.622-0.066-1.068-0.025c-0.447,0.039-1.2,0.348-1.887,0.334
			c-0.658-0.012-1.926-0.067-2.986-1.247C88.314,18.436,88.219,18.147,88.219,18.147"/>
		<path fill="#009EE2" d="M86.319,14.784c0,0,0.447,0.597,1.102,1.125c0.651,0.526,1.64,0.841,1.981,1.223
			c0.34,0.382,0.484,0.692,0.675,0.599c0.191-0.096-0.117-0.426-0.241-0.924c-0.126-0.504-0.231-1.845-0.126-2.362
			c0.059-0.271,0.031-0.677,0.031-0.677s0.301,0.51,0.652,1.302c0.321,0.732,0.301,1.992,0.445,2.552
			c0.148,0.586,0.461,0.973,0.461,0.973s-1.006-0.053-1.506-0.241c-0.501-0.192-1.912-0.706-2.442-1.575
			C86.824,15.91,86.319,14.784,86.319,14.784"/>
		<path fill="#009EE2" d="M85.703,11.433c0,0,0.204,0.521,0.528,0.83c0.327,0.31,0.526,0.461,0.907,0.907
			c0.267,0.314,0.897,1.526,1.101,1.492c0.162-0.027-0.081-0.65-0.018-1.263c0.112-1.043,0.762-2.274,0.762-2.274
			s0.15,1.282,0.109,2.045c-0.036,0.761-0.298,1.614-0.203,2.049c0.094,0.436,0.148,0.976,0.148,0.976s-0.99-0.661-1.698-1.298
			c-0.7-0.642-1.341-2.036-1.462-2.471C85.756,11.993,85.703,11.433,85.703,11.433"/>
		<path fill="#009EE2" d="M85.969,7.637c0,0-0.127,1.882,0.11,2.74c0.376,1.381,1.436,2.266,1.436,2.266s0.094-0.476,0.325-0.965
			c0.232-0.487,0.599-0.973,0.746-1.366c0.288-0.777,0.354-2.158,0.354-2.158s-0.255,0.391-0.487,0.704
			c-0.23,0.312-0.513,0.69-0.733,1.207c-0.217,0.518-0.244,0.994-0.488,1.019c-0.344,0.03-0.054-0.459-0.34-1.127
			c-0.284-0.665-0.69-1.343-0.732-1.667C86.118,7.965,85.969,7.637,85.969,7.637"/>
		<path fill="#009EE2" d="M87.456,3.996c0,0-0.747,1.019-0.856,1.951c-0.107,0.938-0.037,1.689,0.326,2.308
			c0.244,0.42,0.323,1.044,0.323,1.044s0.125-0.322,0.436-0.665c0.311-0.339,0.853-0.824,1.233-1.477
			c0.383-0.651,0.72-1.508,0.72-1.508s-0.609,0.345-0.95,0.655c-0.857,0.778-1.276,1.518-1.276,1.518s-0.241-0.216-0.162-0.53
			c0.086-0.312,0.123-0.789,0.098-1.141c-0.029-0.35-0.139-0.553-0.074-0.989C87.347,4.728,87.456,3.996,87.456,3.996"/>
		<path fill="#009EE2" d="M89.486,1.89c0,0-1.001,0.61-1.273,1.37c-0.205,0.581-0.123,1.192-0.218,1.805
			c-0.093,0.609,0.027,1.03,0.027,1.03s0.08-0.151,0.437-0.528c0.353-0.38,0.908-0.609,1.299-0.886
			c0.844-0.582,1.224-1.531,1.224-1.531s-0.489,0.447-0.736,0.585c-0.241,0.135-0.701,0.352-1.038,0.598
			c-0.248,0.172-0.447,0.687-0.447,0.687s-0.315-0.294-0.208-0.62c0.109-0.325,0.271-0.571,0.338-0.896
			c0.069-0.325,0.164-0.801,0.3-1.044C89.319,2.233,89.486,1.89,89.486,1.89"/>
		<path fill="#009EE2" d="M90.217,1.841c0.409-0.392,1.544-0.812,1.544-0.812s-0.488,0.816-1.016,1.357
			c-0.614,0.63-1.386,1.002-1.386,1.002S89.511,2.518,90.217,1.841"/>
		<path fill="#009EE2" d="M95.537,3.184c1.05,0,3.157,1.134,3.157,2.647c0,0.948-0.735,1.587-0.735,1.587s0.03,0.527-0.044,0.688
			c-0.139,0.305-0.277,0.215-0.458,0.489c-0.184,0.273-0.259,0.702-1.023,0.702c-0.767,0-0.75-0.245-1.116-0.245
			c-0.365,0-0.61,0.352-0.61,0.352v2.735c0,0,0.077,0.349,0.764,0.717c0.687,0.367,1.225,0.596,1.437,0.596s0.211-0.244,0.472-0.244
			s1.314,0,1.314,0.489s-0.519,0.823-2.414,0.823c-1.893,0-2.473-0.151-2.688-0.151c-0.214,0-0.244,0.046-0.244,0.335
			c0,0.291-0.014,0.702-0.014,0.702s0.317,0.506,0.7,0.703c0.383,0.199,0.598,0.306,1.024,0.306c0.428,0,1.067-0.137,1.589-0.368
			c0.521-0.229,1.022-0.364,1.62-0.364c0.596,0,1.648-0.137,1.648-0.748c0-0.612-0.228-0.825-0.228-1.299s0.074-0.889-0.153-1.117
			c-0.227-0.227-1.237-0.96-1.237-1.372s0.368-0.596,0.413-0.825c0.045-0.229,0.015-0.365,0.168-0.412
			c0.152-0.046,0.274-0.107,0.274-0.107l0.076-0.381c0,0,0.201-0.094,0.306-0.186c0.106-0.09,0.197-0.15,0.197-0.15
			S99.641,8.793,99.81,8.61c0.167-0.183,0.397-0.139,0.564-0.139s0.686-0.061,0.686-0.061s0.166-0.302,0.354-0.441
			c0.306-0.23,1.143-0.352,1.358-0.52c0.214-0.167,0.442-0.581,1.009-0.581c2.319,0,3.878,2.095,3.878,3.224
			c0,1.954-1.268,4.32-3.038,4.32c-1.391,0-1.298,0.412-1.298,0.871c0,1.069,1.039,1.268,1.039,1.268s-2.186,1.649-4.722,1.649
			c-2.409,0-4.808-0.888-6.531-2.789c-1.188-1.305-2.093-3.039-2.093-5.42c0-0.937,0.003-1.093,0.003-1.093s0.63-0.492,1.013-0.687
			c0.385-0.193,1.236-0.69,1.236-1.1c0-0.406-0.159-0.564-0.159-1.428c0-0.398,0.099-1.123,0.462-1.614
			C93.996,3.499,94.738,3.184,95.537,3.184"/>
		<path fill="#009EE2" d="M99.288,0.672c-5.097,0-9.227,4.132-9.227,9.227c0,5.097,4.13,9.227,9.227,9.227
			c5.095,0,9.225-4.13,9.225-9.227C108.513,4.804,104.383,0.672,99.288,0.672L99.288,0.672z M106.176,4.178
			c0.48,0.567,0.693,0.975,0.693,0.975s-0.319,0.325-0.688,0.5c-0.37,0.174-1.062,0.435-1.062,0.435s-0.253-0.786-0.456-1.205
			c-0.204-0.417-0.414-0.911-0.414-0.911s0.203-0.138,0.504-0.352c0.299-0.211,0.503-0.397,0.503-0.397S105.773,3.699,106.176,4.178
			L106.176,4.178z M103.131,1.805c0,0,0.626,0.273,1.045,0.585c0.419,0.31,0.903,0.689,0.903,0.689s-0.074,0.131-0.309,0.308
			c-0.233,0.177-0.576,0.33-0.576,0.33s-0.31-0.435-0.571-0.766c-0.26-0.331-0.749-0.896-0.749-0.896s0.11-0.105,0.167-0.174
			C103.1,1.812,103.131,1.805,103.131,1.805L103.131,1.805z M101.924,3.727c-0.098-0.43-0.334-0.825-0.334-0.825
			s0.383-0.187,0.635-0.351c0.254-0.164,0.457-0.331,0.457-0.331s0.438,0.439,0.758,0.837c0.317,0.397,0.543,0.779,0.543,0.779
			s-0.407,0.184-0.873,0.396s-1.051,0.301-1.051,0.301S102.021,4.155,101.924,3.727L101.924,3.727z M102.157,6.875
			c0,0-0.215,0.06-0.933,0.09c-0.719,0.028-1.354-0.012-1.354-0.012V4.912c0,0,0.557,0.037,0.966,0.037
			c0.407,0,1.098-0.123,1.098-0.123s0.039,0.319,0.125,0.835C102.146,6.175,102.157,6.875,102.157,6.875L102.157,6.875z
			 M102.387,1.484c0.253,0.068,0.551,0.248,0.551,0.248l-0.267,0.207c0,0-0.192-0.174-0.358-0.341
			c-0.19-0.191-0.581-0.308-0.581-0.308S102.134,1.417,102.387,1.484L102.387,1.484z M101.66,1.414
			c0.47,0.257,0.828,0.668,0.828,0.668s-0.176,0.116-0.419,0.292c-0.241,0.177-0.586,0.249-0.586,0.249s-0.214-0.511-0.367-0.802
			c-0.146-0.271-0.62-0.778-0.62-0.778S101.19,1.156,101.66,1.414L101.66,1.414z M99.83,0.989c0,0,0.505-0.133,0.965,0.739
			c0.239,0.452,0.458,0.966,0.458,0.966s-0.357,0.108-0.715,0.148c-0.36,0.037-0.708-0.02-0.708-0.02V0.989L99.83,0.989z
			 M99.825,3.087c0,0,0.348,0.028,0.748,0c0.4-0.027,0.785-0.113,0.785-0.113s0.138,0.146,0.267,0.726
			c0.117,0.526,0.179,0.903,0.179,0.903s-0.425,0.116-1.026,0.155c-0.602,0.038-0.952-0.03-0.952-0.03V3.087L99.825,3.087z
			 M99.553,0.989l0.034,1.861c0,0-0.398,0.036-0.837-0.083c-0.437-0.119-0.64-0.248-0.64-0.248s0.234-0.469,0.534-0.877
			C99.31,0.729,99.553,0.989,99.553,0.989L99.553,0.989z M98.989,0.942c0,0-0.429,0.403-0.618,0.771s-0.449,0.723-0.449,0.723
			s-0.332-0.143-0.558-0.309S97.02,1.843,97.02,1.843s0.365-0.416,1.019-0.652C98.69,0.955,98.989,0.942,98.989,0.942L98.989,0.942z
			 M97.258,1.156c0.346-0.082,0.617-0.105,0.617-0.105s-0.38,0.188-0.594,0.354C97.067,1.57,96.878,1.69,96.878,1.69
			s-0.104-0.072-0.154-0.155c-0.048-0.083-0.071-0.189-0.071-0.189S96.913,1.239,97.258,1.156L97.258,1.156z M99.305,18.844
			c-4.534,0-8.979-3.614-8.979-8.927c0-6.659,6.056-8.487,6.056-8.487l0.366,0.343c0,0-0.322,0.211-0.582,0.485
			c-0.259,0.273-0.415,0.51-0.415,0.51l0.156,0.144c0,0,0.188-0.276,0.401-0.487c0.214-0.213,0.522-0.462,0.522-0.462
			s0.311,0.319,0.51,0.438c0.2,0.119,0.485,0.248,0.485,0.248s-0.023,0.154-0.106,0.345c-0.082,0.189-0.166,0.438-0.166,0.438
			l0.189,0.106c0,0,0.133-0.366,0.201-0.509c0.071-0.142,0.13-0.284,0.13-0.284s0.452,0.189,0.843,0.272
			c0.392,0.083,0.675,0.072,0.675,0.072v1.588H99.01v0.271h0.601V6.94h-0.504v0.226h0.491v0.732h0.243v-0.71
			c0,0,0.318,0.013,1.149-0.022c0.831-0.038,1.364-0.119,1.364-0.119s-0.022-0.76-0.095-1.316c-0.072-0.558-0.19-0.983-0.19-0.983
			s0.473-0.06,0.995-0.272c0.524-0.213,0.971-0.415,0.971-0.415s0.276,0.402,0.487,0.973c0.212,0.569,0.414,1.147,0.414,1.147
			l-0.354,0.155l0.06,0.178l0.41-0.122l0.118,0.248l0.157-0.07l-0.116-0.251c0,0,0.488-0.146,0.974-0.407
			c0.487-0.263,0.842-0.51,0.842-0.51s1.222,1.859,1.222,4.498C108.249,13.955,105.114,18.844,99.305,18.844"/>
		<path fill="none" stroke="#000000" stroke-width="0.8169" d="M90.955,8.253"/>
		<path fill="none" stroke="#000000" stroke-width="0.8169" d="M92.615,4.646"/>
		<path fill="#009EE2" d="M10.362,22.317v-2.33l-0.062-0.062c-1.135,1.872-2.514,2.852-5.089,2.852C2.852,22.776,0,21.643,0,17.811
			V6.283h2.698v10.639c0,2.636,1.35,3.524,3.097,3.524c3.402,0,4.414-3.004,4.414-5.334V6.283h2.698v16.034H10.362"/>
		<path fill="#009EE2" d="M30.013,22.317h-2.696v-9.872c0-2.789-0.797-4.199-3.435-4.199c-1.532,0-4.23,0.98-4.23,5.334v8.737
			h-2.698V6.283h2.545v2.27h0.061c0.584-0.859,2.085-2.729,4.846-2.729c2.481,0,5.608,1.012,5.608,5.581V22.317"/>
		<path fill="#009EE2" d="M34.061,3.371V0.307h2.697v3.064H34.061L34.061,3.371z M36.758,22.317h-2.697V6.283h2.697V22.317"/>
		<path fill="#009EE2" d="M50.83,11.68c-0.337-2.146-1.534-3.434-3.802-3.434c-3.342,0-4.415,3.188-4.415,6.039
			c0,2.759,0.675,6.161,4.383,6.161c1.811,0,3.374-1.349,3.834-3.801h2.605c-0.277,2.545-1.841,6.131-6.53,6.131
			c-4.507,0-7.173-3.402-7.173-8.031c0-4.966,2.391-8.922,7.694-8.922c4.199,0,5.795,3.066,6.009,5.856H50.83"/>
		<path fill="#009EE2" d="M69.744,17.29c-0.092,0.767-0.827,3.034-2.851,4.383c-0.735,0.49-1.777,1.104-4.353,1.104
			c-4.507,0-7.175-3.402-7.175-8.031c0-4.966,2.392-8.922,7.695-8.922c4.629,0,6.899,3.679,6.899,9.352H58.249
			c0,3.341,1.562,5.271,4.659,5.271c2.546,0,4.048-1.962,4.139-3.156H69.744L69.744,17.29z M67.17,13.027
			c-0.154-2.481-1.196-4.781-4.476-4.781c-2.483,0-4.445,2.3-4.445,4.781H67.17"/>
		<path fill="#009EE2" d="M76.52,8.521v13.797h-2.698V8.521h-2.206V6.283h2.206v-2.76c0-2.421,1.534-3.523,4.17-3.523
			c0.398,0,0.798,0.028,1.228,0.061v2.423c-0.339-0.032-0.769-0.062-1.104-0.062c-1.164,0-1.595,0.582-1.595,1.869v1.993h2.699
			v2.237H76.52"/>
	</g>
</g>
</svg>
