<?xml version="1.0" encoding="utf-8"?>
<!-- Generator: Adobe Illustrator 16.0.0, SVG Export Plug-In . SVG Version: 6.00 Build 0)  -->
<!DOCTYPE svg PUBLIC "-//W3C//DTD SVG 1.1//EN" "http://www.w3.org/Graphics/SVG/1.1/DTD/svg11.dtd">
<svg version="1.1" xmlns="http://www.w3.org/2000/svg" xmlns:xlink="http://www.w3.org/1999/xlink" x="0px" y="0px"
	 width="47.702px" height="47.702px" viewBox="0 0 47.702 47.702" enable-background="new 0 0 47.702 47.702" xml:space="preserve">
<g>
	<g>
		<radialGradient id="SVGID_2_" cx="10.3457" cy="8.8789" r="51.0738" gradientUnits="userSpaceOnUse">
			<stop  offset="0" style="stop-color:#1DBBEE"/>
			<stop  offset="0.1455" style="stop-color:#769DD2"/>
			<stop  offset="0.36" style="stop-color:#3A75B9"/>
			<stop  offset="0.6121" style="stop-color:#143C7B"/>
			<stop  offset="0.8242" style="stop-color:#212B59"/>
		</radialGradient>
		<path fill-rule="evenodd" clip-rule="evenodd" fill="url(#SVGID_2_)" d="M23.852,47.702c13.136,0,23.851-10.715,23.851-23.851
			C47.702,10.715,36.987,0,23.852,0C10.715,0,0,10.715,0,23.852C0,36.987,10.715,47.702,23.852,47.702z"/>
		<linearGradient id="SVGID_4_" gradientUnits="userSpaceOnUse" x1="45.4619" y1="45.2705" x2="4.3725" y2="4.1811">
			<stop  offset="0" style="stop-color:#23244F"/>
			<stop  offset="1" style="stop-color:#353B72"/>
		</linearGradient>
		<path fill-rule="evenodd" clip-rule="evenodd" fill="url(#SVGID_4_)" d="M24.916,4.164c11.324,0,20.561,9.236,20.561,20.562
			c0,11.324-9.236,20.561-20.561,20.561c-11.325,0-20.562-9.236-20.562-20.561C4.354,13.4,13.591,4.164,24.916,4.164L24.916,4.164z
			 M15.948,9.911c-1.992,1.212-3.723,2.815-5.085,4.701l7.926,18.714l3.551-7.868h2.577h2.576l3.551,7.868l7.925-18.712
			c-1.361-1.887-3.092-3.489-5.084-4.702l-6.391,14.362h-2.577H22.34L15.948,9.911L15.948,9.911z M29.886,8.13
			c-1.576-0.474-3.244-0.73-4.97-0.73s-3.394,0.257-4.969,0.73l4.97,11.131L29.886,8.13L29.886,8.13z M8.334,19.709
			c-0.482,1.589-0.743,3.273-0.743,5.017c0,6.944,4.122,12.956,10.045,15.715C14.325,33.601,11.256,26.68,8.334,19.709L8.334,19.709
			z M19.898,41.307c1.588,0.483,3.273,0.744,5.018,0.744s3.429-0.261,5.019-0.745l-5.018-10.904L19.898,41.307L19.898,41.307z
			 M32.198,40.439c5.921-2.76,10.042-8.771,10.042-15.714c0-1.742-0.26-3.426-0.742-5.014
			C38.577,26.681,35.507,33.601,32.198,40.439z"/>
		<linearGradient id="SVGID_6_" gradientUnits="userSpaceOnUse" x1="24.707" y1="25.7441" x2="31.5478" y2="40.4031">
			<stop  offset="0" style="stop-color:#B5BBBA"/>
			<stop  offset="0.18" style="stop-color:#A6ABAE"/>
			<stop  offset="0.34" style="stop-color:#D2D6D9"/>
			<stop  offset="0.54" style="stop-color:#E5E7E9"/>
			<stop  offset="0.67" style="stop-color:#F1F1F2"/>
			<stop  offset="0.8" style="stop-color:#F5F5F6"/>
			<stop  offset="0.93" style="stop-color:#F7F6F6"/>
			<stop  offset="1" style="stop-color:#F8F8F9"/>
		</linearGradient>
		<path fill-rule="evenodd" clip-rule="evenodd" fill="url(#SVGID_6_)" d="M24.609,3.313c10.333,0.067,19.632,9.042,19.632,20.366
			c0,11.325-9.236,20.562-20.562,20.562c-11.324,0-20.342-9.137-20.342-20.462c0-11.324,9.932-20.398,20.131-20.533L24.609,3.313z
			 M14.884,8.952c-1.993,1.212-3.724,2.814-5.085,4.7l7.926,18.715l3.551-7.869h5.153l3.551,7.869l7.925-18.713
			c-1.361-1.886-3.092-3.489-5.085-4.701l-6.39,14.361h-5.155L14.884,8.952L14.884,8.952z M28.82,7.17
			c-1.574-0.474-3.243-0.729-4.969-0.729c-1.727,0-3.394,0.256-4.969,0.729l4.969,11.131L28.82,7.17L28.82,7.17z M7.099,18.664
			c-0.483,1.589-0.744,3.273-0.744,5.016c0,6.945,4.123,12.956,10.046,15.716L7.099,18.664L7.099,18.664z M18.662,40.262
			c1.59,0.483,3.274,0.744,5.018,0.744c1.745,0,3.43-0.262,5.02-0.745l-5.019-10.904L18.662,40.262L18.662,40.262z M30.962,39.394
			c5.922-2.759,10.043-8.77,10.043-15.714c0-1.742-0.26-3.426-0.742-5.013L30.962,39.394z"/>
	</g>
	<linearGradient id="SVGID_8_" gradientUnits="userSpaceOnUse" x1="37.2441" y1="41.2891" x2="17.4989" y2="15.581">
		<stop  offset="0" style="stop-color:#B5BBBA"/>
		<stop  offset="0.18" style="stop-color:#A6ABAE"/>
		<stop  offset="0.34" style="stop-color:#D2D6D9"/>
		<stop  offset="0.54" style="stop-color:#E5E7E9"/>
		<stop  offset="0.67" style="stop-color:#F1F1F2"/>
		<stop  offset="0.8" style="stop-color:#F5F5F6"/>
		<stop  offset="0.93" style="stop-color:#F7F6F6"/>
		<stop  offset="1" style="stop-color:#F8F8F9"/>
	</linearGradient>
	<path fill-rule="evenodd" clip-rule="evenodd" fill="url(#SVGID_8_)" d="M23.852,3.29c11.324,0,20.561,9.236,20.561,20.562
		c0,11.324-9.236,20.561-20.561,20.561c-11.325,0-20.562-9.236-20.562-20.561C3.29,12.526,12.526,3.29,23.852,3.29L23.852,3.29z
		 M14.884,9.037c-1.993,1.212-3.724,2.815-5.085,4.701l7.926,18.714l3.551-7.868h5.153l3.551,7.868l7.925-18.712
		c-1.361-1.887-3.092-3.489-5.085-4.702L26.43,23.4h-5.155L14.884,9.037L14.884,9.037z M28.82,7.256
		c-1.574-0.474-3.243-0.73-4.969-0.73c-1.727,0-3.394,0.257-4.969,0.73l4.969,11.131L28.82,7.256L28.82,7.256z M7.27,18.835
		c-0.482,1.589-0.744,3.273-0.744,5.017c0,6.944,4.123,12.955,10.045,15.715L7.27,18.835L7.27,18.835z M18.833,40.433
		c1.59,0.483,3.274,0.744,5.019,0.744s3.429-0.262,5.02-0.745l-5.02-10.904L18.833,40.433L18.833,40.433z M31.134,39.565
		c5.921-2.76,10.043-8.771,10.043-15.714c0-1.742-0.261-3.426-0.743-5.014L31.134,39.565z"/>
</g>
</svg>
